<svg xmlns="http://www.w3.org/2000/svg" xmlns:xlink="http://www.w3.org/1999/xlink" fill="none" viewBox="0 0 831 414">
  <defs>
    <path id="b" fill="#fff" d="M0 49A49 49 0 0 1 49 0h733a49 49 0 0 1 49 49v316a49 49 0 0 1-49 49H49a49 49 0 0 1-49-49V49Z"/>
  </defs>
  <g clip-path="url(#a)">
    <use xlink:href="#b"/>
    <path fill="#2D0A09" d="m54.37 241.6 2.58-2.52c.74.9 1.59 1.65 2.55 2.28a11.58 11.58 0 0 0 6.65 2.01c1.4 0 2.62-.2 3.68-.6a6.19 6.19 0 0 0 2.51-1.75c.61-.73.91-1.6.91-2.58 0-1.3-.57-2.3-1.7-3.04-1.12-.76-3.05-1.34-5.78-1.75a25.62 25.62 0 0 1-5.97-1.52 7.43 7.43 0 0 1-3.27-2.4 5.99 5.99 0 0 1-1.02-3.49 6.9 6.9 0 0 1 1.33-4.18 8.54 8.54 0 0 1 3.65-2.81 13.3 13.3 0 0 1 5.35-1.03c2.3 0 4.35.46 6.12 1.37 1.8.89 3.37 2.1 4.71 3.65l-2.54 2.47a12.64 12.64 0 0 0-3.54-3.08 9.12 9.12 0 0 0-4.75-1.18c-1.92 0-3.5.43-4.75 1.3a3.9 3.9 0 0 0-1.82 3.38c0 .73.23 1.36.68 1.9.46.5 1.2.93 2.25 1.29 1.03.35 2.43.67 4.18.95 2.53.35 4.57.88 6.11 1.6a7.6 7.6 0 0 1 3.42 2.62 6.59 6.59 0 0 1 1.1 3.83c0 1.65-.46 3.1-1.4 4.34a9.09 9.09 0 0 1-3.84 2.92c-1.62.69-3.5 1.03-5.62 1.03a16 16 0 0 1-6.69-1.33 16.42 16.42 0 0 1-5.1-3.69Zm42.05-1.15 2.2 2.28a10.34 10.34 0 0 1-3.65 2.85 10.97 10.97 0 0 1-4.82 1.03c-2.05 0-3.88-.43-5.47-1.3a9.72 9.72 0 0 1-3.77-3.53 10.14 10.14 0 0 1-1.33-5.2c0-1.96.43-3.68 1.3-5.17a9.3 9.3 0 0 1 3.57-3.57c1.52-.87 3.23-1.3 5.13-1.3a9.26 9.26 0 0 1 8.28 4.8 10.2 10.2 0 0 1 1.26 5.12v.23h-3.58v-.34a7.9 7.9 0 0 0-.76-3.57 5.6 5.6 0 0 0-2.12-2.4 5.47 5.47 0 0 0-3.08-.87 5.9 5.9 0 0 0-5.55 3.34 7.99 7.99 0 0 0-.8 3.69c0 1.42.3 2.67.88 3.76a6.36 6.36 0 0 0 2.5 2.47c1.07.58 2.28.87 3.65.87a7.38 7.38 0 0 0 6.16-3.19Zm2.7-2.7H82.2v-2.62h16.3l.6 1.33v1.3Zm13.7-10.9v3.34h-.84a5.79 5.79 0 0 0-5.43 3.38 10.27 10.27 0 0 0-.84 4.49V246h-3.53v-18.85h3.5v6.04h-.54c.28-1.6.78-2.85 1.52-3.76a6.72 6.72 0 0 1 2.62-1.97c.99-.4 2-.61 3.04-.61h.5ZM125.05 246h-3.46l-8.1-18.85h3.77l6.73 16.72h-1.22l6.77-16.72h3.6L125.06 246Zm13.7 0h-3.53v-18.85h3.54V246Zm-1.74-23.3c-.66 0-1.23-.2-1.71-.64a2.27 2.27 0 0 1-.69-1.67c0-.66.23-1.22.69-1.67a2.4 2.4 0 0 1 1.7-.69c.67 0 1.22.23 1.68.69.46.45.69 1 .69 1.67a2.27 2.27 0 0 1-2.36 2.32Zm20.35 17.94 2.4 2.28a9.8 9.8 0 0 1-7.94 3.69 10.3 10.3 0 0 1-5.17-1.3 9.45 9.45 0 0 1-3.54-3.53 10.37 10.37 0 0 1-1.29-5.2c0-1.93.43-3.64 1.3-5.13a9.3 9.3 0 0 1 3.56-3.58 10.27 10.27 0 0 1 5.21-1.33 9.89 9.89 0 0 1 7.87 3.69l-2.4 2.28a6.1 6.1 0 0 0-5.4-2.93 6.15 6.15 0 0 0-5.66 3.38 7.81 7.81 0 0 0-.8 3.62c0 1.36.27 2.58.8 3.64a6.49 6.49 0 0 0 2.28 2.47c1 .59 2.12.88 3.39.88a6 6 0 0 0 3.19-.8 6.8 6.8 0 0 0 2.2-2.13Zm20.38-.19 2.2 2.28a10.34 10.34 0 0 1-3.65 2.85 10.97 10.97 0 0 1-4.82 1.03c-2.05 0-3.88-.43-5.47-1.3a9.72 9.72 0 0 1-3.76-3.53 10.14 10.14 0 0 1-1.34-5.2c0-1.96.44-3.68 1.3-5.17a9.3 9.3 0 0 1 3.57-3.57c1.52-.87 3.23-1.3 5.13-1.3a9.26 9.26 0 0 1 8.28 4.8 10.2 10.2 0 0 1 1.26 5.12v.23h-3.57v-.34c0-1.37-.26-2.56-.77-3.57a5.6 5.6 0 0 0-2.12-2.4 5.48 5.48 0 0 0-3.08-.87 5.9 5.9 0 0 0-5.55 3.34 7.99 7.99 0 0 0-.8 3.69c0 1.42.3 2.67.88 3.76a6.36 6.36 0 0 0 2.5 2.47c1.07.58 2.28.87 3.65.87a7.38 7.38 0 0 0 6.16-3.19Zm2.7-2.7h-16.91v-2.62h16.3l.6 1.33v1.3Zm1.39 5.36 2.24-2.28a9.06 9.06 0 0 0 6.76 2.93c1.42 0 2.58-.28 3.46-.84.89-.58 1.33-1.31 1.33-2.2 0-.81-.38-1.43-1.14-1.86-.76-.46-2.07-.82-3.95-1.07-2.81-.4-4.83-1.02-6.04-1.86a4.1 4.1 0 0 1-1.79-3.5c0-1.16.34-2.19 1.03-3.07a6.56 6.56 0 0 1 2.81-2.06c1.2-.5 2.56-.76 4.1-.76a10.84 10.84 0 0 1 8.2 3.46l-2.2 2.28a8.46 8.46 0 0 0-2.65-2.09c-.99-.53-2.1-.8-3.35-.8-1.29 0-2.35.27-3.19.8-.8.53-1.21 1.22-1.21 2.05 0 .66.35 1.18 1.06 1.56.73.36 1.99.66 3.76.91 2.87.4 4.92 1.07 6.16 1.98 1.27.91 1.9 2.2 1.9 3.84 0 1.19-.36 2.25-1.07 3.19a6.9 6.9 0 0 1-2.96 2.13c-1.24.5-2.69.76-4.33.76-1.85 0-3.52-.3-5.02-.91a13.16 13.16 0 0 1-3.91-2.59Zm25.03 0 2.24-2.28a9.06 9.06 0 0 0 6.76 2.93c1.43 0 2.58-.28 3.47-.84.88-.58 1.32-1.31 1.32-2.2 0-.81-.38-1.43-1.14-1.86-.75-.46-2.07-.82-3.95-1.07-2.8-.4-4.82-1.02-6.04-1.86a4.1 4.1 0 0 1-1.78-3.5 4.9 4.9 0 0 1 1.02-3.07 6.55 6.55 0 0 1 2.81-2.06 10.4 10.4 0 0 1 4.1-.76 10.85 10.85 0 0 1 8.2 3.46l-2.19 2.28a8.47 8.47 0 0 0-2.66-2.09c-.99-.53-2.1-.8-3.34-.8-1.3 0-2.36.27-3.2.8-.8.53-1.21 1.22-1.21 2.05 0 .66.35 1.18 1.06 1.56.74.36 2 .66 3.76.91 2.87.4 4.92 1.07 6.16 1.98 1.27.91 1.9 2.2 1.9 3.84 0 1.19-.35 2.25-1.06 3.19a6.9 6.9 0 0 1-2.97 2.13c-1.24.5-2.68.76-4.33.76-1.85 0-3.52-.3-5.01-.91a13.14 13.14 0 0 1-3.92-2.59Zm29.43 3.5c-1.97 0-3.72-.43-5.24-1.3a9.38 9.38 0 0 1-3.57-3.53 10.38 10.38 0 0 1-1.3-5.2c0-1.96.44-3.68 1.3-5.17a9.38 9.38 0 0 1 3.57-3.54 10.21 10.21 0 0 1 5.24-1.33 10 10 0 0 1 8.78 4.87 9.93 9.93 0 0 1 1.33 5.17c0 1.95-.44 3.68-1.33 5.2a9.38 9.38 0 0 1-3.57 3.54c-1.5.86-3.23 1.29-5.2 1.29Zm0-3.04c1.27 0 2.38-.3 3.35-.88a5.9 5.9 0 0 0 2.24-2.47c.53-1.06.8-2.28.8-3.64a7.8 7.8 0 0 0-.8-3.61 6.13 6.13 0 0 0-5.59-3.38c-1.26 0-2.4.3-3.38.9a5.9 5.9 0 0 0-2.24 2.48 7.81 7.81 0 0 0-.8 3.6c0 1.37.27 2.59.8 3.65a5.9 5.9 0 0 0 5.62 3.35Zm16.69 2.43h-3.53v-27.36h3.53V246Zm23.13 0h-3.5v-4.9l-.04-.12V237c0-1.47-.28-2.76-.83-3.87a5.97 5.97 0 0 0-2.28-2.59 5.95 5.95 0 0 0-3.35-.95c-1.26 0-2.38.3-3.34.92a6.15 6.15 0 0 0-2.24 2.5 7.73 7.73 0 0 0-.8 3.58c0 1.34.28 2.54.83 3.6a6.42 6.42 0 0 0 2.28 2.51 6.6 6.6 0 0 0 3.42.88c1.17 0 2.23-.23 3.2-.69a6.27 6.27 0 0 0 3.45-4.94l.73.73a6.89 6.89 0 0 1-3.58 6.91 9 9 0 0 1-4.4 1.03 9.35 9.35 0 0 1-8.4-4.83 10.89 10.89 0 0 1-1.22-5.2c0-1.93.4-3.64 1.22-5.13a9.28 9.28 0 0 1 8.28-4.9c1.4 0 2.65.26 3.76.8a7.5 7.5 0 0 1 2.78 2.23 7.03 7.03 0 0 1 1.37 3.35h-.88v-14.29h3.54V246Zm19.45.6c-1.98 0-3.72-.42-5.24-1.28a9.38 9.38 0 0 1-3.57-3.54 10.38 10.38 0 0 1-1.3-5.2c0-1.96.43-3.68 1.3-5.17a9.38 9.38 0 0 1 3.57-3.54 10.21 10.21 0 0 1 5.24-1.33 10 10 0 0 1 8.78 4.87 9.93 9.93 0 0 1 1.33 5.17c0 1.95-.44 3.68-1.33 5.2a9.38 9.38 0 0 1-3.57 3.54c-1.5.86-3.23 1.29-5.2 1.29Zm0-3.03c1.27 0 2.38-.3 3.34-.88a5.9 5.9 0 0 0 2.25-2.47c.53-1.06.8-2.28.8-3.64a7.8 7.8 0 0 0-.8-3.61 6.13 6.13 0 0 0-5.59-3.38c-1.27 0-2.4.3-3.38.9a5.9 5.9 0 0 0-2.24 2.48 7.81 7.81 0 0 0-.8 3.6c0 1.37.26 2.59.8 3.65a5.9 5.9 0 0 0 5.62 3.35Zm30.79 2.43h-3.54v-10.87c0-1.85-.42-3.23-1.25-4.14a4.3 4.3 0 0 0-3.38-1.4c-1.02 0-1.98.26-2.9.8a5.67 5.67 0 0 0-2.2 2.5 9.98 9.98 0 0 0-.83 4.4V246h-3.54v-18.85h3.5v5.78h-.53c.27-1.6.78-2.85 1.52-3.76a6.22 6.22 0 0 1 2.62-2.02c1.01-.4 2.06-.6 3.15-.6 2.28 0 4.08.7 5.4 2.12 1.32 1.4 1.98 3.42 1.98 6.08V246Zm21.28 0h-4.52c-1.47 0-2.6-.38-3.38-1.14a4.62 4.62 0 0 1-1.14-3.34v-19.69h3.53v19.23c0 .63.17 1.13.5 1.48.32.33.8.5 1.44.5h3.57V246Zm-.26-15.88H334.9v-2.97h12.47v2.97Zm11.84 16.49c-1.98 0-3.73-.43-5.25-1.3a9.38 9.38 0 0 1-3.57-3.53 10.38 10.38 0 0 1-1.29-5.2c0-1.96.43-3.68 1.3-5.17a9.38 9.38 0 0 1 3.56-3.54 10.21 10.21 0 0 1 5.25-1.33 10 10 0 0 1 8.78 4.87 9.93 9.93 0 0 1 1.33 5.17c0 1.95-.45 3.68-1.33 5.2a9.38 9.38 0 0 1-3.58 3.54 10.23 10.23 0 0 1-5.2 1.29Zm0-3.04c1.27 0 2.38-.3 3.34-.88a5.9 5.9 0 0 0 2.24-2.47c.54-1.06.8-2.28.8-3.64 0-1.37-.26-2.58-.8-3.61a6.13 6.13 0 0 0-5.59-3.38c-1.26 0-2.39.3-3.37.9a5.9 5.9 0 0 0-2.25 2.48 7.81 7.81 0 0 0-.8 3.6c0 1.37.27 2.59.8 3.65a5.9 5.9 0 0 0 5.63 3.35Zm16.68 9.8h-3.53v-26.22h3.5v5.78h-.8a7.3 7.3 0 0 1 4.22-5.55 8.37 8.37 0 0 1 3.72-.84 9.1 9.1 0 0 1 8.2 4.9 10.6 10.6 0 0 1 1.22 5.14c0 1.95-.41 3.68-1.25 5.2a9 9 0 0 1-3.42 3.54 9.46 9.46 0 0 1-4.94 1.29 9 9 0 0 1-4.4-1.03 7.06 7.06 0 0 1-2.82-2.85 7.28 7.28 0 0 1-.76-4.06l.72-.73c.1 1.1.46 2.07 1.07 2.93a6.58 6.58 0 0 0 5.58 2.7 6.5 6.5 0 0 0 3.42-.88 6.43 6.43 0 0 0 2.28-2.5c.56-1.07.84-2.27.84-3.61 0-1.35-.27-2.54-.8-3.58a5.94 5.94 0 0 0-5.51-3.42c-1.27 0-2.4.32-3.38.95a6.57 6.57 0 0 0-2.32 2.59 8.55 8.55 0 0 0-.84 3.87v16.38Zm49.77-7.37h-3.53v-10.9c0-1.83-.38-3.2-1.14-4.11a3.8 3.8 0 0 0-3.12-1.4c-.94 0-1.83.26-2.7.8a5.74 5.74 0 0 0-2.05 2.5c-.5 1.12-.76 2.57-.76 4.37V246h-3.53v-10.9c0-1.83-.4-3.2-1.18-4.11a3.76 3.76 0 0 0-3.08-1.4 5.1 5.1 0 0 0-2.74.8 5.74 5.74 0 0 0-2.05 2.5c-.5 1.12-.76 2.57-.76 4.37V246h-3.53v-18.85h3.5v4.6l-.3-.04a7.2 7.2 0 0 1 1.55-3.04 6.42 6.42 0 0 1 2.4-1.6 7.6 7.6 0 0 1 2.77-.53c1.7 0 3.09.47 4.18 1.41a6.75 6.75 0 0 1 2.16 4.14h-.45c.35-1.34.9-2.42 1.63-3.23a6.7 6.7 0 0 1 2.58-1.75 8.3 8.3 0 0 1 3-.57c2.26 0 4.01.71 5.25 2.13 1.27 1.4 1.9 3.42 1.9 6.08V246Zm20.1 0h-3.3v-3.72l-.12-.92v-7.03a4.5 4.5 0 0 0-1.44-3.53 5.55 5.55 0 0 0-3.92-1.33c-1.19 0-2.28.25-3.27.76a7.94 7.94 0 0 0-2.58 2.01l-2.2-2.28a10.9 10.9 0 0 1 8.13-3.42c1.72 0 3.23.32 4.52.95a7.35 7.35 0 0 1 3.08 2.66 7.22 7.22 0 0 1 1.1 4.07V246Zm-10.26.6a8.83 8.83 0 0 1-3.76-.75 6.3 6.3 0 0 1-2.55-2.17 5.49 5.49 0 0 1-.91-3.11 5.2 5.2 0 0 1 1.1-3.35 6.99 6.99 0 0 1 3.12-2.13c1.32-.5 2.82-.76 4.52-.76h5.74v2.63h-5.36a8 8 0 0 0-3.95.87 2.79 2.79 0 0 0-1.52 2.62c0 1.02.38 1.83 1.14 2.43.78.61 1.8.92 3.04.92 1.21 0 2.32-.25 3.3-.73a5.9 5.9 0 0 0 3.39-5.05l1.25.68a7.58 7.58 0 0 1-4.14 6.88 9.13 9.13 0 0 1-4.41 1.03Zm25.1-.6h-4.52c-1.46 0-2.6-.38-3.38-1.14a4.62 4.62 0 0 1-1.14-3.34v-19.69h3.54v19.23c0 .63.16 1.13.5 1.48.32.33.8.5 1.44.5h3.57V246Zm-.26-15.88h-12.46v-2.97h12.46v2.97Zm18.57 10.33 2.2 2.28a10.34 10.34 0 0 1-3.64 2.85 10.97 10.97 0 0 1-4.83 1.03c-2.05 0-3.88-.43-5.47-1.3a9.72 9.72 0 0 1-3.76-3.53 10.14 10.14 0 0 1-1.33-5.2c0-1.96.43-3.68 1.29-5.17a9.3 9.3 0 0 1 3.57-3.57c1.52-.87 3.23-1.3 5.13-1.3a9.26 9.26 0 0 1 8.28 4.8 10.2 10.2 0 0 1 1.26 5.12v.23h-3.57v-.34c0-1.37-.26-2.56-.76-3.57a5.6 5.6 0 0 0-2.13-2.4 5.48 5.48 0 0 0-3.08-.87 5.9 5.9 0 0 0-5.55 3.34 7.99 7.99 0 0 0-.8 3.69c0 1.42.3 2.67.88 3.76a6.36 6.36 0 0 0 2.5 2.47c1.07.58 2.29.87 3.65.87a7.38 7.38 0 0 0 6.16-3.19Zm2.7-2.7H464.7v-2.62H481l.6 1.33v1.3ZM54.68 341.16l8.72-8.72a17.7 17.7 0 0 0 5.92 4.88 16.9 16.9 0 0 0 7.36 1.6c2.93 0 5.36-.61 7.28-1.84a5.97 5.97 0 0 0 2.88-5.36 5.1 5.1 0 0 0-1.28-3.52 6.94 6.94 0 0 0-3.36-2.24c-1.44-.53-3.15-.8-5.12-.8h-5.04v-11.12h5.04c1.65 0 3.07-.24 4.24-.72a7.45 7.45 0 0 0 2.88-2.08c.7-.9 1.04-1.9 1.04-2.96 0-2.08-.75-3.65-2.24-4.72a9.2 9.2 0 0 0-5.68-1.68c-2.5 0-4.8.56-6.88 1.68a16.4 16.4 0 0 0-5.44 4.8l-8.72-8.72c2.77-2.99 6-5.25 9.68-6.8a30.83 30.83 0 0 1 11.92-2.32c4.27 0 8 .75 11.2 2.24a17.98 17.98 0 0 1 7.44 5.84c1.76 2.4 2.64 5.1 2.64 8.08 0 2.72-.8 5.1-2.4 7.12a15.45 15.45 0 0 1-6.72 4.72 26.84 26.84 0 0 1-9.92 1.68l2.4-2.96c3.63 0 6.8.64 9.52 1.92a15.46 15.46 0 0 1 6.4 5.36 13.97 13.97 0 0 1 2.32 8c0 3.36-.99 6.37-2.96 9.04a20.56 20.56 0 0 1-8.24 6.4c-3.52 1.55-7.63 2.32-12.32 2.32-4.37 0-8.5-.77-12.4-2.32a28.63 28.63 0 0 1-10.16-6.8Zm73.26 9.12c-5.02 0-9.34-1.15-12.96-3.44-3.58-2.35-6.32-5.73-8.24-10.16-1.92-4.48-2.88-9.9-2.88-16.24 0-9.6 2.13-16.99 6.4-22.16 4.26-5.17 10.16-7.76 17.68-7.76s13.41 2.59 17.68 7.76c4.26 5.17 6.4 12.56 6.4 22.16 0 6.35-.96 11.76-2.88 16.24-1.92 4.43-4.7 7.81-8.32 10.16-3.58 2.3-7.87 3.44-12.88 3.44Zm0-11.04c3.2 0 5.68-1.55 7.44-4.64 1.81-3.15 2.72-7.87 2.72-14.16 0-6.35-.9-11.07-2.72-14.16-1.76-3.15-4.24-4.72-7.44-4.72s-5.7 1.57-7.52 4.72c-1.76 3.1-2.64 7.81-2.64 14.16 0 6.3.88 11.01 2.64 14.16 1.81 3.1 4.32 4.64 7.52 4.64Zm50.41 11.04c-5.01 0-9.33-1.15-12.96-3.44-3.57-2.35-6.32-5.73-8.24-10.16-1.92-4.48-2.88-9.9-2.88-16.24 0-9.6 2.13-16.99 6.4-22.16 4.27-5.17 10.16-7.76 17.68-7.76s13.41 2.59 17.68 7.76 6.4 12.56 6.4 22.16c0 6.35-.96 11.76-2.88 16.24-1.92 4.43-4.7 7.81-8.32 10.16-3.57 2.3-7.87 3.44-12.88 3.44Zm0-11.04c3.2 0 5.68-1.55 7.44-4.64 1.81-3.15 2.72-7.87 2.72-14.16 0-6.35-.9-11.07-2.72-14.16-1.76-3.15-4.24-4.72-7.44-4.72s-5.7 1.57-7.52 4.72c-1.76 3.1-2.64 7.81-2.64 14.16 0 6.3.88 11.01 2.64 14.16 1.81 3.1 4.32 4.64 7.52 4.64Zm34.81 20.8h-8a26 26 0 0 0 4.8-6.72c1.23-2.4 1.76-4.43 1.6-6.08l2.4 2.48c-2.3 0-4.21-.72-5.76-2.16a7.28 7.28 0 0 1-2.32-5.44 7.5 7.5 0 0 1 2.24-5.52 7.5 7.5 0 0 1 5.52-2.24c2.46 0 4.43.85 5.92 2.56 1.55 1.65 2.32 3.84 2.32 6.56 0 1.65-.42 3.5-1.28 5.52-.8 2.03-1.86 4-3.2 5.92a30.95 30.95 0 0 1-4.24 5.12Zm36.25-9.76c-5.01 0-9.33-1.15-12.96-3.44-3.57-2.35-6.32-5.73-8.24-10.16-1.92-4.48-2.88-9.9-2.88-16.24 0-9.6 2.13-16.99 6.4-22.16 4.27-5.17 10.16-7.76 17.68-7.76s13.41 2.59 17.68 7.76 6.4 12.56 6.4 22.16c0 6.35-.96 11.76-2.88 16.24-1.92 4.43-4.7 7.81-8.32 10.16-3.57 2.3-7.87 3.44-12.88 3.44Zm0-11.04c3.2 0 5.68-1.55 7.44-4.64 1.81-3.15 2.72-7.87 2.72-14.16 0-6.35-.9-11.07-2.72-14.16-1.76-3.15-4.24-4.72-7.44-4.72s-5.7 1.57-7.52 4.72c-1.76 3.1-2.64 7.81-2.64 14.16 0 6.3.88 11.01 2.64 14.16 1.81 3.1 4.32 4.64 7.52 4.64Zm50.41 11.04c-5.01 0-9.33-1.15-12.96-3.44-3.57-2.35-6.32-5.73-8.24-10.16-1.92-4.48-2.88-9.9-2.88-16.24 0-9.6 2.13-16.99 6.4-22.16 4.27-5.17 10.16-7.76 17.68-7.76s13.42 2.59 17.68 7.76c4.27 5.17 6.4 12.56 6.4 22.16 0 6.35-.96 11.76-2.88 16.24-1.92 4.43-4.7 7.81-8.32 10.16-3.57 2.3-7.87 3.44-12.88 3.44Zm0-11.04c3.2 0 5.68-1.55 7.44-4.64 1.81-3.15 2.72-7.87 2.72-14.16 0-6.35-.9-11.07-2.72-14.16-1.76-3.15-4.24-4.72-7.44-4.72s-5.7 1.57-7.52 4.72c-1.76 3.1-2.64 7.81-2.64 14.16 0 6.3.88 11.01 2.64 14.16 1.81 3.1 4.32 4.64 7.52 4.64Zm50.41 11.04c-5 0-9.33-1.15-12.96-3.44-3.57-2.35-6.32-5.73-8.24-10.16-1.92-4.48-2.88-9.9-2.88-16.24 0-9.6 2.14-16.99 6.4-22.16 4.27-5.17 10.16-7.76 17.68-7.76s13.42 2.59 17.68 7.76c4.27 5.17 6.4 12.56 6.4 22.16 0 6.35-.96 11.76-2.88 16.24-1.92 4.43-4.69 7.81-8.32 10.16-3.57 2.3-7.86 3.44-12.88 3.44Zm0-11.04c3.2 0 5.68-1.55 7.44-4.64 1.82-3.15 2.72-7.87 2.72-14.16 0-6.35-.9-11.07-2.72-14.16-1.76-3.15-4.24-4.72-7.44-4.72s-5.7 1.57-7.52 4.72c-1.76 3.1-2.64 7.81-2.64 14.16 0 6.3.88 11.01 2.64 14.16 1.82 3.1 4.32 4.64 7.52 4.64Z"/>
    <path fill="#FFD400" d="M115.27 147.44a52.35 52.35 0 1 0 0-104.7 52.35 52.35 0 0 0 0 104.7Z"/>
    <path fill="#F7BD06" d="M167.18 101.82a52.35 52.35 0 0 1-100.22 13.45 52.35 52.35 0 0 0 89.84-52.04 52.18 52.18 0 0 1 10.38 38.59Z"/>
    <path fill="#060606" d="M115.37 148.1A53.07 53.07 0 0 1 62.7 88.27 52.66 52.66 0 0 1 82.92 53.1a52.66 52.66 0 0 1 39.17-10.58 53.07 53.07 0 0 1 45.75 59.38 52.66 52.66 0 0 1-20.21 35.18 52.61 52.61 0 0 1-32.25 11.02Zm-.21-104.71a51.3 51.3 0 0 0-31.44 10.75A51.35 51.35 0 0 0 64 88.44a51.36 51.36 0 0 0 10.32 38.2 51.35 51.35 0 0 0 34.3 19.7 51.36 51.36 0 0 0 38.2-10.3 51.35 51.35 0 0 0 19.7-34.3 51.75 51.75 0 0 0-51.36-58.35Z"/>
    <path fill="#F7BD06" d="M113.75 42.1a52.35 52.35 0 1 0-13.46 103.83l8.25 1.07A52.35 52.35 0 0 1 122 43.17l-8.25-1.07Z"/>
    <path fill="#060606" d="M108.54 147.66a.6.6 0 0 1-.09 0l-8.25-1.07a52.66 52.66 0 0 1-35.17-20.22A52.66 52.66 0 0 1 54.45 87.2a52.66 52.66 0 0 1 20.21-35.17 52.66 52.66 0 0 1 39.17-10.58l8.25 1.07a.66.66 0 0 1-.17 1.3 51.36 51.36 0 0 0-38.2 10.32 51.35 51.35 0 0 0-19.7 34.3 51.75 51.75 0 0 0 44.61 57.9c.36.06.62.38.57.75a.66.66 0 0 1-.65.57ZM106.9 42.32a51.3 51.3 0 0 0-31.44 10.75 51.35 51.35 0 0 0-19.71 34.3 51.36 51.36 0 0 0 10.31 38.2 51.3 51.3 0 0 0 30.21 19.02A53.1 53.1 0 0 1 62.7 88.27 52.66 52.66 0 0 1 82.9 53.1a52.66 52.66 0 0 1 26.53-10.72c-.85-.04-1.69-.06-2.53-.06Z"/>
    <path fill="#060F11" d="M94.82 47.55a.6.6 0 0 1-.09 0l-8.25-1.08a.66.66 0 0 1 .17-1.3l8.25 1.07a.66.66 0 0 1-.08 1.3Zm-14.77 9.47a.6.6 0 0 1-.08 0l-8.25-1.08a.66.66 0 0 1 .17-1.3l8.25 1.07a.66.66 0 0 1-.09 1.31Zm-8.73 10.26-.08-.01-8.25-1.07a.66.66 0 0 1 .17-1.3l8.25 1.06a.66.66 0 0 1-.09 1.32Zm-5.3 10.7a.6.6 0 0 1-.08-.01l-8.26-1.07a.66.66 0 0 1 .17-1.3l8.25 1.06a.66.66 0 0 1-.08 1.31ZM63.35 89a.6.6 0 0 1-.09 0l-8.25-1.07a.66.66 0 0 1 .17-1.3l8.25 1.06a.66.66 0 0 1-.08 1.31Zm-.23 11.36a.6.6 0 0 1-.09 0l-8.25-1.08a.66.66 0 0 1 .17-1.3l8.25 1.07a.66.66 0 0 1-.08 1.3Zm2.4 11.7a.6.6 0 0 1-.09 0L57.18 111a.66.66 0 0 1 .17-1.3l8.25 1.06a.66.66 0 0 1-.08 1.31Zm5.82 12.15-.08-.01-8.25-1.07a.66.66 0 0 1 .16-1.3l8.26 1.06a.66.66 0 0 1-.09 1.32Zm11.87 12.92h-.09l-8.25-1.08a.66.66 0 1 1 .17-1.3l8.25 1.07a.66.66 0 0 1-.08 1.31Z"/>
    <path fill="#fff" d="m121.73 69.9 4.88 12.3a3.16 3.16 0 0 0 2.23 1.92l12.9 2.95a3.16 3.16 0 0 1 1.3 5.51l-10.19 8.44a3.16 3.16 0 0 0-1.13 2.72l1.18 13.17a3.16 3.16 0 0 1-4.84 2.95l-11.17-7.08a3.16 3.16 0 0 0-2.93-.24l-12.17 5.19a3.16 3.16 0 0 1-4.3-3.7l3.29-12.8c.25-1.01 0-2.08-.68-2.87l-8.7-9.97a3.16 3.16 0 0 1 2.18-5.23l13.2-.83a3.15 3.15 0 0 0 2.51-1.53l6.8-11.35a3.16 3.16 0 0 1 5.64.46Z"/>
  </g>
  <defs>
    <clipPath id="a">
      <use xlink:href="#b"/>
    </clipPath>
  </defs>
</svg>
