<svg xmlns="http://www.w3.org/2000/svg" fill="none" viewBox="0 0 295 290">
  <rect width="295" height="290" fill="#F7D3CF" rx="37.81"/>
  <path fill="#141414" d="M53.7 191.72a10.67 10.67 0 0 1-7.8 3.17c-3.07 0-5.67-1.06-7.8-3.17a10.7 10.7 0 0 1-3.18-7.84 10.6 10.6 0 0 1 3.17-7.8 10.62 10.62 0 0 1 7.8-3.2c3.07 0 5.67 1.06 7.8 3.2a10.56 10.56 0 0 1 3.22 7.8c0 3.09-1.07 5.7-3.21 7.84Zm-12.67-2.85a6.67 6.67 0 0 0 4.87 1.94 6.67 6.67 0 0 0 6.83-6.93 6.76 6.76 0 0 0-6.83-6.95 6.6 6.6 0 0 0-4.87 1.96 6.76 6.76 0 0 0-1.97 5c0 2 .66 3.67 1.97 4.98Zm34.23-12.55c-2.13-.16-3.2.7-3.2 2.57v.46h3.2v3.75h-3.2v11.37h-3.9V183.1h-4.48v11.37h-3.9V183.1H57.6v-3.75h2.18v-.16c0-2.13.6-3.76 1.78-4.87 1.2-1.1 2.97-1.59 5.33-1.45v3.75c-2.14-.16-3.21.7-3.21 2.57v.16h4.48v-.46c0-2.14.6-3.76 1.78-4.87 1.21-1.1 2.99-1.6 5.32-1.45v3.75Zm3.63 12.19c.53 1.9 1.95 2.84 4.27 2.84 1.49 0 2.62-.5 3.38-1.5l3.15 1.8c-1.5 2.16-3.69 3.24-6.6 3.24-2.5 0-4.5-.75-6.01-2.27a7.75 7.75 0 0 1-2.27-5.71 7.77 7.77 0 0 1 7.98-7.99c2.22 0 4.05.77 5.48 2.3a7.95 7.95 0 0 1 2.18 5.69c0 .5-.05 1.04-.16 1.6H78.9Zm-.06-3.02h7.71a3.63 3.63 0 0 0-1.39-2.3 3.88 3.88 0 0 0-2.36-.76 3.77 3.77 0 0 0-3.96 3.05Zm17.33-3.54a4.1 4.1 0 0 1 1.79-2.18 5.57 5.57 0 0 1 2.81-.73v4.36a4.64 4.64 0 0 0-3.2.72c-.93.63-1.4 1.67-1.4 3.12v7.23h-3.9v-15.13h3.9v2.6Zm24.1-8.65h3.9v21.17h-3.9v-1.79a5.85 5.85 0 0 1-4.9 2.21 6.95 6.95 0 0 1-5.24-2.3 8.08 8.08 0 0 1-2.15-5.68c0-2.24.72-4.13 2.15-5.66a6.91 6.91 0 0 1 5.23-2.33c2.12 0 3.76.74 4.9 2.21v-7.83Zm-7.2 16.7c.8.78 1.81 1.17 3.02 1.17s2.2-.4 3-1.18a4.23 4.23 0 0 0 1.17-3.08c0-1.25-.39-2.27-1.18-3.06a4 4 0 0 0-2.99-1.2 4.1 4.1 0 0 0-3.02 1.2 4.14 4.14 0 0 0-1.18 3.06 4.2 4.2 0 0 0 1.18 3.08Zm15.7-12.47a2.37 2.37 0 0 1-2.4-2.39c0-.64.23-1.2.7-1.7a2.32 2.32 0 0 1 1.7-.72c.66 0 1.22.24 1.69.73a2.32 2.32 0 0 1 0 3.39 2.3 2.3 0 0 1-1.7.7Zm-1.94 16.94v-15.13h3.9v15.13h-3.9Zm10.04-10.83c0 .4.27.74.79 1 .54.24 1.2.46 1.97.66.76.19 1.53.43 2.3.73.76.28 1.4.77 1.93 1.45a4 4 0 0 1 .82 2.57 4.2 4.2 0 0 1-1.76 3.6 7.22 7.22 0 0 1-4.32 1.24c-3.1 0-5.22-1.2-6.35-3.6l3.38-1.9c.45 1.3 1.44 1.96 2.97 1.96 1.39 0 2.09-.43 2.09-1.3 0-.4-.28-.72-.82-.97a11 11 0 0 0-1.94-.7c-.76-.2-1.53-.44-2.3-.75a4.88 4.88 0 0 1-1.96-1.42 3.88 3.88 0 0 1-.79-2.48c0-1.5.54-2.66 1.63-3.5a6.48 6.48 0 0 1 4.12-1.3c1.23 0 2.35.27 3.35.84a5.99 5.99 0 0 1 2.4 2.36l-3.33 1.81a2.49 2.49 0 0 0-2.42-1.54c-.5 0-.93.11-1.27.33-.32.23-.49.53-.49.91Zm16.4 11.25a7.78 7.78 0 0 1-7.98-7.98 7.78 7.78 0 0 1 7.98-7.99 7.9 7.9 0 0 1 4.02 1.06 7.03 7.03 0 0 1 2.76 2.84l-3.36 1.97a3.4 3.4 0 0 0-1.4-1.48 3.81 3.81 0 0 0-2.05-.55 4.01 4.01 0 0 0-4.05 4.14 3.93 3.93 0 0 0 4.05 4.11 4.1 4.1 0 0 0 2.09-.5 3.4 3.4 0 0 0 1.39-1.49l3.39 1.94a7.7 7.7 0 0 1-6.84 3.93Zm20.64-2.3a7.79 7.79 0 0 1-5.69 2.3 7.79 7.79 0 0 1-5.68-2.3 7.79 7.79 0 0 1-2.3-5.68 7.7 7.7 0 0 1 2.3-5.66 7.73 7.73 0 0 1 5.69-2.33c2.23 0 4.13.78 5.68 2.33a7.64 7.64 0 0 1 2.33 5.66c0 2.24-.78 4.13-2.33 5.68Zm-8.62-2.69a3.99 3.99 0 0 0 2.94 1.18 4.06 4.06 0 0 0 4.11-4.17 4.05 4.05 0 0 0-4.12-4.18 3.98 3.98 0 0 0-4.08 4.18c0 1.2.38 2.2 1.15 3Zm22.77-10.56h3.9v15.13h-3.9v-1.7c-.95 1.42-2.45 2.12-4.5 2.12a5.52 5.52 0 0 1-4.12-1.66c-1.07-1.11-1.6-2.64-1.6-4.6v-9.28h3.9v8.8c0 1 .27 1.78.81 2.33a3 3 0 0 0 2.18.78c1.01 0 1.82-.31 2.42-.94.6-.62.91-1.56.91-2.8v-8.18Zm14.98-.42c1.65 0 3.01.56 4.08 1.67 1.09 1.1 1.63 2.64 1.63 4.6v9.28h-3.9v-8.8c0-1.01-.27-1.78-.82-2.3a2.94 2.94 0 0 0-2.17-.82c-1.01 0-1.82.31-2.42.94-.6.62-.91 1.56-.91 2.81v8.17h-3.9v-15.13h3.9v1.7c.95-1.41 2.45-2.12 4.5-2.12Zm16.79 4.18h-3.42v6.29c0 .52.13.9.4 1.15.25.24.64.38 1.14.42.5.02 1.13.01 1.88-.03v3.54c-2.68.3-4.58.05-5.69-.76-1.09-.8-1.63-2.25-1.63-4.32v-6.3h-2.63v-3.75h2.63v-3.05l3.9-1.18v4.23h3.42v3.76Zm5.12.54c0 .4.26.74.78 1 .55.24 1.2.46 1.97.66.76.19 1.53.43 2.3.73a4.25 4.25 0 0 1 2.75 4.02 4.2 4.2 0 0 1-1.75 3.6 7.22 7.22 0 0 1-4.33 1.24c-3.1 0-5.22-1.2-6.35-3.6l3.38-1.9c.45 1.3 1.44 1.96 2.97 1.96 1.4 0 2.09-.43 2.09-1.3 0-.4-.28-.72-.82-.97a10.7 10.7 0 0 0-1.94-.7c-.76-.2-1.53-.44-2.3-.75a4.88 4.88 0 0 1-1.96-1.42 3.88 3.88 0 0 1-.79-2.48c0-1.5.55-2.66 1.64-3.5a6.48 6.48 0 0 1 4.11-1.3 6.7 6.7 0 0 1 3.36.84c1 .54 1.8 1.33 2.39 2.36l-3.33 1.81a2.49 2.49 0 0 0-2.42-1.54c-.5 0-.93.11-1.27.33-.32.23-.48.53-.48.91Z"/>
</svg>
