<svg xmlns="http://www.w3.org/2000/svg" fill="none" viewBox="0 0 295 298">
  <rect width="295" height="298" fill="#fff" rx="37.81"/>
  <path fill="#2D0A09" d="M33.63 102.96v-6.23L48.1 81.85c3.23-3.39 4.84-6.21 4.84-8.47a5.28 5.28 0 0 0-5.5-5.5c-3.19 0-5.55 1.65-7.08 4.96l-7.02-4.12a14.8 14.8 0 0 1 5.75-6.65c2.5-1.53 5.24-2.3 8.22-2.3a14.4 14.4 0 0 1 9.87 3.63c2.74 2.38 4.1 5.6 4.1 9.68 0 4.4-2.31 8.91-6.95 13.55l-8.29 8.29h15.91v8.04h-28.3ZM95.8 88.02v7.74h-4.53v7.2h-8.41v-7.2H62.82v-7.74l14.1-27.4h8.95l-14.03 27.4h11V77.98h8.42v10.04h4.53Zm16.23-11.13a9.96 9.96 0 0 1-7.26 2.84c-2.9 0-5.34-.97-7.32-2.9a9.63 9.63 0 0 1-2.9-7.08c0-2.78.97-5.14 2.9-7.08a10.05 10.05 0 0 1 7.32-2.9c2.9 0 5.33.97 7.26 2.9a9.5 9.5 0 0 1 2.9 7.08 9.7 9.7 0 0 1-2.9 7.14Zm-13.2 19.66 27.59-30.67 3.69 2.06-27.65 30.73-3.63-2.12Zm3.15-24.02a3.7 3.7 0 0 0 2.72 1.1 3.7 3.7 0 0 0 3.81-3.88 3.7 3.7 0 0 0-3.8-3.81c-1.1 0-2 .36-2.73 1.09a3.81 3.81 0 0 0-1.03 2.72c0 1.09.34 2.02 1.03 2.78Zm30.49 28.25a9.85 9.85 0 0 1-7.26 2.9c-2.9 0-5.32-.96-7.26-2.9a9.63 9.63 0 0 1-2.9-7.07c0-2.79.97-5.15 2.9-7.08a9.85 9.85 0 0 1 7.26-2.9c2.9 0 5.32.96 7.26 2.9a9.63 9.63 0 0 1 2.9 7.08c0 2.78-.97 5.14-2.9 7.07Zm-9.98-4.3a3.7 3.7 0 0 0 2.72 1.1 3.4 3.4 0 0 0 2.66-1.15 3.82 3.82 0 0 0 1.09-2.72c0-1.1-.36-2-1.09-2.73a3.4 3.4 0 0 0-2.66-1.15c-1.09 0-2 .39-2.72 1.15a3.81 3.81 0 0 0-1.03 2.73c0 1.08.34 2.01 1.03 2.78ZM33.98 144h2.47v18.53h-2.47v-18.52Zm12 4.96c1.55 0 2.8.5 3.73 1.48.94.97 1.4 2.3 1.4 3.97v8.13h-2.3v-8c0-1.07-.3-1.9-.87-2.48a3.2 3.2 0 0 0-2.41-.9 3.7 3.7 0 0 0-2.78 1.08c-.7.7-1.06 1.8-1.06 3.28v7.01h-2.3V149.3h2.3v1.9a4.7 4.7 0 0 1 4.29-2.24Zm13.77 13.92a6.75 6.75 0 0 1-6.96-6.96c0-1.98.66-3.63 1.99-4.95a6.7 6.7 0 0 1 4.97-2.01c1.3 0 2.48.32 3.52.95a5.82 5.82 0 0 1 2.33 2.52l-1.93 1.1a3.9 3.9 0 0 0-1.56-1.69 4.4 4.4 0 0 0-2.36-.63c-1.32 0-2.43.45-3.33 1.35a4.6 4.6 0 0 0-1.33 3.36 4.57 4.57 0 0 0 4.66 4.68 4.25 4.25 0 0 0 4-2.3l1.96 1.14a6.53 6.53 0 0 1-2.44 2.51 6.86 6.86 0 0 1-3.52.93Zm9.77-11.35c.75-1.65 2.13-2.47 4.12-2.47v2.41a4.18 4.18 0 0 0-2.9.9c-.82.66-1.22 1.7-1.22 3.15v7.01h-2.3V149.3h2.3v2.22Zm6.47 5.45c.23 1.18.77 2.1 1.62 2.75.86.65 1.92.98 3.17.98 1.75 0 3.02-.65 3.81-1.93l1.96 1.1c-1.28 2-3.23 3-5.82 3a7 7 0 0 1-5.13-1.96 6.83 6.83 0 0 1-1.96-5 6.67 6.67 0 0 1 6.93-6.96c1.94 0 3.52.69 4.74 2.06a7.06 7.06 0 0 1 1.77 5.96H76Zm4.58-5.85a4.5 4.5 0 0 0-3.07 1.06 4.47 4.47 0 0 0-1.5 2.78h8.83a4.4 4.4 0 0 0-1.48-2.86 4.24 4.24 0 0 0-2.78-.98Zm19.38-1.83h2.3v13.23h-2.3v-2.27a5.61 5.61 0 0 1-5 2.62 6.37 6.37 0 0 1-4.74-2.01 6.88 6.88 0 0 1-1.96-4.95c0-1.94.65-3.58 1.96-4.92a6.33 6.33 0 0 1 4.73-2.04c2.2 0 3.86.87 5 2.62v-2.28Zm-4.72 11.36a4.65 4.65 0 0 0 4.71-4.74c0-1.34-.44-2.46-1.34-3.36a4.52 4.52 0 0 0-3.37-1.38c-1.32 0-2.43.46-3.33 1.38-.9.9-1.35 2.02-1.35 3.36a4.65 4.65 0 0 0 4.68 4.74Zm11.67-7.78c0 .5.26.92.77 1.24.51.3 1.13.55 1.85.74.73.18 1.45.39 2.17.63.73.23 1.34.64 1.86 1.22.5.57.76 1.3.76 2.2 0 1.2-.47 2.16-1.4 2.88a5.55 5.55 0 0 1-3.55 1.09 6.12 6.12 0 0 1-3.3-.85 4.73 4.73 0 0 1-1.96-2.25l1.98-1.13c.21.63.61 1.13 1.2 1.5.58.37 1.27.56 2.08.56.76 0 1.39-.14 1.88-.42.5-.3.74-.76.74-1.38 0-.51-.25-.92-.76-1.22a6.34 6.34 0 0 0-1.86-.74c-.72-.2-1.44-.41-2.17-.66a4.37 4.37 0 0 1-1.85-1.22 3.11 3.11 0 0 1-.77-2.17c0-1.15.44-2.09 1.33-2.83a5.11 5.11 0 0 1 3.36-1.11c1.07 0 2.03.25 2.86.74a4.57 4.57 0 0 1 1.9 2.01l-1.93 1.09c-.48-1.13-1.42-1.7-2.83-1.7-.66 0-1.21.16-1.67.48-.46.3-.69.73-.69 1.3Zm10.6 4.1c.23 1.18.76 2.1 1.61 2.75.87.65 1.92.98 3.18.98 1.74 0 3.01-.65 3.8-1.93l1.97 1.1c-1.3 2-3.23 3-5.83 3a7 7 0 0 1-5.13-1.96 6.83 6.83 0 0 1-1.96-5 6.67 6.67 0 0 1 6.93-6.96c1.95 0 3.53.69 4.74 2.06a7.06 7.06 0 0 1 1.78 5.96h-11.1Zm4.58-5.85a4.5 4.5 0 0 0-3.07 1.06 4.47 4.47 0 0 0-1.51 2.78h8.84a4.41 4.41 0 0 0-1.49-2.86 4.24 4.24 0 0 0-2.77-.98Zm15.42-4.24a1.5 1.5 0 0 1-1.1-.45c-.3-.3-.46-.66-.46-1.08 0-.43.15-.79.45-1.09.3-.31.67-.47 1.12-.47.42 0 .78.16 1.08.47.3.3.45.66.45 1.09 0 .42-.15.78-.45 1.08-.3.3-.66.45-1.09.45Zm-1.16 15.65V149.3h2.3v13.23h-2.3Zm11.61-13.58c1.56 0 2.8.5 3.73 1.48.94.97 1.4 2.3 1.4 3.97v8.13h-2.3v-8c0-1.07-.29-1.9-.87-2.48a3.2 3.2 0 0 0-2.4-.9c-1.16 0-2.08.36-2.79 1.08-.7.7-1.06 1.8-1.06 3.28v7.01h-2.3V149.3h2.3v1.9a4.7 4.7 0 0 1 4.3-2.24ZM39.97 196.88a6.75 6.75 0 0 1-6.96-6.96c0-1.98.66-3.63 1.98-4.95a6.7 6.7 0 0 1 4.98-2.01c1.3 0 2.48.32 3.52.95a5.82 5.82 0 0 1 2.33 2.52l-1.94 1.1a3.9 3.9 0 0 0-1.56-1.69 4.4 4.4 0 0 0-2.35-.63c-1.33 0-2.44.45-3.34 1.35a4.6 4.6 0 0 0-1.32 3.36 4.57 4.57 0 0 0 4.66 4.68c.88 0 1.67-.2 2.38-.6.7-.43 1.24-1 1.61-1.7l1.96 1.14a6.52 6.52 0 0 1-2.43 2.51 6.86 6.86 0 0 1-3.52.93Zm18.42-2.01a6.78 6.78 0 0 1-4.95 2 6.78 6.78 0 0 1-4.95-2 6.73 6.73 0 0 1-2.01-4.95c0-1.96.67-3.6 2.01-4.95a6.78 6.78 0 0 1 4.95-2.01 6.8 6.8 0 0 1 4.95 2.01 6.68 6.68 0 0 1 2.04 4.95 6.7 6.7 0 0 1-2.04 4.95Zm-4.95-.24c1.32 0 2.43-.45 3.33-1.35.9-.9 1.35-2.02 1.35-3.36 0-1.34-.45-2.46-1.35-3.36a4.53 4.53 0 0 0-3.33-1.35c-1.3 0-2.4.45-3.3 1.35-.9.9-1.36 2.02-1.36 3.36 0 1.34.45 2.46 1.35 3.36.9.9 2 1.35 3.3 1.35Zm15.5-11.67c1.55 0 2.8.5 3.73 1.48.93.97 1.4 2.3 1.4 3.97v8.13h-2.3v-8c0-1.07-.3-1.9-.88-2.48a3.2 3.2 0 0 0-2.4-.9 3.7 3.7 0 0 0-2.78 1.08c-.7.7-1.06 1.8-1.06 3.28v7.01h-2.3V183.3h2.3v1.9a4.7 4.7 0 0 1 4.29-2.24Zm16.63.34h2.5l-5.3 13.23h-2.7l-5.3-13.23h2.5l4.15 10.77 4.15-10.77Zm4.74 7.68c.23 1.18.77 2.1 1.62 2.75.86.65 1.92.98 3.17.98 1.75 0 3.02-.65 3.81-1.93l1.96 1.1c-1.29 2-3.23 3-5.82 3a7 7 0 0 1-5.14-1.96 6.83 6.83 0 0 1-1.95-5 6.67 6.67 0 0 1 6.93-6.96c1.94 0 3.52.69 4.74 2.06a7.06 7.06 0 0 1 1.77 5.96H90.31Zm4.58-5.85a4.5 4.5 0 0 0-3.07 1.06 4.47 4.47 0 0 0-1.5 2.78h8.83a4.4 4.4 0 0 0-1.48-2.86 4.24 4.24 0 0 0-2.78-.98Zm10.75.4c.75-1.65 2.13-2.47 4.12-2.47v2.41a4.18 4.18 0 0 0-2.9.9c-.82.66-1.22 1.7-1.22 3.15v7.01h-2.3V183.3h2.3v2.22Zm7.08 1.34c0 .52.25.93.77 1.25.5.3 1.12.55 1.85.74.72.18 1.44.39 2.17.63a4.1 4.1 0 0 1 1.85 1.22c.51.57.77 1.3.77 2.2 0 1.2-.47 2.16-1.4 2.88a5.55 5.55 0 0 1-3.55 1.09 6.19 6.19 0 0 1-3.31-.85 4.73 4.73 0 0 1-1.96-2.25l1.99-1.13c.2.63.6 1.13 1.19 1.5a3.8 3.8 0 0 0 2.09.56c.76 0 1.38-.14 1.88-.42.5-.3.74-.76.74-1.38 0-.51-.26-.92-.77-1.22a6.33 6.33 0 0 0-1.85-.74 33.8 33.8 0 0 1-2.17-.66 4.36 4.36 0 0 1-1.85-1.22 3.1 3.1 0 0 1-.77-2.17c0-1.15.44-2.09 1.32-2.83a5.11 5.11 0 0 1 3.36-1.11c1.08 0 2.03.25 2.86.74a4.56 4.56 0 0 1 1.9 2.01l-1.93 1.09c-.47-1.13-1.42-1.7-2.83-1.7-.65 0-1.2.16-1.66.48-.46.3-.7.73-.7 1.3Zm10.38-5.98c-.45 0-.82-.15-1.12-.45-.3-.3-.45-.66-.45-1.08 0-.43.15-.79.45-1.09.3-.31.67-.47 1.11-.47.43 0 .79.16 1.09.47.3.3.45.66.45 1.09 0 .42-.15.78-.45 1.08-.3.3-.66.45-1.09.45Zm-1.17 15.65V183.3h2.3v13.23h-2.3Zm16.19-1.67a6.78 6.78 0 0 1-4.95 2 6.78 6.78 0 0 1-4.95-2 6.73 6.73 0 0 1-2-4.95c0-1.96.66-3.6 2-4.95a6.78 6.78 0 0 1 4.95-2.01c1.94 0 3.6.67 4.95 2.01a6.68 6.68 0 0 1 2.04 4.95 6.7 6.7 0 0 1-2.04 4.95Zm-4.95-.24c1.32 0 2.44-.45 3.34-1.35.9-.9 1.35-2.02 1.35-3.36 0-1.34-.45-2.46-1.35-3.36a4.53 4.53 0 0 0-3.34-1.35c-1.3 0-2.4.45-3.3 1.35-.9.9-1.36 2.02-1.36 3.36 0 1.34.45 2.46 1.35 3.36.9.9 2 1.35 3.31 1.35Zm15.5-11.67c1.55 0 2.8.5 3.73 1.48.94.97 1.4 2.3 1.4 3.97v8.13h-2.3v-8c0-1.07-.3-1.9-.87-2.48a3.2 3.2 0 0 0-2.41-.9 3.7 3.7 0 0 0-2.78 1.08c-.7.7-1.06 1.8-1.06 3.28v7.01h-2.3V183.3h2.3v1.9a4.7 4.7 0 0 1 4.29-2.24Zm9.54 3.91c0 .52.25.93.77 1.25.5.3 1.13.55 1.85.74.72.18 1.44.39 2.17.63a4.1 4.1 0 0 1 1.85 1.22c.51.57.77 1.3.77 2.2 0 1.2-.47 2.16-1.4 2.88a5.55 5.55 0 0 1-3.55 1.09 6.19 6.19 0 0 1-3.3-.85 4.73 4.73 0 0 1-1.97-2.25l1.99-1.13c.2.63.6 1.13 1.19 1.5a3.8 3.8 0 0 0 2.09.56c.76 0 1.38-.14 1.88-.42.5-.3.74-.76.74-1.38 0-.51-.26-.92-.77-1.22a6.33 6.33 0 0 0-1.85-.74c-.72-.2-1.45-.41-2.17-.66a4.36 4.36 0 0 1-1.85-1.22 3.1 3.1 0 0 1-.77-2.17c0-1.15.44-2.09 1.32-2.83a5.11 5.11 0 0 1 3.36-1.11c1.08 0 2.03.25 2.86.74a4.56 4.56 0 0 1 1.9 2.01l-1.92 1.09c-.48-1.13-1.43-1.7-2.84-1.7-.65 0-1.2.16-1.66.48-.46.3-.7.73-.7 1.3Zm24.3-3.57h2.3v13.23h-2.3v-1.9a4.7 4.7 0 0 1-4.3 2.25 4.92 4.92 0 0 1-3.72-1.46 5.58 5.58 0 0 1-1.4-4v-8.12h2.3v8c0 1.07.29 1.9.87 2.5.58.6 1.38.88 2.4.88 1.15 0 2.08-.35 2.78-1.06.71-.72 1.06-1.82 1.06-3.3v-7.02Zm6.97 3.57c0 .52.25.93.76 1.25.52.3 1.13.55 1.86.74.72.18 1.44.39 2.17.63a4.1 4.1 0 0 1 1.85 1.22c.51.57.77 1.3.77 2.2 0 1.2-.47 2.16-1.4 2.88a5.55 5.55 0 0 1-3.55 1.09 6.19 6.19 0 0 1-3.31-.85 4.73 4.73 0 0 1-1.96-2.25l1.99-1.13c.2.63.6 1.13 1.19 1.5a3.8 3.8 0 0 0 2.09.56c.76 0 1.38-.14 1.88-.42.5-.3.74-.76.74-1.38 0-.51-.26-.92-.77-1.22a6.33 6.33 0 0 0-1.85-.74c-.72-.2-1.45-.41-2.17-.66a4.36 4.36 0 0 1-1.85-1.22 3.1 3.1 0 0 1-.77-2.17c0-1.15.44-2.09 1.32-2.83a5.11 5.11 0 0 1 3.36-1.11c1.08 0 2.03.25 2.86.74a4.56 4.56 0 0 1 1.9 2.01l-1.93 1.09c-.47-1.13-1.42-1.7-2.83-1.7-.65 0-1.2.16-1.67.48-.45.3-.68.73-.68 1.3Zm10.38-5.98c-.45 0-.82-.15-1.12-.45-.3-.3-.45-.66-.45-1.08 0-.43.15-.79.45-1.09.3-.31.67-.47 1.11-.47.43 0 .79.16 1.09.47.3.3.45.66.45 1.09 0 .42-.15.78-.45 1.08-.3.3-.66.45-1.09.45Zm-1.17 15.65V183.3h2.3v13.23h-2.3Zm11.61-13.58c1.55 0 2.8.5 3.73 1.48.94.97 1.4 2.3 1.4 3.97v8.13h-2.3v-8c0-1.07-.29-1.9-.87-2.48a3.2 3.2 0 0 0-2.4-.9c-1.16 0-2.08.36-2.79 1.08-.7.7-1.06 1.8-1.06 3.28v7.01h-2.3V183.3h2.3v1.9a4.7 4.7 0 0 1 4.3-2.24Zm18.54.34h2.28v12.68c0 1.96-.67 3.48-1.99 4.55a7.24 7.24 0 0 1-4.76 1.64 8.16 8.16 0 0 1-3.84-.84 5.47 5.47 0 0 1-2.44-2.39l2.02-1.13c.72 1.48 2.16 2.22 4.31 2.22 1.38 0 2.45-.36 3.23-1.09.8-.72 1.19-1.7 1.19-2.96v-1.88a5.62 5.62 0 0 1-4.98 2.65 6.43 6.43 0 0 1-4.79-2.01 6.75 6.75 0 0 1-1.95-4.9c0-1.92.65-3.55 1.95-4.87a6.43 6.43 0 0 1 4.8-2.01 5.6 5.6 0 0 1 4.97 2.62v-2.28Zm-8.07 9.9c.9.9 2.02 1.35 3.36 1.35 1.34 0 2.46-.45 3.36-1.35.9-.9 1.35-2.02 1.35-3.36 0-1.32-.45-2.44-1.35-3.34a4.56 4.56 0 0 0-3.36-1.34c-1.34 0-2.46.44-3.36 1.34-.9.9-1.35 2.02-1.35 3.34 0 1.34.45 2.46 1.35 3.36ZM35.73 220.88c0 .5.26.92.77 1.24.51.3 1.13.55 1.85.74.73.18 1.45.39 2.17.63.73.23 1.34.64 1.85 1.22.52.57.77 1.3.77 2.2 0 1.2-.47 2.16-1.4 2.88a5.55 5.55 0 0 1-3.55 1.09 6.12 6.12 0 0 1-3.3-.85 4.73 4.73 0 0 1-1.96-2.25l1.98-1.13c.21.63.61 1.13 1.2 1.5a3.8 3.8 0 0 0 2.08.56c.76 0 1.39-.14 1.88-.42.5-.3.74-.76.74-1.38 0-.51-.25-.92-.76-1.22a6.33 6.33 0 0 0-1.86-.74c-.72-.2-1.44-.41-2.17-.66a4.37 4.37 0 0 1-1.85-1.22 3.1 3.1 0 0 1-.77-2.17c0-1.15.44-2.09 1.33-2.83a5.11 5.11 0 0 1 3.36-1.11c1.07 0 2.03.25 2.86.74a4.57 4.57 0 0 1 1.9 2.01l-1.93 1.09c-.48-1.13-1.42-1.7-2.83-1.7-.66 0-1.21.16-1.67.48-.46.3-.69.73-.69 1.3Zm23.64-3.92c1.48 0 2.68.48 3.6 1.45a5.37 5.37 0 0 1 1.37 3.9v8.22h-2.3v-8.15c0-1.02-.27-1.81-.8-2.38a2.76 2.76 0 0 0-2.11-.84c-1 0-1.78.33-2.38 1-.59.65-.88 1.66-.88 3.02v7.35h-2.3v-8.15c0-1.02-.26-1.81-.77-2.38a2.57 2.57 0 0 0-2.04-.84c-.97 0-1.78.33-2.43 1-.64.67-.95 1.68-.95 3.02v7.35h-2.3V217.3h2.3v1.77a4.39 4.39 0 0 1 3.94-2.11 4.1 4.1 0 0 1 3.9 2.25 4.55 4.55 0 0 1 4.15-2.25Zm18.33.34H80v13.23h-2.3v-2.27a5.61 5.61 0 0 1-5 2.62 6.37 6.37 0 0 1-4.74-2.01 6.88 6.88 0 0 1-1.96-4.95c0-1.94.65-3.58 1.96-4.92a6.33 6.33 0 0 1 4.73-2.04c2.2 0 3.86.87 5 2.62v-2.28Zm-4.71 11.36a4.65 4.65 0 0 0 4.71-4.74c0-1.34-.45-2.46-1.35-3.36a4.52 4.52 0 0 0-3.36-1.38c-1.33 0-2.44.46-3.34 1.38-.9.9-1.35 2.02-1.35 3.36a4.65 4.65 0 0 0 4.69 4.74Zm12-9.13c.77-1.65 2.14-2.47 4.14-2.47v2.41a4.18 4.18 0 0 0-2.92.9c-.8.66-1.21 1.7-1.21 3.15v7.01h-2.3V217.3H85v2.22Zm13.1 0h-3.52v7.17c0 .65.13 1.12.37 1.4.27.27.67.4 1.2.42.52 0 1.18-.01 1.95-.05v2.06c-2 .27-3.48.11-4.42-.47-.93-.6-1.4-1.72-1.4-3.36v-7.17h-2.62v-2.23h2.62v-3.02l2.3-.68v3.7h3.52v2.22Zm18.8-2.23h2.3v13.23h-2.3v-2.27a5.61 5.61 0 0 1-5.01 2.62 6.37 6.37 0 0 1-4.74-2.01 6.88 6.88 0 0 1-1.96-4.95 6.8 6.8 0 0 1 1.96-4.92 6.33 6.33 0 0 1 4.74-2.04 5.6 5.6 0 0 1 5 2.62v-2.28Zm-4.72 11.36a4.65 4.65 0 0 0 4.71-4.74c0-1.34-.45-2.46-1.35-3.36a4.52 4.52 0 0 0-3.36-1.38c-1.32 0-2.43.46-3.33 1.38-.9.9-1.35 2.02-1.35 3.36a4.65 4.65 0 0 0 4.68 4.74Zm18.84-11.36h2.3v13.23h-2.3v-1.9a4.7 4.7 0 0 1-4.29 2.25c-1.55 0-2.8-.49-3.73-1.46a5.58 5.58 0 0 1-1.4-4v-8.12h2.3v8c0 1.07.3 1.9.87 2.5.59.6 1.39.88 2.41.88 1.15 0 2.08-.35 2.78-1.06.7-.72 1.06-1.82 1.06-3.3v-7.02Zm12.21 2.22h-3.52v7.18c0 .65.13 1.12.37 1.4.27.27.66.4 1.2.42.52 0 1.18-.01 1.95-.05v2.06c-2 .27-3.48.11-4.42-.47-.93-.6-1.4-1.72-1.4-3.36v-7.17h-2.62v-2.23h2.62v-3.02l2.3-.68v3.7h3.52v2.22Zm12.43 9.35a6.78 6.78 0 0 1-4.95 2 6.78 6.78 0 0 1-4.95-2 6.73 6.73 0 0 1-2-4.95c0-1.96.66-3.6 2-4.95a6.79 6.79 0 0 1 4.95-2.01c1.94 0 3.6.67 4.95 2.01a6.68 6.68 0 0 1 2.04 4.95 6.7 6.7 0 0 1-2.04 4.95Zm-4.95-.24c1.33 0 2.44-.45 3.34-1.35.9-.9 1.35-2.02 1.35-3.36 0-1.34-.45-2.46-1.35-3.36a4.53 4.53 0 0 0-3.34-1.35c-1.3 0-2.4.45-3.3 1.35-.9.9-1.36 2.02-1.36 3.36 0 1.34.45 2.46 1.35 3.36.9.9 2 1.35 3.31 1.35Zm23.2-11.67c1.48 0 2.68.48 3.6 1.45a5.37 5.37 0 0 1 1.38 3.9v8.22h-2.3v-8.15c0-1.02-.27-1.81-.8-2.38a2.77 2.77 0 0 0-2.12-.84c-.99 0-1.78.33-2.38 1-.58.65-.87 1.66-.87 3.02v7.35h-2.3v-8.15c0-1.02-.26-1.81-.77-2.38a2.57 2.57 0 0 0-2.04-.84c-.97 0-1.78.33-2.44 1-.63.67-.95 1.68-.95 3.02v7.35h-2.3V217.3h2.3v1.77a4.39 4.39 0 0 1 3.94-2.11 4.1 4.1 0 0 1 3.9 2.25 4.55 4.55 0 0 1 4.15-2.25Zm18.33.34h2.3v13.23h-2.3v-2.27a5.61 5.61 0 0 1-5 2.62 6.37 6.37 0 0 1-4.74-2.01 6.88 6.88 0 0 1-1.96-4.95 6.8 6.8 0 0 1 1.96-4.92 6.33 6.33 0 0 1 4.74-2.04 5.6 5.6 0 0 1 5 2.62v-2.28Zm-4.7 11.36a4.65 4.65 0 0 0 4.71-4.74c0-1.34-.46-2.46-1.36-3.36a4.52 4.52 0 0 0-3.36-1.38c-1.32 0-2.43.46-3.33 1.38-.9.9-1.35 2.02-1.35 3.36a4.65 4.65 0 0 0 4.68 4.74Zm16.9-9.13h-3.52v7.17c0 .65.12 1.12.37 1.4.26.27.66.4 1.19.42.53 0 1.18-.01 1.96-.05v2.06c-2.01.27-3.49.11-4.42-.47-.94-.6-1.4-1.72-1.4-3.36v-7.17h-2.63v-2.23h2.63v-3.02l2.3-.68v3.7h3.52v2.22Zm3.1-4.64c-.45 0-.82-.15-1.12-.45-.3-.3-.45-.66-.45-1.08 0-.43.15-.79.45-1.09.3-.31.67-.47 1.11-.47.43 0 .79.16 1.09.47.3.3.45.66.45 1.09 0 .42-.15.78-.45 1.08-.3.3-.66.45-1.09.45Zm-1.17 15.65V217.3h2.3v13.23h-2.3Zm16.19-1.67a6.78 6.78 0 0 1-4.95 2c-1.94 0-3.6-.66-4.95-2a6.73 6.73 0 0 1-2.01-4.95c0-1.96.67-3.6 2.01-4.95a6.78 6.78 0 0 1 4.95-2.01 6.8 6.8 0 0 1 4.95 2.01 6.68 6.68 0 0 1 2.04 4.95 6.7 6.7 0 0 1-2.04 4.95Zm-4.95-.24c1.32 0 2.44-.45 3.34-1.35.9-.9 1.34-2.02 1.34-3.36a4.6 4.6 0 0 0-1.34-3.36 4.53 4.53 0 0 0-3.34-1.35c-1.3 0-2.4.45-3.3 1.35-.9.9-1.36 2.02-1.36 3.36 0 1.34.45 2.46 1.35 3.36.9.9 2 1.35 3.31 1.35Zm15.5-11.67c1.55 0 2.8.5 3.73 1.48.93.97 1.4 2.3 1.4 3.97v8.13h-2.3v-8c0-1.07-.3-1.9-.87-2.48a3.2 3.2 0 0 0-2.41-.9 3.7 3.7 0 0 0-2.78 1.08c-.7.7-1.06 1.8-1.06 3.28v7.01h-2.3V217.3h2.3v1.9a4.7 4.7 0 0 1 4.29-2.24Zm9.54 3.91c0 .52.25.93.76 1.25.52.3 1.13.55 1.86.74.72.18 1.44.39 2.17.63a4.1 4.1 0 0 1 1.85 1.22c.51.57.77 1.3.77 2.2 0 1.2-.47 2.16-1.4 2.88a5.55 5.55 0 0 1-3.55 1.09 6.19 6.19 0 0 1-3.31-.85 4.73 4.73 0 0 1-1.96-2.25l1.99-1.13c.2.63.6 1.13 1.19 1.5.58.37 1.28.56 2.09.56.76 0 1.38-.14 1.88-.42.5-.3.74-.76.74-1.38 0-.51-.26-.92-.77-1.22a6.33 6.33 0 0 0-1.85-.74c-.72-.2-1.45-.41-2.17-.66a4.37 4.37 0 0 1-1.86-1.22 3.11 3.11 0 0 1-.76-2.17c0-1.15.44-2.09 1.32-2.83a5.11 5.11 0 0 1 3.36-1.11c1.08 0 2.03.25 2.86.74a4.56 4.56 0 0 1 1.9 2.01l-1.93 1.09c-.47-1.13-1.42-1.7-2.83-1.7-.65 0-1.2.16-1.67.48-.45.3-.68.73-.68 1.3Z"/>
</svg>
