<svg xmlns="http://www.w3.org/2000/svg" fill="none" viewBox="0 0 328 282">
  <g clip-path="url(#a)">
    <rect width="328" height="282" fill="#9BCF60" rx="37.81"/>
    <path fill="#000" fill-opacity=".1" d="M311.34 355.52c79.1 0 143.23-64.56 143.23-144.2 0-79.65-64.13-144.22-143.23-144.22s-143.23 64.57-143.23 144.21c0 79.65 64.13 144.21 143.23 144.21Z"/>
    <path fill="#000" fill-opacity=".1" d="M258.29 275.59c.75-6.28 5.64-12.64 2.83-18.31-3.15-6.32-12.33-5.3-18.79-8.14-9.02-3.97-11.81-15.16-17.7-23.07-5.28-7.07-17.61-14.84-26.99-12.71-6.8 1.54-9.13 5.6-9.83 10.58l-.86-.14c-2.52-.27-5.46-.41-6.84-2.49-1.61-2.42-.02-6.03-1.68-8.41-.86-1.25-2.36-1.79-3.58-2.67-1.22-.86-2.27-2.49-1.52-3.81.61-1.11 2.2-1.34 2.99-2.36.63-.82.61-2.06-.05-2.83-2.58-3.06-5.46 3.17-6.89 4.65-.41.43-.79.79-1.16 1.09v.02c-.02.27-.05.52-.05.79-.03.85-.03 1.72-.05 2.58-.01.86-.05 1.72-.05 2.58l.03 2.1.03 2.1c1.54.52 2.99 1.34 4.42 2.18 2.79 1.61 5.89 3.74 6.07 6.96.02.52-.02 1.09.29 1.52.29.41.84.57 1.34.68 2.38.57 4.83.91 7.27 1.02.05 2.88.25 5.89.2 8.75-.07 4.15-1.43 8.25-.97 12.35.66 5.8 4.69 10.56 8.2 15.23 13.37 17.86 20.57 38.34 28.39 59.32 1.45 1.16 3.52 2.7 5.02 3.76a118.77 118.77 0 0 0 6.99 4.67c.86.54 1.05.7 1.93 1.22-.11-.25.1.18-.01-.07-3.15-6.91-3.16-16.49 3.62-19.91 1.29-.66 2.76-1.02 3.83-2.02 3.01-2.86.54-8.75 3.56-11.6 1.7-1.59 4.35-1.47 6.46-2.42 3.78-1.74 5.01-6.59 4.71-10.76-.27-4.16-1.63-8.29-1.16-12.43ZM177 170.04c2.67-2.29 7.3-2.56 9.36.29 1.47 2.04 1.13 4.83.75 7.32-.52 3.35-1.04 6.71-1.59 10.06-.16 1-.29 2.08.14 3.01 1 2.13 4.49 1.72 5.82-.18 1.36-1.93 1.2-4.51.84-6.82-.36-2.33-.84-4.78.07-6.96 2.27-5.39 10.31-4.58 14.98-8.09 2.9-2.18 4.19-5.82 5.91-9.02 1.72-3.2 4.6-6.39 8.23-6.23 1.22.05 2.42.5 3.65.45 3.58-.11 5.67-5.35 3.13-7.89-.52-.54-1.22-.97-1.59-1.63-.63-1.2.05-2.74 1.13-3.56 1.09-.79 2.47-1.02 3.81-1.22 3.06-.5 6.12-.97 9.18-1.45 3.38-.52 7.7-2.27 7.23-5.64-.41-2.92-4.37-4.24-4.96-7.14-.16-.7-.07-1.47-.39-2.13-.93-1.86-3.72-1.11-5.51-.11-.73-2.7-4.58-3.92-6.73-2.15-1.81 1.5-2.04 4.12-2.67 6.37-1.5 5.44-5.82 9.56-9.95 13.39-1.38 1.27-2.95 2.63-4.83 2.72-1.88.09-3.85-1.93-2.99-3.58.59-1.13 2.22-1.79 2.06-3.06-.23-1.59-2.99-1.47-3.53-2.99 1.09-4.49 6.23-6.34 10.17-8.75a24.65 24.65 0 0 0 10.4-12.78c.32-.84.57-1.84.14-2.63-.59-1.13-2.11-1.31-3.4-1.31-3.04-.05-6.82.36-7.93 3.2-.59 1.52-.16 3.24-.52 4.83-1.07 4.71-7.52 5.23-11.47 8.04-1.54 1.09-2.74 2.61-4.44 3.44-1.84.88-3.99.82-6.03.97-.36.02-1.29-.01-1.65.04-1.25 1.73-2.23 3.31-3.38 5.11-1.16 1.8-2.32 3.8-3.4 5.65-5.08 8.68-9 18.05-12.17 27.79a142.49 142.49 0 0 0-4.96 20.94c1.41-2.9 2.04-6.48 2.58-9.02.74-3.42 1.85-7 4.51-9.28Zm120.36-64.79c1.35-1.78.96-4.33 1.84-6.38 1.46-3.41 5.99-4.63 7.56-7.99.6-1.29.75-2.87 1.81-3.83.88-.8 2.18-.96 3.13-1.69 2.11-1.62 1.24-5.3-1.01-6.73-5.62-3.59-15.95.56-20.81 4.07-6.24 4.51-12.34 9.95-20.64 9.42-2.29-.15-4.67-.77-6.81.04-2.14.81-3.47 4.03-1.62 5.39 1.03.76 2.48.55 3.64 1.08 2.14.99 2.35 4.09 1.31 6.2-1.04 2.11-2.93 3.7-4.16 5.71a10.8 10.8 0 0 0-1.54 6.56c.14 1.58.7 3.22 1.94 4.21 2.58 2.06 6.51.3 8.7-2.18 2.19-2.48 3.7-5.68 6.53-7.37a16.16 16.16 0 0 1 4.65-1.62l10.82-2.57c1.72-.42 3.58-.91 4.66-2.32Zm157.18 104.96c-.01-2.06-.07-4.11-.18-6.14-.11-2.03-.19-4.1-.39-6.12-.16-1.63-.3-3.26-.53-4.87-.22-1.7-.45-3.65-.73-5.34-.85-5.05-1.78-9.54-3.15-14.4-.53-1.87-1.44-3.86-2.04-5.7-.6-1.84-1.24-3.66-1.92-5.48v-.02c-.73-1.36-1.5-2.7-2.33-4.01-7.95-12.6-19.51-22.48-28.26-34.53-2.86-3.92-5.08-7.16-10.13-7.93-7.48-1.16-11.26 3.1-16.57-3.99-1.43-1.9-3.92-3.67-6.03-2.54.54 1.52 1.11 3.04 1.65 4.58.11.32.23.66.18 1-.11 1.07-1.7 1.36-2.61.77-.91-.61-1.36-1.68-1.99-2.56-2.36-3.38-7.89-3.81-10.76-.88a4.12 4.12 0 0 0-2.38-3.35c-.29 2.79-3.49 4.85-6.16 3.97-.43-1.38 2.04-1.63 2.9-2.81.79-1.11-.16-2.65-1.18-3.58a15.71 15.71 0 0 0-9.86-3.83c-2.29-.05-4.76.39-6.75-.79-1.16-.68-1.97-1.81-3.15-2.47-2.52-1.43-5.67-.11-8.2 1.29-3.47 1.93-7.05 4.35-8.27 8.14-1.25 3.76 1.5 8.86 5.44 8.38 1-.14 2.04-.61 3.01-.34 1.41.39 2.04 2.02 2.15 3.47.11 1.43-.05 2.97.66 4.24.68 1.27 2.74 1.9 3.53.7 1.86-1.77 1.63-4.74 1.16-7.25-.45-2.52-.97-5.35.52-7.41 1.52-2.06 5.82-1.4 5.53 1.13-.18 1.5-1.88 2.58-1.81 4.1.07 1.54 1.95 2.36 3.49 2.29 1.54-.05 3.1-.61 4.6-.23 1.52.36 2.72 2.33 1.63 3.44-1.88 2.13-6.78-1.52-7.75 1.13-.27.68 0 1.45-.07 2.18-.18 2.22-2.97 3.04-5.19 3.31-2.22.25-4.58.48-6.59-.48-2.02-.95-3.4-3.6-2.24-5.51-1.13-.82-2.85 0-3.47 1.27-.61 1.25-.43 2.74-.25 4.12-2.36-.52-4.46 1.47-5.8 3.44-1.36 1.99-2.65 4.31-4.94 5.01-2.31.7-5.48-.25-6.69 1.84-1.56 2.72 2.97 6.16 1.38 8.86-.91 1.52-3.08 1.47-4.8 1.95-4.55 1.29-6.14 7.95-3.04 11.51 3.08 3.56 9.31 3.35 12.6-.04 2.29-2.33 3.22-5.62 4.87-8.43 1.65-2.79 4.78-5.33 7.91-4.42 1.22.36 2.27 1.22 3.24 2.04 1.52 1.27 3.04 2.54 4.55 3.83.97.82 2.04 1.84 1.95 3.1-.09 1.02-.88 1.81-1.22 2.76-.95 2.74 3.01 5.35 5.51 3.85 2.52-1.5 2.76-5.33 1.07-7.68-2.36-3.26-7.68-4.89-7.55-8.93 2.72-2.22 7 .11 8.59 3.26 1.59 3.13 1.63 6.84 2.97 10.08 1.34 3.26 5.08 6.14 8.2 4.55l-2.42-8.38c1.99-1.5 4.28 2.86 6.66 2.13 1.45-.45 1.63-2.54 1-3.94-.61-1.4-1.74-2.58-2.02-4.1-.45-2.76 2.63-5.23 5.42-4.78 2.76.45 4.78 3.1 5.3 5.85.2 1.09.25 2.24.72 3.24 1.04 2.18 3.74 2.83 5.96 3.74 2.24.91 4.56 3.15 3.63 5.37-.43.97-1.45 1.9-1.09 2.9.34.88 1.65 1.27 1.65 2.22-.02.63-.68 1.06-1.27 1.31-1.5.61-3.13.82-4.58 1.52-1.45.68-2.76 2.08-2.65 3.67.18 2.27 2.88 3.35 4.15 5.23 1.22 1.79 1.04 4.17 1.81 6.21.73 1.88 2.22 3.35 3.42 4.96 3.76 5.12 4.65 11.72 6.48 17.79.82 2.74 2.31 5.8 5.12 6.32 1.54.27 3.08-.32 4.53-.88 4.06-1.61 8.27-3.33 11.1-6.62 2.86-3.31 3.81-8.68.88-11.92-.36-.43-.84-.82-1.38-.88-.77-.09-1.45.43-2.13.75-2.06.95-4.6.16-6.32-1.36-1.7-1.5-2.74-3.6-3.76-5.64l-3.35-6.78c1.34-1.13 3.47-.66 4.85.45 1.36 1.11 2.2 2.72 3.31 4.08 3.38 4.21 8.93 6.07 14.3 6.71 1.36.16 2.76.27 4.03.84 4.01 1.84 5.17 7.75 9.4 9.02 1.18.36 2.49.29 3.6.82 1.68.79 2.52 2.7 3.01 4.49.93 3.33 1.25 6.84 2.65 10.02 1.38 3.17 4.22 6.05 7.66 6.1 2.15.05 4.1-.96 5.67-2.47.18-3.13.38-6.36.38-9.54.02-.66.02-1.32-.03-1.98Zm-57.96 59.44c-2.13.42-2.56 1.67-3.72 3.26-1.51 2.06-3.67 4.12-5.04 6.14-2.33 3.44-.23 8.81-3.3 11.7-.62.59-1.43.98-1.99 1.63-1.23 1.43-.77 3.86.73 5 1.5 1.14 3.71 1.06 5.34.1a7.82 7.82 0 0 0 3.27-4.47c.41-1.3.63-2.77 1.66-3.66 1.75-1.53 4.48-.4 6.79-.72 9.82-1.37 5.6-20.82-3.74-18.98Z"/>
    <path fill="#000" fill-opacity=".1" d="M399.91 242.61c5.65-4.89 7.93-15.94.91-18.5-2.66-.97-5.72-.19-8.35-1.2-3.44-1.34-5.04-5.2-6.29-8.68l-9.79-27.35c-1.97-5.49-4.95-11.86-10.73-12.67-3.27-.46-6.45 1.1-9.7 1.7-11.19 2.03-30-25.05-38.53-6.83-1.19-4.96-9.24-3.1-11.82 1.31-2.57 4.4-3.12 10.23-7.19 13.3-3.1 2.32-7.67 2.46-10.22 5.4-1.79 2.07-2.09 5-2.32 7.72l-1.29 15.63c-.35 4.2-.64 8.7 1.44 12.36 2.08 3.67 7.52 5.7 10.63 2.86 1.43-1.3 2.04-3.28 3.21-4.83a8.1 8.1 0 0 1 8.36-2.88c2.54.67 4.57 2.55 6.36 4.48 14.57 15.7 19.8 38.02 20.43 59.42.12 3.92.12 7.94 1.56 11.58 1.7 4.27 5.25 7.72 6.3 12.2.8 3.42.04 7.2 1.51 10.4 2.71 5.9 11.77 6.15 16.7 1.92s6.64-11.05 7.64-17.46c1-6.42 1.65-13.18 5.24-18.59 2.23-3.36 5.51-6.04 7.06-9.76 2.18-5.19.56-11.35 2.6-16.6 2.7-6.95 10.63-10.04 16.28-14.93Z"/>
    <path fill="#141414" d="M48.3 61.65v6.4h-3.75V74H37.6v-5.95H21.05v-6.4L32.7 39h7.4L28.5 61.65h9.1v-8.3h6.95v8.3h3.75ZM76.92 74h-7.85l-6.8-11.4-6.8 11.4h-7.8l10.7-17.95L48.22 39h7.8l6.25 10.5L68.52 39h7.8L66.17 56l10.75 18ZM28.3 103h1.86l-4.08 10.62a5.62 5.62 0 0 1-1.8 2.58 3.7 3.7 0 0 1-2.64.8v-1.62c1.23.1 2.13-.59 2.7-2.04l.18-.38-4.36-9.96h1.86l3.4 7.84L28.3 103Zm10.76 8.74a5.13 5.13 0 0 1-3.74 1.52c-1.46 0-2.71-.5-3.74-1.52a5.08 5.08 0 0 1-1.52-3.74c0-1.48.5-2.73 1.52-3.74a5.13 5.13 0 0 1 3.74-1.52c1.47 0 2.72.5 3.74 1.52A5.05 5.05 0 0 1 40.6 108c0 1.48-.51 2.73-1.54 3.74Zm-3.74-.18c1 0 1.84-.34 2.52-1.02a3.45 3.45 0 0 0 1.02-2.54c0-1.01-.34-1.86-1.02-2.54a3.42 3.42 0 0 0-2.52-1.02 3.4 3.4 0 0 0-2.5 1.02A3.45 3.45 0 0 0 31.8 108c0 1.01.34 1.86 1.02 2.54a3.4 3.4 0 0 0 2.5 1.02ZM48.95 103h1.74v10h-1.74v-1.44a3.56 3.56 0 0 1-3.24 1.7 3.74 3.74 0 0 1-2.82-1.1 4.21 4.21 0 0 1-1.06-3.02V103h1.74v6.04c0 .81.22 1.45.66 1.9.44.44 1.05.66 1.82.66.87 0 1.57-.27 2.1-.8.54-.55.8-1.38.8-2.5V103Zm5.53 1.68c.58-1.24 1.62-1.86 3.12-1.86v1.82a3.15 3.15 0 0 0-2.2.68c-.61.5-.92 1.29-.92 2.38v5.3h-1.74v-10h1.74v1.68Zm9.85 4.12c.17.9.58 1.59 1.22 2.08.65.5 1.45.74 2.4.74 1.32 0 2.28-.49 2.88-1.46l1.48.84a4.89 4.89 0 0 1-4.4 2.26 5.3 5.3 0 0 1-3.88-1.48 5.16 5.16 0 0 1-1.48-3.78 5.04 5.04 0 0 1 5.24-5.26c1.46 0 2.66.52 3.58 1.56a5.34 5.34 0 0 1 1.34 4.5h-8.38Zm3.46-4.42a3.32 3.32 0 0 0-3.46 2.9H71a3.33 3.33 0 0 0-1.12-2.16 3.2 3.2 0 0 0-2.1-.74ZM82.43 103h1.74v10h-1.74v-1.72a4.24 4.24 0 0 1-3.78 1.98c-1.4 0-2.6-.5-3.58-1.52a5.2 5.2 0 0 1-1.48-3.74c0-1.47.49-2.7 1.48-3.72a4.78 4.78 0 0 1 3.58-1.54c1.65 0 2.9.66 3.78 1.98V103Zm-3.56 8.58a3.51 3.51 0 0 0 3.56-3.58c0-1.01-.34-1.86-1.02-2.54a3.41 3.41 0 0 0-2.54-1.04c-1 0-1.84.35-2.52 1.04a3.45 3.45 0 0 0-1.02 2.54c0 1.01.34 1.87 1.02 2.56a3.42 3.42 0 0 0 2.52 1.02Zm9.07-6.9c.58-1.24 1.62-1.86 3.12-1.86v1.82a3.15 3.15 0 0 0-2.2.68c-.61.5-.92 1.29-.92 2.38v5.3H86.2v-10h1.74v1.68Zm9.2-1.94a3.7 3.7 0 0 1 2.82 1.12 4.12 4.12 0 0 1 1.07 3V113h-1.75v-6.04c0-.81-.22-1.44-.66-1.88a2.42 2.42 0 0 0-1.82-.68 2.8 2.8 0 0 0-2.1.82c-.53.53-.8 1.36-.8 2.48v5.3h-1.74v-10h1.74v1.44a3.56 3.56 0 0 1 3.24-1.7Zm6.6-1.56c-.34 0-.62-.11-.85-.34a1.15 1.15 0 0 1 0-1.64c.23-.24.51-.36.84-.36.32 0 .6.12.82.36.23.23.34.5.34.82 0 .32-.11.6-.34.82-.22.23-.5.34-.82.34Zm-.89 11.82v-10h1.74v10h-1.74Zm8.78-10.26a3.7 3.7 0 0 1 2.82 1.12c.7.73 1.06 1.73 1.06 3V113h-1.74v-6.04c0-.81-.22-1.44-.66-1.88a2.42 2.42 0 0 0-1.82-.68 2.8 2.8 0 0 0-2.1.82c-.53.53-.8 1.36-.8 2.48v5.3h-1.74v-10h1.74v1.44a3.56 3.56 0 0 1 3.24-1.7Zm14 .26h1.73v9.58c0 1.48-.5 2.63-1.5 3.44-1 .83-2.2 1.24-3.6 1.24a6.16 6.16 0 0 1-2.9-.64 4.14 4.14 0 0 1-1.84-1.8l1.52-.86c.54 1.12 1.63 1.68 3.26 1.68 1.04 0 1.85-.27 2.44-.82.6-.55.9-1.3.9-2.24v-1.42a4.24 4.24 0 0 1-3.76 2c-1.43 0-2.64-.5-3.62-1.52a5.1 5.1 0 0 1-1.48-3.7c0-1.45.5-2.68 1.48-3.68a4.86 4.86 0 0 1 3.62-1.52c1.64 0 2.9.66 3.76 1.98V103Zm-6.1 7.48a3.45 3.45 0 0 0 2.55 1.02c1.01 0 1.86-.34 2.54-1.02a3.45 3.45 0 0 0 1.02-2.54c0-1-.34-1.84-1.02-2.52a3.45 3.45 0 0 0-2.54-1.02c-1.02 0-1.86.34-2.54 1.02a3.42 3.42 0 0 0-1.02 2.52c0 1.01.34 1.86 1.02 2.54Zm11.34-4.78c0 .39.2.7.58.94.4.23.86.41 1.4.56.55.13 1.1.3 1.64.48a3 3 0 0 1 1.4.92c.4.43.58.98.58 1.66 0 .9-.35 1.63-1.06 2.18a4.2 4.2 0 0 1-2.68.82c-.97 0-1.8-.21-2.5-.64-.69-.43-1.18-1-1.48-1.7l1.5-.86c.16.48.46.86.9 1.14.44.28.97.42 1.58.42.58 0 1.05-.1 1.42-.32.38-.23.56-.57.56-1.04 0-.39-.19-.7-.58-.92a4.79 4.79 0 0 0-1.4-.56c-.54-.15-1.09-.31-1.64-.5a3.3 3.3 0 0 1-1.4-.92 2.35 2.35 0 0 1-.58-1.64c0-.87.34-1.58 1-2.14a3.86 3.86 0 0 1 2.54-.84c.82 0 1.54.19 2.16.56.64.36 1.12.87 1.44 1.52l-1.46.82c-.36-.85-1.07-1.28-2.14-1.28-.49 0-.9.12-1.26.36a1.1 1.1 0 0 0-.52.98Zm23.24-2.7h1.82l-3.1 10h-1.78l-2.34-7.4-2.34 7.4h-1.78l-3.1-10h1.82l2.2 7.6 2.36-7.6h1.68l2.36 7.62 2.2-7.62Zm3.9-1.82a1.1 1.1 0 0 1-.84-.34c-.23-.23-.34-.5-.34-.82 0-.32.1-.6.33-.82.23-.24.51-.36.84-.36.32 0 .6.12.82.36.23.23.34.5.34.82 0 .32-.1.6-.34.82-.22.23-.5.34-.81.34Zm-.88 11.82v-10h1.74v10h-1.75Zm9.23-8.32h-2.66v5.42c0 .5.1.85.28 1.06.2.2.5.3.9.32.4 0 .9-.01 1.48-.04V113c-1.52.2-2.63.08-3.34-.36-.7-.45-1.06-1.3-1.06-2.54v-5.42h-1.98V103h1.98v-2.28l1.74-.52v2.8h2.66v1.68Zm6.44-1.94a3.7 3.7 0 0 1 2.82 1.12c.7.73 1.06 1.73 1.06 3V113h-1.74v-6.04c0-.81-.22-1.44-.66-1.88a2.42 2.42 0 0 0-1.82-.68 2.8 2.8 0 0 0-2.1.82c-.53.53-.8 1.36-.8 2.48v5.3h-1.74V99h1.74v5.44a3.56 3.56 0 0 1 3.24-1.7ZM26.02 139.26a5.1 5.1 0 0 1-5.26-5.26c0-1.5.5-2.74 1.5-3.74a5.07 5.07 0 0 1 3.76-1.52 5 5 0 0 1 2.66.72 4.4 4.4 0 0 1 1.76 1.9l-1.46.84a2.95 2.95 0 0 0-1.18-1.28 3.33 3.33 0 0 0-1.78-.48A3.48 3.48 0 0 0 22.5 134a3.46 3.46 0 0 0 3.52 3.54 3.26 3.26 0 0 0 3.02-1.74l1.48.86a4.93 4.93 0 0 1-1.84 1.9c-.8.47-1.69.7-2.66.7Zm13.92-1.52a5.13 5.13 0 0 1-3.74 1.52 5.1 5.1 0 0 1-3.74-1.52 5.08 5.08 0 0 1-1.52-3.74c0-1.48.5-2.73 1.52-3.74a5.13 5.13 0 0 1 3.74-1.52c1.47 0 2.71.5 3.74 1.52a5.05 5.05 0 0 1 1.54 3.74c0 1.48-.51 2.73-1.54 3.74Zm-3.74-.18c1 0 1.84-.34 2.52-1.02a3.45 3.45 0 0 0 1.02-2.54c0-1.01-.34-1.86-1.02-2.54a3.42 3.42 0 0 0-2.52-1.02 3.4 3.4 0 0 0-2.5 1.02 3.45 3.45 0 0 0-1.02 2.54c0 1.01.34 1.86 1.02 2.54a3.4 3.4 0 0 0 2.5 1.02ZM49.83 129h1.74v10h-1.74v-1.44a3.56 3.56 0 0 1-3.24 1.7 3.74 3.74 0 0 1-2.82-1.1 4.21 4.21 0 0 1-1.06-3.02V129h1.74v6.04c0 .81.22 1.45.66 1.9.44.44 1.05.66 1.82.66.87 0 1.57-.27 2.1-.8.54-.55.8-1.38.8-2.5V129Zm8.77-.26a3.7 3.7 0 0 1 2.82 1.12c.7.73 1.06 1.73 1.06 3V139h-1.74v-6.04c0-.81-.22-1.44-.66-1.88a2.42 2.42 0 0 0-1.82-.68 2.8 2.8 0 0 0-2.1.82c-.53.53-.8 1.36-.8 2.48v5.3h-1.74v-10h1.74v1.44a3.56 3.56 0 0 1 3.24-1.7Zm11.15 1.94H67.1v5.42c0 .5.1.85.28 1.06.2.2.5.3.9.32.4 0 .9-.01 1.48-.04V139c-1.52.2-2.63.08-3.34-.36-.7-.45-1.06-1.3-1.06-2.54v-5.42h-1.98V129h1.98v-2.28l1.74-.52v2.8h2.66v1.68Zm3.26 0c.57-1.24 1.61-1.86 3.12-1.86v1.82a3.15 3.15 0 0 0-2.2.68c-.61.5-.92 1.29-.92 2.38v5.3h-1.74v-10H73v1.68ZM84.43 129h1.86l-4.08 10.62a5.62 5.62 0 0 1-1.8 2.58 3.7 3.7 0 0 1-2.64.8v-1.62c1.22.1 2.12-.59 2.7-2.04l.18-.38-4.36-9.96h1.86l3.4 7.84 2.88-7.84Zm12.63-.26c1.4 0 2.6.51 3.58 1.54a5.13 5.13 0 0 1 1.48 3.72 5.2 5.2 0 0 1-1.48 3.74 4.82 4.82 0 0 1-3.58 1.52 4.24 4.24 0 0 1-3.78-1.98V139h-1.74v-14h1.74v5.72a4.24 4.24 0 0 1 3.78-1.98Zm-.22 8.84a3.51 3.51 0 0 0 3.54-3.58c0-1.01-.34-1.86-1.02-2.54a3.4 3.4 0 0 0-2.52-1.04c-1.01 0-1.86.35-2.54 1.04a3.45 3.45 0 0 0-1.02 2.54 3.51 3.51 0 0 0 3.56 3.58Zm15.04-8.58h1.74v10h-1.74v-1.72a4.24 4.24 0 0 1-3.78 1.98c-1.4 0-2.6-.5-3.58-1.52a5.2 5.2 0 0 1-1.48-3.74c0-1.47.49-2.7 1.48-3.72a4.78 4.78 0 0 1 3.58-1.54c1.65 0 2.9.66 3.78 1.98V129Zm-3.56 8.58a3.51 3.51 0 0 0 3.56-3.58c0-1.01-.34-1.86-1.02-2.54a3.42 3.42 0 0 0-2.54-1.04c-1 0-1.84.35-2.52 1.04a3.45 3.45 0 0 0-1.02 2.54c0 1.01.34 1.87 1.02 2.56a3.42 3.42 0 0 0 2.52 1.02Zm8.81-5.88c0 .39.2.7.58.94.39.23.86.41 1.4.56.55.13 1.1.3 1.64.48a3 3 0 0 1 1.4.92c.39.43.58.98.58 1.66 0 .9-.35 1.63-1.06 2.18a4.2 4.2 0 0 1-2.68.82c-.97 0-1.8-.21-2.5-.64-.7-.43-1.18-1-1.48-1.7l1.5-.86c.16.48.46.86.9 1.14.44.28.97.42 1.58.42.58 0 1.05-.1 1.42-.32.38-.23.56-.57.56-1.04 0-.39-.2-.7-.58-.92a4.8 4.8 0 0 0-1.4-.56c-.54-.15-1.1-.31-1.64-.5a3.3 3.3 0 0 1-1.4-.92 2.35 2.35 0 0 1-.58-1.64c0-.87.34-1.58 1-2.14a3.86 3.86 0 0 1 2.54-.84c.82 0 1.54.19 2.16.56.64.36 1.12.87 1.44 1.52l-1.46.82c-.36-.85-1.07-1.28-2.14-1.28-.5 0-.91.12-1.26.36a1.1 1.1 0 0 0-.52.98Zm8 3.1c.18.9.59 1.59 1.23 2.08.65.5 1.45.74 2.4.74 1.32 0 2.28-.49 2.88-1.46l1.48.84a4.89 4.89 0 0 1-4.4 2.26c-1.59 0-2.88-.5-3.88-1.48a5.16 5.16 0 0 1-1.48-3.78 5.04 5.04 0 0 1 5.24-5.26c1.47 0 2.66.52 3.58 1.56a5.33 5.33 0 0 1 1.34 4.5h-8.38Zm3.47-4.42c-.93 0-1.7.27-2.32.8-.61.52-1 1.22-1.14 2.1h6.68a3.33 3.33 0 0 0-1.12-2.16 3.2 3.2 0 0 0-2.1-.74Zm14.64-5.38h1.74v14h-1.74v-1.72a4.24 4.24 0 0 1-3.78 1.98c-1.4 0-2.6-.5-3.58-1.52a5.2 5.2 0 0 1-1.48-3.74c0-1.47.5-2.7 1.48-3.72a4.78 4.78 0 0 1 3.58-1.54c1.65 0 2.91.66 3.78 1.98V125Zm-3.56 12.58a3.51 3.51 0 0 0 3.56-3.58c0-1.01-.34-1.86-1.02-2.54a3.42 3.42 0 0 0-2.54-1.04c-1 0-1.84.35-2.52 1.04a3.45 3.45 0 0 0-1.02 2.54c0 1.01.34 1.87 1.02 2.56a3.42 3.42 0 0 0 2.52 1.02ZM26.84 154.74c1.4 0 2.6.51 3.58 1.54A5.13 5.13 0 0 1 31.9 160a5.2 5.2 0 0 1-1.48 3.74 4.81 4.81 0 0 1-3.58 1.52 4.24 4.24 0 0 1-3.78-1.98V169h-1.74v-14h1.74v1.72a4.24 4.24 0 0 1 3.78-1.98Zm-.22 8.84c1 0 1.84-.34 2.52-1.02a3.51 3.51 0 0 0 1.02-2.56c0-1.01-.34-1.86-1.02-2.54a3.4 3.4 0 0 0-2.52-1.04c-1.01 0-1.86.35-2.54 1.04a3.45 3.45 0 0 0-1.02 2.54 3.51 3.51 0 0 0 3.56 3.58Zm8.5-6.9c.57-1.24 1.61-1.86 3.12-1.86v1.82a3.15 3.15 0 0 0-2.2.68c-.62.5-.92 1.29-.92 2.38v5.3h-1.74v-10h1.74v1.68Zm5.1-3.5c-.33 0-.61-.11-.84-.34-.23-.23-.34-.5-.34-.82 0-.32.11-.6.34-.82.23-.24.5-.36.84-.36.32 0 .6.12.82.36.23.23.34.5.34.82 0 .32-.11.6-.34.82-.23.23-.5.34-.82.34ZM39.34 165v-10h1.74v10h-1.74Zm8.5.26a5.1 5.1 0 0 1-5.27-5.26c0-1.5.5-2.74 1.5-3.74a5.07 5.07 0 0 1 3.76-1.52 5 5 0 0 1 2.66.72 4.4 4.4 0 0 1 1.76 1.9l-1.46.84a2.95 2.95 0 0 0-1.18-1.28 3.33 3.33 0 0 0-1.78-.48c-1 0-1.84.34-2.52 1.02-.66.68-1 1.53-1 2.54a3.46 3.46 0 0 0 3.52 3.54 3.5 3.5 0 0 0 1.8-.46 3.2 3.2 0 0 0 1.22-1.28l1.48.86a4.93 4.93 0 0 1-1.84 1.9c-.8.47-1.68.7-2.66.7Zm6.5-12.08c-.34 0-.62-.11-.85-.34-.23-.23-.34-.5-.34-.82 0-.32.11-.6.34-.82.23-.24.5-.36.84-.36.32 0 .6.12.82.36.23.23.34.5.34.82 0 .32-.11.6-.34.82-.23.23-.5.34-.82.34Zm-.9 11.82v-10h1.74v10h-1.74Zm8.78-10.26a3.7 3.7 0 0 1 2.82 1.12c.7.73 1.06 1.73 1.06 3V165h-1.74v-6.04c0-.81-.22-1.44-.66-1.88a2.42 2.42 0 0 0-1.82-.68 2.8 2.8 0 0 0-2.1.82c-.54.53-.8 1.36-.8 2.48v5.3h-1.74v-10h1.74v1.44a3.56 3.56 0 0 1 3.24-1.7Zm14 .26h1.72v9.58c0 1.48-.5 2.63-1.5 3.44-1 .83-2.2 1.24-3.6 1.24a6.16 6.16 0 0 1-2.9-.64 4.14 4.14 0 0 1-1.84-1.8l1.52-.86c.55 1.12 1.64 1.68 3.26 1.68 1.04 0 1.86-.27 2.44-.82.6-.55.9-1.3.9-2.24v-1.42a4.24 4.24 0 0 1-3.76 2c-1.42 0-2.63-.5-3.62-1.52a5.1 5.1 0 0 1-1.48-3.7c0-1.45.5-2.68 1.48-3.68a4.86 4.86 0 0 1 3.62-1.52c1.64 0 2.9.66 3.76 1.98V155Zm-6.1 7.48a3.45 3.45 0 0 0 2.54 1.02c1.02 0 1.86-.34 2.54-1.02a3.45 3.45 0 0 0 1.02-2.54c0-1-.34-1.84-1.02-2.52a3.45 3.45 0 0 0-2.54-1.02c-1 0-1.86.34-2.54 1.02a3.42 3.42 0 0 0-1.02 2.52c0 1.01.34 1.86 1.02 2.54Z"/>
    <rect width="66.42" height="29.66" x="138" y="163" fill="#fff" fill-opacity=".91" rx="11.95"/>
    <path fill="#141414" d="M171.1 179.27v1.65h-.97v1.53h-1.8v-1.53h-4.27v-1.65l3-5.84h1.92l-3 5.84h2.35v-2.14h1.8v2.14h.96Zm4.24 3.36a3.15 3.15 0 0 1-2.66-1.27c-.64-.86-.96-2-.96-3.42s.32-2.55.96-3.4a3.14 3.14 0 0 1 2.66-1.3c1.13 0 2.02.44 2.65 1.3.64.85.96 1.98.96 3.4a5.6 5.6 0 0 1-.96 3.42 3.13 3.13 0 0 1-2.65 1.27Zm-1.37-2.48c.3.5.76.74 1.37.74.6 0 1.05-.25 1.36-.76.32-.5.48-1.24.48-2.2 0-.95-.16-1.69-.48-2.2a1.5 1.5 0 0 0-1.36-.76c-.6 0-1.06.26-1.37.76a4.28 4.28 0 0 0-.47 2.2c0 .97.16 1.7.47 2.22Zm9.49 2.48a3.15 3.15 0 0 1-2.66-1.27c-.63-.86-.95-2-.95-3.42s.32-2.55.95-3.4a3.14 3.14 0 0 1 2.66-1.3c1.13 0 2.02.44 2.66 1.3.63.85.95 1.98.95 3.4s-.32 2.56-.95 3.42a3.13 3.13 0 0 1-2.66 1.27Zm-1.37-2.48c.31.5.77.74 1.37.74.6 0 1.06-.25 1.37-.76.31-.5.47-1.24.47-2.2 0-.95-.16-1.69-.47-2.2a1.5 1.5 0 0 0-1.37-.76c-.6 0-1.06.26-1.37.76a4.4 4.4 0 0 0-.46 2.2c0 .97.15 1.7.46 2.22Zm12.19-.22c0 .75-.24 1.37-.72 1.84-.49.46-1.11.74-1.89.84v1.13h-.86v-1.12a3.7 3.7 0 0 1-1.86-.6 2.93 2.93 0 0 1-1.1-1.44l1.53-.89c.27.7.75 1.08 1.43 1.18v-2.23h-.01l-.03-.02a5.65 5.65 0 0 1-1.4-.67 2.74 2.74 0 0 1-.6-.5 2.56 2.56 0 0 1-.53-1.59c0-.75.25-1.36.74-1.82.5-.45 1.1-.71 1.83-.78v-1.12h.86v1.14c1.17.14 2 .75 2.48 1.82l-1.5.88c-.2-.52-.53-.83-.98-.94v2.15c.8.32 1.34.57 1.62.76.66.48.99 1.13.99 1.98Zm-4.27-4.05c0 .19.06.35.18.5.12.14.33.28.62.42V175c-.26.05-.46.15-.6.3a.82.82 0 0 0-.2.58Zm1.66 4.96c.55-.12.83-.42.83-.9 0-.22-.07-.4-.2-.54a1.85 1.85 0 0 0-.63-.42v1.86Z"/>
    <g clip-path="url(#b)">
      <path fill="#F0F5F9" d="M159.22 182.12h-13.43v-3.83l4.25-1.72 1.94-3.04h7.24v8.59Z"/>
      <path fill="#D11536" d="M159.22 174.2h-7.88l.37-.45.27-.22h7.24v.67Zm0 .7h-7.88v.66h7.88v-.66Zm0 1.36h-7.88v.67h7.88v-.67Zm0 1.37h-13.43v.66h13.43v-.66Zm0 1.37h-13.43v.66h13.43v-.67Zm0 1.36h-13.43v.67h13.43v-.67Zm0 1.36h-13.43v.67h13.43v-.67Z"/>
      <path fill="#002868" d="M151.98 173.53h-6.2v4.76h6.2v-4.76Z"/>
      <path fill="#F0F5F9" d="m146.43 173.92.1.2.2.02-.15.15.04.21-.2-.1-.18.1.03-.2-.15-.16.21-.03.1-.2Zm1.23 0 .1.2.2.02-.15.15.04.21-.2-.1-.18.1.03-.2-.15-.16.21-.03.1-.2Zm1.22 0 .1.2.21.02-.15.15.03.21-.19-.1-.19.1.04-.2-.16-.16.22-.03.1-.2Zm1.23 0 .1.2.2.02-.15.15.04.21-.19-.1-.19.1.04-.2-.16-.16.21-.03.1-.2Zm1.23 0 .1.2.2.02-.15.15.04.21-.2-.1-.18.1.03-.2-.15-.16.21-.03.1-.2Zm-1.8.8.09.2.21.03-.15.15.04.2-.2-.1-.18.1.03-.2-.15-.15.21-.03.1-.2Zm-1.27 0 .1.2.2.03-.15.15.04.2-.2-.1-.18.1.04-.2-.16-.15.21-.03.1-.2Zm2.53 0 .1.2.2.03-.15.15.04.2-.19-.1-.19.1.04-.2-.16-.15.22-.03.09-.2Zm.54.96.1.19.2.03-.15.15.04.21-.2-.1-.18.1.03-.21-.15-.15.21-.03.1-.2Zm-.54.79.1.2.2.03-.15.15.04.2-.19-.1-.19.1.04-.2-.16-.15.22-.03.09-.2Zm.54.96.1.19.2.03-.15.15.04.21-.2-.1-.18.1.03-.21-.15-.15.21-.03.1-.2Zm-4.34-2.71.1.2.21.03-.15.15.03.2-.19-.1-.19.1.04-.2-.15-.15.2-.03.1-.2Zm-.57.94.1.19.2.03-.15.15.04.21-.2-.1-.18.1.03-.21-.15-.15.21-.03.1-.2Zm1.23 0 .1.19.2.03-.15.15.04.21-.2-.1-.18.1.03-.21-.15-.15.21-.03.1-.2Zm1.22 0 .1.19.21.03-.15.15.03.21-.19-.1-.19.1.04-.21-.16-.15.22-.03.1-.2Zm1.23 0 .1.19.2.03-.15.15.04.21-.19-.1-.19.1.04-.21-.16-.15.21-.03.1-.2Zm-.57.8.09.19.21.03-.15.15.04.21-.2-.1-.18.1.03-.2-.15-.16.21-.03.1-.2Zm-1.27 0 .1.19.2.03-.15.15.04.21-.2-.1-.18.1.04-.2-.16-.16.21-.03.1-.2Zm-1.27 0 .1.19.21.03-.15.15.03.21-.19-.1-.19.1.04-.2-.15-.16.2-.03.1-.2Zm-.57.94.1.18.2.03-.15.15.04.22-.2-.1-.18.1.03-.22-.15-.15.21-.03.1-.19Zm1.23 0 .1.18.2.03-.15.15.04.22-.2-.1-.18.1.03-.22-.15-.15.21-.03.1-.19Zm1.22 0 .1.18.21.03-.15.15.03.22-.19-.1-.19.1.04-.22-.16-.15.22-.03.1-.19Zm1.23 0 .1.18.2.03-.15.15.04.22-.19-.1-.19.1.04-.22-.16-.15.21-.03.1-.19Z"/>
    </g>
    <rect width="69" height="29.66" x="194" y="223.26" fill="#fff" fill-opacity=".91" rx="11.95"/>
    <path fill="#141414" d="M223.6 233.69h1.55v9.03h-1.78v-7.15l-1.7.48-.44-1.52 2.37-.84Zm6.54 9.2a3.15 3.15 0 0 1-2.66-1.27c-.64-.86-.95-2-.95-3.42s.31-2.55.95-3.4a3.14 3.14 0 0 1 2.66-1.3c1.13 0 2.02.44 2.65 1.3.64.85.96 1.98.96 3.4s-.32 2.56-.96 3.42a3.13 3.13 0 0 1-2.65 1.28Zm-1.37-2.48c.3.5.76.74 1.37.74.6 0 1.05-.25 1.36-.76.32-.5.48-1.23.48-2.19s-.16-1.7-.48-2.2a1.5 1.5 0 0 0-1.36-.76c-.6 0-1.06.25-1.37.76-.31.5-.47 1.24-.47 2.2 0 .96.16 1.7.47 2.2Zm9.49 2.49a3.15 3.15 0 0 1-2.66-1.28c-.63-.86-.95-2-.95-3.42s.32-2.55.95-3.4a3.14 3.14 0 0 1 2.66-1.3c1.13 0 2.02.44 2.66 1.3.63.85.95 1.98.95 3.4a5.6 5.6 0 0 1-.96 3.42 3.13 3.13 0 0 1-2.65 1.28Zm-1.37-2.5c.31.5.77.75 1.37.75.6 0 1.06-.25 1.37-.76.31-.5.47-1.23.47-2.19s-.16-1.7-.47-2.2a1.5 1.5 0 0 0-1.37-.76c-.6 0-1.06.25-1.37.76-.3.5-.46 1.24-.46 2.2 0 .96.15 1.7.46 2.2Zm12.19-.21c0 .75-.24 1.37-.73 1.84a3.1 3.1 0 0 1-1.88.84V244h-.86v-1.12a3.68 3.68 0 0 1-1.86-.6 2.92 2.92 0 0 1-1.1-1.44l1.53-.88c.27.68.75 1.07 1.43 1.17v-2.23h-.02l-.02-.02a5.8 5.8 0 0 1-1.4-.67 2.74 2.74 0 0 1-.6-.5 2.54 2.54 0 0 1-.53-1.59c0-.75.25-1.36.74-1.81.5-.46 1.1-.72 1.83-.79v-1.12h.86v1.14c1.17.14 2 .75 2.48 1.82l-1.5.88c-.2-.52-.53-.83-.98-.94v2.15c.8.32 1.34.58 1.61.76.67.48 1 1.13 1 1.98Zm-4.27-4.05c0 .19.06.35.18.5.12.14.33.28.62.43v-1.8a.96.96 0 0 0-.6.3.82.82 0 0 0-.2.57Zm1.66 4.96c.55-.12.83-.42.83-.9 0-.21-.07-.4-.2-.54a1.83 1.83 0 0 0-.63-.41v1.85Z"/>
    <g clip-path="url(#c)">
      <path fill="#359846" d="M200.4 240.07v2.1c0 .86.69 1.48 1.53 1.48h12.8c.84 0 1.53-.62 1.53-1.49v-2.1H200.4Z"/>
      <path fill="#EA8634" d="M214.72 232.9h-12.79c-.84 0-1.53.62-1.53 1.49v2.1h15.86v-2.1c0-.87-.7-1.49-1.53-1.49Z"/>
      <path fill="#FCFBF0" d="M200.4 236.48h15.86v3.59H200.4v-3.59Z"/>
      <path fill="#21872F" d="M214.67 243.65c.85 0 1.59-.62 1.59-1.49v-2.1h-5.78l4.2 3.59Z"/>
      <path fill="#E27423" d="M214.72 232.9h-12.79l4.25 3.58h10.08v-2.1c0-.86-.7-1.48-1.53-1.48Z"/>
      <path fill="#F7F4E2" d="M210.5 240.07h5.76v-3.59h-10.1l4.34 3.59Z"/>
      <path fill="#D86619" d="M214.72 232.9h-12.79l11.85 3.58h2.48v-2.1c0-.86-.7-1.48-1.53-1.48Z"/>
      <path fill="#F2E9C2" d="M216.26 237.2v-.72h-2.6l2.6.72Z"/>
      <path fill="#167A20" d="M216.26 242.14c0 .92-.7 1.5-1.53 1.5h-12.8c-.84 0-1.53-.66-1.53-1.53"/>
      <path fill="#7D7DBC" d="M208.33 236.66c-.9 0-1.61.72-1.61 1.62 0 .9.71 1.6 1.6 1.6a1.6 1.6 0 1 0 0-3.22Zm1.33 1.8c0 .02.03.07.05.07-.03.08-.03.16-.05.23-.03-.02-.08 0-.1.03-.03.02 0 .07.02.1-.02.08-.07.13-.1.2-.02-.02-.08-.02-.1.03-.03.03-.03.08 0 .1l-.08.08-.56-.64-.23-.18.02-.02.23.17.75.39-.67-.51-.25-.1.02-.06.26.1.81.18-.79-.25-.28-.05v-.05l.28.02.85-.05-.85-.05-.28.03v-.06l.28-.05.8-.25-.82.18-.26.1c0-.03 0-.03-.03-.05l.26-.1.72-.47-.74.39-.23.18-.03-.03.23-.18.56-.64.08.08a.08.08 0 0 0 0 .1c.03.03.08.03.1.03a.5.5 0 0 1 .1.2c-.02.03-.05.05-.02.1.02.03.05.06.1.03.03.08.05.15.05.23-.02 0-.05.05-.05.08 0 .02.05.07.08.05v.2c-.1.03-.13.05-.13.1Zm-2.23-1.26c.03.03.08.03.1 0 .03-.02.03-.07.03-.1a.5.5 0 0 1 .2-.1c.03.02.06.05.1.02.03-.02.06-.05.03-.1a.73.73 0 0 1 .24-.05c0 .02.05.05.07.05.03 0 .08-.05.05-.08h.2c0 .03.03.08.06.08.02 0 .08-.03.08-.05.07.02.15.02.23.05-.03.03 0 .08.02.1.03.03.08 0 .1-.02.08.02.13.07.2.1-.02.03-.02.08.03.1.03.03.08.03.1 0l.08.08-.64.56-.18.23-.02-.02.18-.24.38-.74-.51.7-.1.25c-.03 0-.03 0-.05-.03l.1-.25.18-.82-.26.8-.05.27h-.05l.02-.28-.02-.84-.05.84.02.28h-.05l-.05-.28-.25-.79.18.82.1.25c-.03 0-.03 0-.05.03l-.1-.26-.47-.71.39.74.18.23-.03.03-.18-.24-.64-.56c.03 0 .05-.02.1-.05Zm-.1 2.07-.08-.07a.08.08 0 0 0 0-.1c-.02-.03-.07-.03-.1-.03a.52.52 0 0 1-.1-.2c.03-.03.05-.06.03-.1-.03-.03-.06-.06-.1-.03a.73.73 0 0 1-.06-.23c.03 0 .05-.05.05-.08s-.05-.08-.07-.05v-.2c.02 0 .07-.03.07-.06 0-.02-.02-.07-.05-.07.03-.08.03-.16.05-.24.03.03.08 0 .1-.02.03-.03 0-.08-.02-.1.03-.08.08-.13.1-.2.03.02.08.02.1-.03.03-.05.03-.08 0-.1l.08-.08.56.64.24.18-.03.02-.23-.18-.74-.38.71.46.26.1c0 .03 0 .03-.03.05l-.25-.1-.82-.18.8.26.27.05v.05l-.28-.03-.87.06.85.05.28-.03v.05l-.28.05-.8.26.82-.18.26-.1.02.05-.25.1-.72.46.74-.38.23-.18.03.03-.23.17-.54.64Zm.9.41c0-.02-.03-.07-.05-.07-.03 0-.08.02-.08.05-.08-.03-.15-.03-.23-.05.03-.03 0-.08-.03-.1-.02-.03-.07 0-.1.02-.08-.03-.13-.08-.2-.1.02-.03.02-.08-.03-.1-.02-.03-.08-.03-.1 0l-.08-.08.64-.56.18-.23.03.02-.18.23-.39.74.46-.71.1-.26c.03 0 .03 0 .06.03l-.1.25-.18.82.25-.8.05-.27h.05l-.02.28.05.84.05-.84-.03-.28h.06l.05.28.25.79-.18-.82-.1-.25c.03 0 .03 0 .05-.03l.1.26.47.71-.39-.74-.18-.23.03-.02.18.22.64.57-.08.07c-.03-.02-.08-.02-.1 0-.03.03-.03.08-.03.1a.51.51 0 0 1-.2.1c-.03-.02-.05-.04-.1-.02-.06.03-.06.06-.03.1a.74.74 0 0 1-.23.06c0-.03-.05-.05-.08-.05-.02 0-.07.05-.05.07h-.2Z"/>
      <path fill="#6060B2" d="m208.69 238.58.07.08v-.03l-.07-.05Zm-.36-1.92c-.49 0-.92.23-1.23.57l.16.13.07-.08.08-.08c.02.03.08.03.1 0 .03-.02.03-.07.03-.1.02-.03.07-.03.1-.05l.38.74.18.23-.02.03-.18-.24-.64-.56.53.62.08.05.16.13.43.35.03-.02.23.18.74.38c-.03.03-.03.08-.05.1-.03-.02-.08-.02-.1.03-.03.02-.03.08 0 .1l.15.13a1.6 1.6 0 0 0-1.23-2.64Zm-.13 1.36-.1-.26-.46-.69c.02-.02.05-.05.1-.05.03.03.05.05.1.03.03-.03.06-.05.03-.1l.1-.03.18.82.1.25c-.02.03-.02.03-.05.03Zm.16-.03.02-.28-.05-.84-.05.84.02.28h-.05l-.05-.28-.25-.79.1-.03c0 .03.05.06.07.06.03 0 .08-.06.06-.08h.2c0 .02.03.07.05.07.03 0 .08-.02.08-.05l.1.03-.26.8-.05.27h.05Zm.05.03.1-.26.18-.81.1.02c-.03.03 0 .08.03.1.02.03.07 0 .1-.02.02.02.08.02.1.05l-.46.66-.1.26h-.05Zm1.15.77c-.03.02 0 .07.02.1-.02.03-.02.08-.05.1l-.69-.48-.25-.1.02-.06.26.1.81.18-.02.1c-.05 0-.08.03-.1.06Zm.18-.62v.2c-.03 0-.08.03-.08.06s.03.08.05.08l-.03.1-.79-.26-.28-.05v-.05l.28.03.85-.06-.85-.05-.28.03v-.05l.28-.05.8-.26.02.1c-.03 0-.05.05-.05.08 0 .13.03.15.08.15Zm-.18-.4c.02.02.05.04.1.02l.03.1-.82.18-.26.1c0-.02 0-.02-.03-.05l.26-.1.7-.46c.02.03.04.05.04.1-.02.03-.05.08-.02.1Zm-.03-.19-.74.39-.23.18-.03-.03.23-.18.57-.64-.64.57-.18.23-.03-.03.18-.23.39-.74c.02.03.07.03.1.05-.03.03-.03.08.02.1.03.03.08.03.1 0l.08.08.08.08c-.03.02-.03.07 0 .1.03.02.08.02.1.02-.02-.02 0 0 0 .06Z"/>
    </g>
  </g>
  <defs>
    <clipPath id="a">
      <rect width="328" height="282" fill="#fff" rx="37.81"/>
    </clipPath>
    <clipPath id="b">
      <path fill="#fff" d="M145.68 171.14h13.64v13.64h-13.64z"/>
    </clipPath>
    <clipPath id="c">
      <path fill="#fff" d="M200.14 230.09h16.37v16.37h-16.37z"/>
    </clipPath>
  </defs>
</svg>
