<svg xmlns="http://www.w3.org/2000/svg" fill="none" viewBox="0 0 328 180">
  <rect width="328" height="180" fill="#DBD1FC" rx="40"/>
  <path fill="#141414" d="M32.2 97.2h2.2V114h-2.2v-7.56h-8.17V114H21.8V97.2h2.23v7.13h8.16V97.2Zm5.92 2.62c-.4 0-.74-.14-1.01-.41a1.4 1.4 0 0 1-.01-1.97c.28-.29.62-.43 1.02-.43.38 0 .7.14.98.43.27.27.4.6.4.98 0 .39-.13.72-.4.99s-.6.4-.98.4ZM37.06 114v-12h2.09v12h-2.1Zm14.51-12h2.07v11.5a5 5 0 0 1-1.8 4.12 6.56 6.56 0 0 1-4.32 1.5 7.4 7.4 0 0 1-3.48-.78 4.97 4.97 0 0 1-2.21-2.16l1.82-1.03c.66 1.35 1.96 2.02 3.91 2.02a4.1 4.1 0 0 0 2.93-.99 3.45 3.45 0 0 0 1.08-2.68v-1.7a5.1 5.1 0 0 1-4.5 2.4 5.85 5.85 0 0 1-4.35-1.83 6.13 6.13 0 0 1-1.78-4.44c0-1.75.6-3.22 1.78-4.42a5.83 5.83 0 0 1 4.34-1.82c1.97 0 3.47.79 4.51 2.37V102Zm-7.32 8.98a4.14 4.14 0 0 0 3.05 1.22c1.22 0 2.23-.4 3.05-1.22a4.14 4.14 0 0 0 1.22-3.05c0-1.2-.4-2.21-1.22-3.03a4.14 4.14 0 0 0-3.05-1.22c-1.22 0-2.23.4-3.05 1.22a4.1 4.1 0 0 0-1.22 3.03c0 1.21.4 2.23 1.22 3.05Zm17.8-9.3c1.41 0 2.54.46 3.39 1.35a4.97 4.97 0 0 1 1.27 3.6V114h-2.09v-7.25c0-.97-.26-1.73-.79-2.25a2.9 2.9 0 0 0-2.18-.82c-1.04 0-1.88.33-2.52.98-.64.64-.96 1.64-.96 2.98V114h-2.09V97.2h2.09v6.53a4.27 4.27 0 0 1 3.89-2.04ZM68.92 114V96.48H71V114h-2.1Zm5.6-14.18c-.4 0-.73-.14-1-.41-.27-.27-.4-.6-.4-.99 0-.38.13-.7.4-.98.27-.29.6-.43 1-.43s.72.14 1 .43c.26.27.4.6.4.98a1.36 1.36 0 0 1-1.4 1.39ZM73.47 114v-12h2.09v12h-2.09Zm14.51-12h2.07v11.5a5 5 0 0 1-1.8 4.12 6.56 6.56 0 0 1-4.32 1.5 7.4 7.4 0 0 1-3.48-.78 4.97 4.97 0 0 1-2.21-2.16l1.82-1.03c.66 1.35 1.96 2.02 3.92 2.02a4.1 4.1 0 0 0 2.92-.99 3.45 3.45 0 0 0 1.08-2.68v-1.7a5.1 5.1 0 0 1-4.5 2.4 5.85 5.85 0 0 1-4.35-1.83 6.13 6.13 0 0 1-1.78-4.44c0-1.75.6-3.22 1.78-4.42a5.83 5.83 0 0 1 4.34-1.82c1.97 0 3.47.79 4.51 2.37V102Zm-7.32 8.98a4.14 4.14 0 0 0 3.05 1.22c1.22 0 2.23-.4 3.05-1.22a4.14 4.14 0 0 0 1.22-3.05c0-1.2-.4-2.21-1.22-3.03a4.14 4.14 0 0 0-3.05-1.22c-1.21 0-2.23.4-3.05 1.22a4.1 4.1 0 0 0-1.22 3.03c0 1.21.4 2.23 1.22 3.05Zm17.8-9.3a4.5 4.5 0 0 1 3.4 1.35 4.97 4.97 0 0 1 1.26 3.6V114h-2.08v-7.25c0-.97-.27-1.73-.8-2.25a2.9 2.9 0 0 0-2.18-.82c-1.04 0-1.88.33-2.52.98-.64.64-.96 1.64-.96 2.98V114h-2.09V97.2h2.09v6.53a4.27 4.27 0 0 1 3.89-2.04Zm13.39 2.34h-3.2v6.5c0 .6.12 1.02.34 1.27.24.24.6.37 1.08.39.48 0 1.07-.02 1.78-.05V114c-1.83.24-3.16.1-4.01-.43-.85-.55-1.27-1.56-1.27-3.05v-6.5h-2.38V102h2.38v-2.74l2.08-.62V102h3.2v2.02Zm13.8.96h-2.72v4.99c0 .41.1.72.31.91.21.2.52.3.92.34.4.01.9 0 1.48-.03V114c-2.12.24-3.63.04-4.5-.6-.87-.64-1.3-1.78-1.3-3.43v-5h-2.1V102h2.1v-2.42l3.1-.94V102h2.7v2.98Zm3.7 4.3c.41 1.5 1.54 2.25 3.38 2.25 1.19 0 2.08-.4 2.7-1.2l2.49 1.44c-1.19 1.71-2.93 2.57-5.23 2.57-1.99 0-3.58-.6-4.78-1.8a6.15 6.15 0 0 1-1.8-4.54 6.16 6.16 0 0 1 6.34-6.34c1.75 0 3.2.61 4.34 1.83a6.3 6.3 0 0 1 1.73 4.51c0 .4-.04.82-.12 1.27h-9.05Zm-.05-2.4h6.12a2.88 2.88 0 0 0-1.1-1.83 3.1 3.1 0 0 0-1.88-.6 2.98 2.98 0 0 0-3.14 2.42Zm13.05-1.47c0 .32.2.58.62.79.43.2.95.37 1.56.53.6.14 1.22.33 1.82.57.61.23 1.12.61 1.54 1.16.43.54.65 1.22.65 2.04a3.3 3.3 0 0 1-1.4 2.85c-.9.66-2.05.99-3.43.99-2.46 0-4.14-.96-5.04-2.86l2.7-1.51c.34 1.04 1.13 1.56 2.34 1.56 1.1 0 1.66-.35 1.66-1.03 0-.32-.22-.58-.65-.77a7.5 7.5 0 0 0-1.53-.55c-.61-.16-1.22-.36-1.83-.6a3.88 3.88 0 0 1-1.56-1.13 3.08 3.08 0 0 1-.62-1.97c0-1.18.43-2.11 1.3-2.78a5.14 5.14 0 0 1 3.26-1.04c.97 0 1.86.23 2.66.68.8.43 1.43 1.05 1.9 1.87l-2.64 1.44a1.97 1.97 0 0 0-1.92-1.23c-.4 0-.74.1-1.01.27a.83.83 0 0 0-.38.72Zm13.97-.43h-2.71v4.99c0 .41.1.72.31.91.2.2.51.3.91.34.4.01.9 0 1.5-.03V114c-2.14.24-3.64.04-4.52-.6-.87-.64-1.3-1.78-1.3-3.43v-5h-2.09V102h2.1v-2.42l3.09-.94V102h2.71v2.98Zm3-4.42a1.88 1.88 0 0 1-1.9-1.9c0-.5.19-.96.56-1.34a1.85 1.85 0 0 1 2.68 0 1.84 1.84 0 0 1 0 2.69c-.37.37-.81.55-1.34.55ZM157.77 114v-12h3.1v12h-3.1Zm18.48-12.34c1.38 0 2.48.45 3.3 1.35.82.9 1.24 2.1 1.24 3.6V114h-3.1v-7.18c0-.72-.17-1.28-.52-1.68-.35-.4-.85-.6-1.5-.6-.7 0-1.25.24-1.65.7-.38.46-.57 1.14-.57 2.02V114h-3.1v-7.18c0-.72-.17-1.28-.53-1.68-.35-.4-.84-.6-1.48-.6-.7 0-1.25.24-1.66.7-.4.46-.6 1.14-.6 2.02V114h-3.1v-12h3.1v1.27c.72-1.07 1.83-1.6 3.33-1.6 1.48 0 2.56.57 3.27 1.72.8-1.15 2-1.73 3.57-1.73Zm16.68 10.85a6.18 6.18 0 0 1-4.52 1.83 6.13 6.13 0 0 1-4.5-1.83 6.18 6.18 0 0 1-1.83-4.51c0-1.78.6-3.27 1.82-4.49a6.14 6.14 0 0 1 4.51-1.85c1.78 0 3.28.62 4.52 1.85a6.06 6.06 0 0 1 1.84 4.49c0 1.78-.61 3.28-1.84 4.51Zm-6.84-2.13c.62.62 1.4.93 2.32.93a3.18 3.18 0 0 0 3.27-3.31 3.22 3.22 0 0 0-3.27-3.31 3.16 3.16 0 0 0-3.24 3.31c0 .96.3 1.75.92 2.38Zm16.81-8.72c1.31 0 2.4.44 3.24 1.32.87.88 1.3 2.1 1.3 3.65V114h-3.1v-6.98c0-.8-.21-1.41-.65-1.83-.43-.43-1-.65-1.72-.65-.8 0-1.44.25-1.92.75s-.72 1.24-.72 2.23V114h-3.1v-12h3.1v1.34c.75-1.12 1.94-1.68 3.57-1.68Zm8-1.1a1.88 1.88 0 0 1-1.9-1.9 1.92 1.92 0 0 1 1.9-1.92c.53 0 .97.2 1.34.58a1.84 1.84 0 0 1 0 2.69c-.37.37-.81.55-1.34.55ZM209.36 114v-12h3.1v12h-3.1Zm14.33-12h3.1v12h-3.1v-1.42a4.71 4.71 0 0 1-3.91 1.76 5.5 5.5 0 0 1-4.13-1.83 6.41 6.41 0 0 1-1.7-4.51c0-1.78.57-3.27 1.7-4.49a5.46 5.46 0 0 1 4.13-1.85c1.68 0 2.98.59 3.91 1.76V102Zm-5.71 8.45c.62.62 1.42.93 2.38.93s1.75-.3 2.37-.93c.64-.64.96-1.46.96-2.45 0-1-.32-1.8-.96-2.42a3.18 3.18 0 0 0-2.37-.96c-.96 0-1.76.32-2.38.96a3.28 3.28 0 0 0-.94 2.42c0 1 .32 1.8.94 2.45Zm10.9 3.55V96.48h3.1V114h-3.1Zm7.97-8.6c0 .33.2.6.62.8.43.2.95.37 1.56.53.6.14 1.22.33 1.82.57a3.37 3.37 0 0 1 2.19 3.2 3.3 3.3 0 0 1-1.4 2.85c-.9.66-2.05.99-3.42.99-2.47 0-4.15-.96-5.04-2.86l2.68-1.51c.35 1.04 1.14 1.56 2.35 1.56 1.1 0 1.66-.35 1.66-1.03 0-.32-.22-.58-.65-.77-.41-.21-.93-.4-1.53-.55-.61-.16-1.22-.36-1.83-.6a3.88 3.88 0 0 1-1.56-1.13 3.08 3.08 0 0 1-.62-1.97c0-1.18.43-2.11 1.3-2.78a5.14 5.14 0 0 1 3.26-1.04c.97 0 1.86.23 2.66.68.8.43 1.44 1.05 1.9 1.87l-2.64 1.44a1.97 1.97 0 0 0-1.92-1.23c-.4 0-.74.1-1 .27a.83.83 0 0 0-.4.72Zm22.96-3.4h2.09v12h-2.09v-2.06a5.1 5.1 0 0 1-4.53 2.37c-1.68 0-3.12-.6-4.3-1.82a6.24 6.24 0 0 1-1.78-4.49c0-1.76.6-3.25 1.78-4.46a5.74 5.74 0 0 1 4.3-1.85c1.98 0 3.5.79 4.53 2.37V102Zm-4.27 10.3a4.22 4.22 0 0 0 4.27-4.3c0-1.22-.4-2.23-1.22-3.05a4.1 4.1 0 0 0-3.05-1.25c-1.2 0-2.2.42-3.02 1.25a4.14 4.14 0 0 0-1.23 3.05 4.2 4.2 0 0 0 1.23 3.07 4.1 4.1 0 0 0 3.02 1.23Zm14.78-10.61c1.4 0 2.54.45 3.38 1.34a4.97 4.97 0 0 1 1.28 3.6V114h-2.1v-7.25c0-.97-.26-1.73-.78-2.25a2.9 2.9 0 0 0-2.19-.82c-1.04 0-1.88.33-2.52.98-.64.64-.96 1.64-.96 2.98V114h-2.09v-12h2.1v1.73a4.27 4.27 0 0 1 3.88-2.04Zm16.79-4.49h2.08V114h-2.08v-2.06a5.1 5.1 0 0 1-4.54 2.37c-1.68 0-3.11-.6-4.3-1.82a6.24 6.24 0 0 1-1.77-4.49c0-1.76.59-3.25 1.77-4.46a5.74 5.74 0 0 1 4.3-1.85c1.98 0 3.5.79 4.54 2.37V97.2Zm-4.28 15.1a4.22 4.22 0 0 0 4.27-4.3c0-1.22-.4-2.23-1.22-3.05a4.1 4.1 0 0 0-3.05-1.25c-1.2 0-2.2.42-3.02 1.25a4.14 4.14 0 0 0-1.22 3.05c0 1.22.4 2.24 1.22 3.07a4.1 4.1 0 0 0 3.02 1.23ZM30.53 133h3.1v12h-3.1v-1.42a4.71 4.71 0 0 1-3.9 1.76 5.5 5.5 0 0 1-4.13-1.83 6.41 6.41 0 0 1-1.7-4.51c0-1.78.56-3.27 1.7-4.49a5.46 5.46 0 0 1 4.12-1.85c1.68 0 2.99.59 3.92 1.76V133Zm-5.7 8.45c.62.62 1.41.93 2.37.93.96 0 1.75-.3 2.38-.93.64-.64.96-1.46.96-2.45 0-1-.32-1.8-.96-2.42a3.18 3.18 0 0 0-2.38-.96 3.2 3.2 0 0 0-2.38.96 3.28 3.28 0 0 0-.93 2.42c0 1 .31 1.8.93 2.45Zm16.6 3.89A6.16 6.16 0 0 1 35.1 139a6.17 6.17 0 0 1 6.33-6.34c1.17 0 2.23.28 3.2.84a5.59 5.59 0 0 1 2.18 2.26l-2.67 1.56a2.7 2.7 0 0 0-1.1-1.18 3.11 3.11 0 0 0-1.63-.43 3.18 3.18 0 0 0-3.22 3.29c0 .94.3 1.73.91 2.35.61.61 1.38.91 2.3.91a3.3 3.3 0 0 0 1.66-.4c.5-.3.87-.68 1.1-1.18l2.7 1.54a6.1 6.1 0 0 1-5.43 3.12Zm13.01-12.68c1.32 0 2.4.44 3.24 1.32.87.88 1.3 2.1 1.3 3.65V145h-3.1v-6.98c0-.8-.21-1.41-.64-1.83a2.36 2.36 0 0 0-1.73-.65c-.8 0-1.44.25-1.92.75s-.72 1.24-.72 2.23V145h-3.1v-16.8h3.1v6.14c.75-1.12 1.94-1.68 3.57-1.68Zm8-1.1a1.88 1.88 0 0 1-1.9-1.9c0-.5.19-.96.56-1.34a1.85 1.85 0 0 1 2.68 0 1.84 1.84 0 0 1 0 2.69 1.8 1.8 0 0 1-1.34.55ZM60.9 145v-12H64v12h-3.1Zm7.83-4.73c.42 1.5 1.54 2.26 3.38 2.26 1.19 0 2.08-.4 2.7-1.2l2.49 1.44c-1.19 1.71-2.93 2.57-5.23 2.57-1.99 0-3.58-.6-4.78-1.8a6.15 6.15 0 0 1-1.8-4.54 6.16 6.16 0 0 1 6.34-6.34c1.76 0 3.2.61 4.34 1.83A6.3 6.3 0 0 1 77.9 139c0 .4-.04.82-.12 1.27h-9.05Zm-.05-2.4h6.12a2.88 2.88 0 0 0-1.1-1.82 3.1 3.1 0 0 0-1.87-.6c-.84 0-1.52.21-2.07.65-.54.41-.9 1-1.08 1.77ZM86.77 133h3.4l-4.56 12H82.1l-4.56-12h3.4l2.9 8.4 2.94-8.4Zm6.32 7.27c.42 1.5 1.55 2.26 3.39 2.26 1.18 0 2.08-.4 2.69-1.2l2.5 1.44a6 6 0 0 1-5.24 2.57c-1.98 0-3.58-.6-4.78-1.8a6.15 6.15 0 0 1-1.8-4.54 6.16 6.16 0 0 1 6.34-6.34c1.76 0 3.2.61 4.34 1.83a6.3 6.3 0 0 1 1.73 4.51c0 .4-.04.82-.12 1.27H93.1Zm-.04-2.4h6.12a2.88 2.88 0 0 0-1.1-1.82c-.55-.4-1.18-.6-1.88-.6a2.98 2.98 0 0 0-3.14 2.42Zm23.93-5.2a4.2 4.2 0 0 1 3.28 1.34c.84.9 1.25 2.1 1.25 3.6V145h-3.1v-7.18c0-.72-.17-1.28-.52-1.68-.35-.4-.85-.6-1.49-.6-.7 0-1.26.24-1.66.7-.38.46-.57 1.14-.57 2.02V145h-3.1v-7.18c0-.72-.17-1.28-.53-1.68-.35-.4-.84-.6-1.48-.6-.7 0-1.24.24-1.66.7-.4.46-.6 1.14-.6 2.02V145h-3.1v-12h3.1v1.27c.72-1.07 1.83-1.6 3.34-1.6 1.47 0 2.56.57 3.26 1.72.8-1.15 2-1.73 3.58-1.73Zm9.06 7.6c.41 1.5 1.54 2.26 3.38 2.26 1.19 0 2.08-.4 2.69-1.2l2.5 1.44c-1.19 1.71-2.93 2.57-5.24 2.57-1.98 0-3.57-.6-4.77-1.8a6.15 6.15 0 0 1-1.8-4.54 6.16 6.16 0 0 1 6.33-6.34 5.7 5.7 0 0 1 4.35 1.83 6.3 6.3 0 0 1 1.73 4.51c0 .4-.04.82-.12 1.27h-9.05Zm-.05-2.4h6.12a2.88 2.88 0 0 0-1.1-1.82 3.1 3.1 0 0 0-1.88-.6 2.98 2.98 0 0 0-3.14 2.42Zm17.33-5.2c1.31 0 2.4.43 3.24 1.31.86.88 1.3 2.1 1.3 3.65V145h-3.1v-6.98c0-.8-.22-1.41-.65-1.83-.43-.43-1-.65-1.73-.65-.8 0-1.44.25-1.92.75s-.72 1.24-.72 2.23V145h-3.1v-12h3.1v1.34c.75-1.12 1.95-1.68 3.58-1.68Zm13.32 3.3h-2.7v5c0 .41.1.72.3.91.21.2.51.3.91.34.4.01.9 0 1.5-.03V145c-2.14.24-3.64.04-4.52-.6-.86-.64-1.3-1.78-1.3-3.43v-5h-2.08V133h2.09v-2.42l3.1-.94V133h2.7v2.98Zm4.06.44c0 .32.21.58.63.79.43.2.95.37 1.56.53.6.14 1.21.33 1.82.57.61.23 1.12.61 1.54 1.16.43.54.65 1.22.65 2.04a3.3 3.3 0 0 1-1.4 2.85c-.9.66-2.05.99-3.43.99-2.46 0-4.14-.96-5.04-2.86l2.69-1.51c.35 1.04 1.14 1.56 2.35 1.56 1.1 0 1.66-.35 1.66-1.03 0-.32-.22-.58-.65-.77-.42-.21-.93-.4-1.54-.55-.6-.16-1.21-.36-1.82-.6a3.88 3.88 0 0 1-1.56-1.13 3.08 3.08 0 0 1-.62-1.97c0-1.18.43-2.11 1.3-2.78a5.14 5.14 0 0 1 3.26-1.04c.97 0 1.86.23 2.66.68.8.43 1.43 1.05 1.9 1.87l-2.64 1.44a1.97 1.97 0 0 0-1.92-1.23c-.4 0-.74.1-1.01.27a.83.83 0 0 0-.39.72Zm23.16 7.08a6.15 6.15 0 0 1-4.49 1.82c-1.76 0-3.25-.6-4.49-1.82a6.1 6.1 0 0 1-1.82-4.49c0-1.78.6-3.27 1.82-4.49a6.15 6.15 0 0 1 4.5-1.82c1.75 0 3.25.6 4.48 1.82a6.06 6.06 0 0 1 1.85 4.49c0 1.78-.62 3.27-1.85 4.49Zm-4.49-.22c1.2 0 2.21-.4 3.03-1.22a4.14 4.14 0 0 0 1.22-3.05c0-1.22-.4-2.23-1.22-3.05a4.1 4.1 0 0 0-3.03-1.22c-1.18 0-2.18.4-3 1.22a4.14 4.14 0 0 0-1.22 3.05c0 1.22.4 2.23 1.22 3.05a4.08 4.08 0 0 0 3 1.22Zm14.06-10.58c1.4 0 2.53.45 3.38 1.34a4.97 4.97 0 0 1 1.27 3.6V145H196v-7.25c0-.97-.26-1.73-.79-2.25a2.9 2.9 0 0 0-2.18-.82c-1.04 0-1.88.33-2.52.98-.64.64-.96 1.64-.96 2.98V145h-2.1v-12h2.1v1.73a4.27 4.27 0 0 1 3.89-2.04Zm18.75 0c1.68 0 3.11.61 4.3 1.85a6.16 6.16 0 0 1 1.77 4.46c0 1.76-.59 3.26-1.77 4.49a5.78 5.78 0 0 1-4.3 1.82 5.1 5.1 0 0 1-4.54-2.37v6.86h-2.08V133h2.08v2.06a5.1 5.1 0 0 1 4.54-2.37Zm-.26 10.6c1.2 0 2.2-.4 3.02-1.22a4.22 4.22 0 0 0 1.22-3.07c0-1.22-.4-2.23-1.22-3.05a4.07 4.07 0 0 0-3.02-1.25 4.1 4.1 0 0 0-3.05 1.25 4.14 4.14 0 0 0-1.23 3.05 4.22 4.22 0 0 0 4.28 4.3Zm10.2-8.27c.68-1.5 1.93-2.24 3.74-2.24v2.19a3.78 3.78 0 0 0-2.64.81c-.74.6-1.1 1.55-1.1 2.86V145h-2.1v-12h2.1v2.02Zm14.53 8.47a6.15 6.15 0 0 1-4.49 1.82c-1.76 0-3.25-.6-4.49-1.82a6.1 6.1 0 0 1-1.82-4.49c0-1.78.6-3.27 1.82-4.49a6.15 6.15 0 0 1 4.5-1.82c1.75 0 3.25.6 4.48 1.82a6.06 6.06 0 0 1 1.85 4.49c0 1.78-.62 3.27-1.85 4.49Zm-4.49-.22c1.2 0 2.21-.4 3.03-1.22a4.14 4.14 0 0 0 1.22-3.05c0-1.22-.4-2.23-1.22-3.05a4.1 4.1 0 0 0-3.03-1.22c-1.18 0-2.18.4-3 1.22a4.14 4.14 0 0 0-1.22 3.05c0 1.22.4 2.23 1.22 3.05a4.08 4.08 0 0 0 3 1.22ZM249.32 133v12h-2.08v-9.98h-4.45V145h-2.08v-9.98h-1.92V133h1.92v-.36c0-3.17 1.75-4.75 5.25-4.75.66 0 1.48.1 2.47.31v1.9c-.97-.13-1.8-.2-2.47-.2-1.09 0-1.89.21-2.4.63-.5.4-.77 1.1-.77 2.11v.36h6.53Zm2.48 12v-17.52h2.09V145h-2.09Zm6.02-5.04a4 4 0 0 0 1.46 2.5c.79.59 1.75.88 2.88.88 1.59 0 2.74-.58 3.46-1.75l1.77 1.01c-1.16 1.8-2.92 2.71-5.27 2.71-1.9 0-3.46-.59-4.66-1.77a6.2 6.2 0 0 1-1.78-4.54 6.05 6.05 0 0 1 6.29-6.31c1.76 0 3.2.62 4.3 1.87a6.4 6.4 0 0 1 1.6 5.4h-10.05Zm4.15-5.3c-1.12 0-2.05.32-2.78.96a4.05 4.05 0 0 0-1.37 2.52h8.01a4 4 0 0 0-1.34-2.6 3.85 3.85 0 0 0-2.52-.88Z"/>
  <rect width="254" height="48" x="20" y="22" fill="#000" fill-opacity=".07" rx="24"/>
  <circle cx="48" cy="46" r="16" fill="#4AAAFE"/>
  <g fill-rule="evenodd" clip-path="url(#a)" clip-rule="evenodd">
    <path fill="#D08B5B" d="M59.74 67.02a75.56 75.56 0 0 1-.5-3.25c-.04-.25-.09-.53.08-.7.24-.26.45-.48.48-.85.03-.35-.1-.72-.16-1.06-.16-.7-.35-1.4-.56-2.08-.21-.7-.45-1.39-.69-2.08-.22-.64-.44-1.3-.73-1.91a5.62 5.62 0 0 0-2.63-2.63c-.29-.14-.87-.66-1.17-.77-.28-.1-.28.2-.55.08a1.11 1.11 0 0 1-.54-.42c-.13-.23-.46-.54-.5-.8-.11-.57 0-1.04-.4-1.46a2.9 2.9 0 0 0-1.32-.77c-1.09-.3-2.54-.09-3.2.92-.3.48-.41 1.06-.84 1.45-.36.34-.28.58-.76.75-.03.01-.76-.14-.79-.13-.52-.12-1.02.2-1.5.38-.71.27-1.4.62-2.03 1.04a12.6 12.6 0 0 0-3.3 3.17 15.51 15.51 0 0 0-2.47 5.18c-.05.2-.11.41-.05.62.06.17.18.3.32.4.2.14.58.23.57.5 0 .22-.08.44-.11.65l-.11.75a38.44 38.44 0 0 0-.35 6.84c0 .07.03.14.06.2-.03.01-.03.07 0 .08l.1.02c.06.05.13.08.22.08h.18a32.08 32.08 0 0 0 8.93.65 62.9 62.9 0 0 1 4.76-.06l4.76.14a54.8 54.8 0 0 0 5.32-.16c.24-.02.4-.21.34-.45-.28-1.44-.6-2.87-.86-4.32Z"/>
    <path fill="#EC7495" d="m43.46 51.69.04-.01c.47-.19.95-.48 1.46-.37l.58.1-.22.23-.38.07c1.32 2.16 2.87 3.24 4.66 3.24 1.8 0 3.15-1.08 4.08-3.24l.13-.04.05.02c.3.12.88.63 1.17.78a5.62 5.62 0 0 1 2.63 2.62c.29.6.5 1.23.71 1.85l.02.07c.24.69.48 1.38.69 2.07.2.66.39 1.32.54 2l.02.09c.07.33.19.7.16 1.05a.93.93 0 0 1-.1.35l-2.6.93 1.24 8.4a48.1 48.1 0 0 1-3.4.05c-1.59-.03-3.17-.1-4.76-.14a60.92 60.92 0 0 0-4.62.06l-.39.02c-1.5.07-3 .1-4.5-.04h-.1V70.6l.53-6.85-2.68-.5-2.63-1.27a.7.7 0 0 1-.18-.29c-.06-.19-.01-.38.04-.57l.01-.05a15.85 15.85 0 0 1 2.47-5.18 12.87 12.87 0 0 1 3.3-3.17c.64-.42 1.32-.77 2.03-1.04Z"/>
    <path fill="#000" d="M44.47 51.27c.16 0 .33.02.5.04v.02l-.87.23-.13.04c-.32.1-.64.2-.95.32-.63.26-1.22.6-1.77 1a14.13 14.13 0 0 0-4.6 6.2 16.9 16.9 0 0 0-.78 2.48c-.01.04-.06.17-.04.22.03.04.12.07.16.1l.15.07.82.41.07.04a9.6 9.6 0 0 0 3.9 1.14l.02-.12c.06-.65.14-1.3.32-1.93 0-.03.05-.02.05.01.1.74.07 1.5.04 2.24a263.9 263.9 0 0 1-.22 3.97l-.12 1.98c-.04.67-.06 1.35-.15 2-.02.15-.2.23-.32.21a.3.3 0 0 1-.26-.29c0-.38.05-.77.07-1.15l.08-1.09.33-3.96.13-1.41a10.3 10.3 0 0 1-4.13-1.22c-.01.43-.06.85-.1 1.28a101.15 101.15 0 0 0-.44 6.24l-.01.3v.22c0 .14-.02.28-.14.38-.13.1-.3.11-.41 0-.17-.15-.14-.35-.13-.55a53.47 53.47 0 0 1 .06-1.52c.06-1.18.18-2.35.34-3.52l.06-.45c.11-.84.24-1.7.5-2.51l-.3-.15-.53-.27a.6.6 0 0 1-.3-.35c-.04-.18.02-.37.07-.54v-.02a16.07 16.07 0 0 1 .86-2.57c.56-1.34 1.3-2.62 2.19-3.77a11.4 11.4 0 0 1 2.86-2.68 7.72 7.72 0 0 1 1.73-.82 4.6 4.6 0 0 1 1.39-.25Zm2.9-2.12c.2-.2.59 0 .5.28a3.48 3.48 0 0 1-1.12 1.68 2.57 2.57 0 0 1-1.8.6l.05.08c.45.6.92 1.2 1.49 1.69a4.8 4.8 0 0 0 4.26 1.16 3.56 3.56 0 0 0 2.56-2.45.25.25 0 0 1-.15.01c-.25-.05-.5-.31-.66-.5-.17-.2-.3-.42-.4-.67-.19-.45-.25-1.03 0-1.47.03-.05.1-.02.1.03l.02.08c.05.41.1.8.3 1.18a2.45 2.45 0 0 0 .59.75c.08.06.18.11.26.19l.01.01a.25.25 0 0 1 .25-.23c.1 0 .23.05.28.08a11 11 0 0 1 2.1 1.35 8.33 8.33 0 0 1 2.86 4.15c.24.82.38 1.66.53 2.5l.09.5c.13.77.29 1.56.6 2.28.07.19.01.36-.18.43l-.74.27c.12.51.2 1.04.29 1.56.19 1.1.42 2.19.62 3.28l.3 1.69.15.8.08.44v.03c.02.07.04.15.02.23-.03.09-.1.15-.16.21-.05.06-.12.06-.18.03l-.02-.01c-.11-.05-.2-.1-.24-.23l-.05-.25a22.3 22.3 0 0 1-.25-1.4l-.05-.3a35.25 35.25 0 0 1-.53-4.39l-.03-.34c-.03-.43-.08-.87-.08-1.3l-.15.05-.71.25c-.18.06-.4.2-.6.17a.36.36 0 0 1-.22-.1 48.45 48.45 0 0 0 .65 5.27 64.15 64.15 0 0 0 .34 1.85l.06.3c.02.12-.02.2-.08.3-.06.07-.16.11-.25.06-.12-.08-.18-.14-.21-.27l-.08-.37a51.68 51.68 0 0 1-.36-2.1 49.94 49.94 0 0 1-.54-7.55c0-.42.02-.85.05-1.28.03-.43.1-.85.15-1.28 0-.02.02-.02.02 0l.1 1.44.04 1.37.08 1.81a.31.31 0 0 1 .28-.1c.15-.03.31-.1.46-.15l.54-.18c.28-.1.56-.2.85-.28a21.8 21.8 0 0 1-.58-2.6l-.07-.4a17.1 17.1 0 0 0-.5-2.31 7.39 7.39 0 0 0-1.13-2.2 11.93 11.93 0 0 0-1.7-1.78c-.53-.47-1.09-.88-1.63-1.34a3.77 3.77 0 0 1-1.15 2.28 4.5 4.5 0 0 1-4.58.86 5.31 5.31 0 0 1-3.32-3.3c0-.03.03-.04.05-.02l.08.1c0-.01 0-.03.02-.03a4.17 4.17 0 0 0 1.5-.94 3.22 3.22 0 0 0 .69-1.07l.01-.03c.06-.17.1-.33.23-.46Z"/>
    <path fill="#D08B5B" d="M54.81 42.3c-.08-.99.04-2.02-.34-2.96-.67-1.56-2.53-2.08-3.98-2.68-.58-.17-2.53-.2-3.2-.42-1.55-.51-1.91-1.12-3.13-.15-.2.17-.34.35-.43.6-.02.1 0 .2.06.28a1.99 1.99 0 0 0-.47 2.07c.88 1.88.84 2.89.55 4.9-.37 1.88.48 2.57 1.9 3.6-.06.1-.07.25 0 .35 1.63 2.29 4.7 3.38 7.35 2.22 1.07-.48 1.54-1.61 1.82-2.64.31-1.15.41-2.36.15-3.54-.1-.54-.24-1.08-.28-1.63Z"/>
    <path fill="#9FD8E5" d="m43.12 39.5.97.64 3.48-3.66-1.16-.9s-2.1 1.54-2.51 1.95c-.41.41-.78 1.97-.78 1.97Z"/>
    <path fill="#000" d="M45.4 31.34c.2-.03.34.1.42.27l.08.18c.5-.24 1.2-.18 1.51.31.23.35.09.77 0 1.14l-.05.25c.1.06.19.19.18.31v.01l-.02.34a1.78 1.78 0 0 0 .33-.45c.27-.41.89-.05.66.4l-.14.24c-.06.11-.11.23-.15.35.1.05.19.15.2.3a.94.94 0 0 1-.48.87.34.34 0 0 1-.26.04l-.05.06c.12.1.23.22.33.34.28-.04.57-.06.85-.06a1.9 1.9 0 0 1 1.15-.1c.24.04.47.12.7.17.26.06.51.07.77.1.31.06.6.2.77.44.2 0 .4.09.57.2l1.17.75c.15.1.2.25.18.42v.01l-.01.08.03.04c.12.17.25.35.33.53a5.74 5.74 0 0 1 .75 1.6c.02.08.05.16.06.25.02.12-.01.2-.03.32l-.05.44c-.01.1-.1.14-.18.15a18.42 18.42 0 0 1 .15 1.78c.1.14.29.25.43.29.19.05.4 0 .57-.07.12-.05.21.1.16.2-.18.3-.56.3-.84.16a.8.8 0 0 1-.3-.24v.3l.01.1c.06 1.07.19 2.19-.02 3.26a4.1 4.1 0 0 1-3.75 3.37c-.98.06-1.8-.23-2.21-.4-.4-.16-.25-.49.03-.4.49.17 1.38.41 2.18.3 1.89-.24 3.49-1.18 3.32-5.24-.02-.57-.1-1.15-.1-1.72l-.04-1.69v-.2l-.05-.66c-.02-.1-.03-.18-.06-.26a3.87 3.87 0 0 0-.26-.68.19.19 0 0 1-.08.04 1 1 0 0 1-.9-.23.4.4 0 0 1-.09-.1c-.1 0-.2-.03-.26-.1-.07-.09-.09-.17-.06-.25v-.01a1.3 1.3 0 0 1-.44.54c-.3.2-.66.27-1.02.27a7.04 7.04 0 0 1-1.48-.17l-.01.01c-.33.32-.8.4-1.21.22a1.8 1.8 0 0 1-.63-.46l-.01.3v.04c-.03.18-.06.38-.2.51-.23.22-.55.13-.82-.01v.02l.22.72.01.05c.05.17.11.34.13.52.02.34-.2.68-.58.56-.2-.06-.36-.22-.51-.36l-.1-.08c.25.81.42 1.65.44 2.5 0 .05-.04.08-.08.08a.78.78 0 0 1-.32-.05h-.02a1.2 1.2 0 0 1-.48-.19c.03.1.05.22.04.34 0 .03-.05.04-.05 0a.89.89 0 0 0-.98-.63 1.1 1.1 0 0 0-.84.9c-.09.46.07 1 .38 1.36.14.16.32.3.54.34.1.01.2 0 .3-.02l.12-.05c.06-.02.12-.02.18-.05.12-.05.24.06.18.18a.53.53 0 0 1-.2.24l.17.25a5.73 5.73 0 0 0 .87.91l.07.06c.16.13.3.25.41.43.1.14-.02.34-.2.34-.52-.01-.9-.47-1.17-.87a2.27 2.27 0 0 1-.11-.19.4.4 0 0 1-.04.06l.03.08c.09.24-.3.4-.4.17a3.36 3.36 0 0 0-.29-.46.24.24 0 0 1-.15-.1 3.47 3.47 0 0 1-.26-.37 3.24 3.24 0 0 0-.14-.12l-.04.04a2 2 0 0 1-.22.37l-.02.02c-.17.22-.4.44-.67.5-.09 0-.17-.1-.1-.16.2-.18.43-.3.61-.5.09-.09.17-.2.24-.3l.01-.03.04-.06-.24-.16c-.22.19-.51.27-.76.43l-.02.02c-.23.15-.46-.18-.28-.36.2-.2.36-.44.53-.66a1.29 1.29 0 0 1-.13-.5l-.02-.16a.62.62 0 0 1-.36-.11l-.04-.03a1.2 1.2 0 0 1-.39.05c-.3 0-.43-.35-.24-.57.2-.23.54-.28.8-.17l.03-.01a.31.31 0 0 1 0-.16v-.03a.74.74 0 0 1-.1-.57l.03-.08a.57.57 0 0 1-.04-.17l-.01-.03a.46.46 0 0 1 .02-.56.4.4 0 0 1 0-.03.8.8 0 0 1-.02-.05c-.13-.13-.22-.28-.2-.47a.48.48 0 0 1 .12-.28.16.16 0 0 1 0-.11c-.1-.3-.1-.65-.01-.97a.44.44 0 0 1-.03-.16c.01-.24.22-.47.47-.46h.08a.65.65 0 0 1 .06-.2.13.13 0 0 1-.04-.02 2.2 2.2 0 0 1-.5.2c-.13.02-.26-.12-.18-.24l.12-.16c-.06 0-.13 0-.19.02-.12.01-.25-.07-.32-.18l-.29.28c-.23.23-.6.06-.63-.25a.54.54 0 0 1-.2-.1 3.3 3.3 0 0 1-1.2.28c-.3 0-.47-.34-.33-.58.1-.17.21-.31.34-.44-.2.06-.42.1-.64.14-.11.01-.28-.09-.33-.2-.18-.41-.16-.85.04-1.25l.03-.05.07-.16c-.26-.26-.28-.66-.14-1a.34.34 0 0 1-.04-.29c.1-.28.26-.54.46-.76a.82.82 0 0 1-.05-.12.96.96 0 0 1 .27-.97c.16-.14.35-.23.55-.29.08-.14.19-.28.31-.39l.02-.03c.2-.37.55-.56.93-.6a.38.38 0 0 1 .25-.33c.04-.13.1-.25.18-.35.12-.17.33-.25.52-.14l.3.2.15-.03h.02l.32-.02.4-.18a1.07 1.07 0 0 1 .6-.24 2.9 2.9 0 0 1 .96-.15v-.21c0-.2.15-.35.34-.38Zm-.23 15.58-.1.01.04.08.08.04a.66.66 0 0 1-.02-.13Zm-1.65-.5-.02.05-.01.01h.13-.01a.7.7 0 0 1-.09-.05Zm.9-1.8c.28.03.52.07.78.2h.02c.23.12.6.33.58.63-.01.08-.07.17-.17.17-.27-.02-.42-.3-.6-.46a3.1 3.1 0 0 0-.64-.46c-.03-.02-.01-.07.02-.07Zm-1.3-3.96c-.07 0-.04.07 0 .02v-.02Zm3.69-4.42c-.65.02-1.3.4-1.78.78a6.3 6.3 0 0 0-1.11 1.17c-.09.21-.16.43-.22.65l-.1.44v.05a.7.7 0 0 0-.06.15c.05.06.13.1.21.12.03 0 .05.02.07.04.07-.11.13-.23.16-.36.13-.22.28-.42.43-.62a7.4 7.4 0 0 1 1.42-1.46 4.7 4.7 0 0 1 1.39-.73 1.5 1.5 0 0 0-.41-.23Z"/>
    <path fill="#000" d="M51.87 48.2a1.31 1.31 0 0 1-.55-.43.25.25 0 0 1-.05-.2.29.29 0 0 1 .3-.23c.07 0 .13.04.18.11v.01c.09.12.2.21.32.27.12.06.26.09.4.07.26-.03.45-.17.64-.37a4.82 4.82 0 0 0 .13-.12h.09l.06.05c.02.02.03.05.02.08a.83.83 0 0 1-.27.52 1.21 1.21 0 0 1-1.27.23Zm.78-3.11c.25.14.62.49.36.85-.31.33-.76-.04-.98-.21-.2-.13-.43.2-.24.35 1.58 1.17 2.22-.96.99-1.17-.14-.02-.2.13-.13.18Zm-2.83-1.36c.02-.34.53-.41.58-.08.05.3 0 .56-.14.83-.13.25-.45.14-.47-.1-.03-.3.01-.45.03-.65Zm3.87-.15c.07-.1.18-.16.3-.12.38.11.27.65.13.92-.07.14-.3.18-.41.05-.18-.2-.26-.62-.04-.82l.02-.03Zm-3.43-1.31.06-.01c.18-.03.42-.07.55.09.07.07.1.22 0 .3-.17.13-.35.08-.55.1-.16 0-.32.03-.48.07-.35.1-.63.28-.93.48-.03.03-.07-.02-.06-.06.18-.33.5-.6.84-.77.18-.1.37-.17.57-.2Zm3.08-.15h.05c.5.11 1.16.32 1.4.82l-.01.1-.04.03-.03-.01c-.11-.03-.2-.07-.28-.11l-.1-.04a3.84 3.84 0 0 0-1.07-.3.3.3 0 0 1-.13-.06.22.22 0 0 1-.09-.13.23.23 0 0 1 .03-.19.24.24 0 0 1 .11-.1c.05-.02.1-.02.16-.01Z"/>
    <path fill="#000" d="M53.34 48.69c-.3-.27-.64-.8-1.07-.38-.11.12-.15.39-.32.44-.21.07-.43-.16-.5-.33-.3-.98.95-1.25 1.66-1.09.35.15.6.72.62 1.02 0 .2-.16.5-.4.34Zm2.26-1.5v-.04c-.14-.05-.25 0-.31.1l.01.07c-.05.1-.1.23-.16.32h-.04c-1.13.12-.58-1.06-1.72-1.35-.89-.14-2.48.02-2.9.94-.33 1.46-2 .44-2.55-.32a9.64 9.64 0 0 1-1.33-2.36c-.07-.18-.31-.05-.29.12-.34.67-.32 1.48-.4 2.22-.15 1.48-.29 3.54 1.09 4.45 1.79 2.01 6.26 2.73 8.32.87.72-1.53.63-3.4.28-5.02Z"/>
    <path fill="#000" d="M55.37 45.37c-.21.3-.62.39-.99.36-.8-.08-1.05-.99-1.08-1.7.54.16-.04-.91 1.8-1.03.64-.05.46.34.75.62a3 3 0 0 1-.48 1.75Zm-3.81-.68c-.48 2.2-3.07 1.68-3.34-.31.25-.18.19-.61.5-.77.5-.32 1.11-.3 1.67-.3.72.05.93.35 1.3.67a4.3 4.3 0 0 1-.13.7Zm4.84-2.05a4.4 4.4 0 0 0-.15-.04 1.26 1.26 0 0 0-.2-.04c-.92-.2-3.05.1-3.14.87-.29.1-.54.01-.88.02-.26-1.07-4.73-.92-4.95-.27-.2-.07-.51-.05-.75-.06a6.3 6.3 0 0 0-1.5.14c-.93.15-2.2.32-1.55 1.47.11.11.3.02.3-.13-.2-.55.28-.61.66-.77a6.32 6.32 0 0 1 2.85-.28.7.7 0 0 0 .3.2c.65.1.3.59.72.66-.08 1.66 1.95 2.58 3.13 1.48.47-.46.58-1.14.7-1.75.05-.01.09-.04.1-.09.15-.13.23-.26.5-.3a.9.9 0 0 1 .52.06l.02.05.05.05c-.27 1.66 1.03 2.71 2.33 1.85.57-.53.69-1.35.71-2.08a.22.22 0 0 0 .1-.24.32.32 0 0 1 .19-.36c.18-.09.14-.41-.06-.44Z"/>
  </g>
  <path fill="#000" d="M76.08 51.4c2.26 0 4.2-1.54 4.58-3.65.4-2.25-.98-3.9-3.57-3.9h-1.55l.8-2.85h4.6l.23-1.28h-5.8l-1.53 5.4h2.98c1.85 0 2.7 1.05 2.46 2.47a3.18 3.18 0 0 1-3.17 2.53c-1.5 0-2.41-1.18-2.13-2.85l-1.44-.1c-.33 2.42 1.16 4.23 3.54 4.23Zm5.28 3.28 7.4-14.96h-1.32l-7.41 14.96h1.33Zm10.67-3.28c2.26 0 4.2-1.54 4.58-3.65.4-2.25-.98-3.9-3.57-3.9H91.5l.8-2.85h4.6l.23-1.28h-5.8l-1.53 5.4h2.98c1.86 0 2.7 1.05 2.46 2.47a3.18 3.18 0 0 1-3.16 2.53c-1.5 0-2.42-1.18-2.13-2.85l-1.44-.1c-.34 2.42 1.15 4.23 3.53 4.23Zm11.5-10.08c-.15.27-.23.46-.26.64-.1.54.24.96.78.96.47 0 .85-.32.93-.78.1-.48-.16-.85-.55-.95l1.1-1.87-.65-.16-1.36 2.16Zm2.58 0c-.14.27-.22.46-.25.64-.1.54.24.96.8.96.46 0 .83-.32.93-.78.08-.48-.18-.85-.56-.95l1.1-1.87-.64-.16-1.38 2.16Zm9.35 9.68.22-1.28h-5.63l1.78-10h-1.46L108.4 51h7.07Zm5.53.32a5.03 5.03 0 0 0 4.96-4.27c.46-2.61-1.04-4.45-3.59-4.45a5.03 5.03 0 0 0-4.96 4.27c-.46 2.6 1.03 4.45 3.59 4.45Zm.05-1.2c-1.7 0-2.66-1.28-2.36-3.07a3.78 3.78 0 0 1 3.63-3.25c1.69 0 2.68 1.28 2.34 3.07a3.78 3.78 0 0 1-3.62 3.25ZM131 51l4.48-8.08h-1.37l-3.8 7.02h-.16l-1.3-7.02h-1.32l1.62 8.08H131Zm8.22.32a4.9 4.9 0 0 0 4.2-2.18l-1.05-.64a3.8 3.8 0 0 1-3.07 1.62c-1.58 0-2.53-1.04-2.45-2.67h7.1c.06-.18.09-.37.1-.48.45-2.53-1.04-4.37-3.52-4.37a4.96 4.96 0 0 0-4.9 4.16c-.46 2.64 1.06 4.56 3.6 4.56Zm-2.13-5.04a3.56 3.56 0 0 1 3.35-2.48c1.47 0 2.4.93 2.35 2.38l-5.7.1Zm12.03 5.04a3.9 3.9 0 0 0 3.14-1.52l.15-.05-.23 1.25h1.31l2.08-11.76h-1.3l-.87 4.88-.2.03c-.41-.96-1.39-1.55-2.71-1.55-2.3 0-4.37 1.8-4.8 4.27-.45 2.56 1.05 4.45 3.44 4.45Zm.2-1.2c-1.68 0-2.67-1.31-2.35-3.07a3.83 3.83 0 0 1 3.63-3.25c1.68 0 2.65 1.33 2.33 3.07a3.8 3.8 0 0 1-3.61 3.25Zm13.5 1.18c.36 0 .88-.06 1.27-.19l.13-1.09a4 4 0 0 1-1.03.16c-.72 0-1.07-.5-.91-1.28l.86-4.92h2.05l.18-1.06h-2.05l.48-2.6h-1.04l-.75 2.6h-1.3l-.17 1.06h1.3l-.87 4.9c-.26 1.43.46 2.42 1.85 2.42Zm4.58-.3.81-4.67a3.19 3.19 0 0 1 3.04-2.53c1.33 0 1.92.93 1.7 2.3l-.88 4.9h1.31l.86-4.82c.36-2.04-.72-3.58-2.78-3.58-1.02 0-1.98.46-2.69 1.31l-.14.03.83-4.7h-1.31L166.08 51h1.32Zm12.17.32a4.9 4.9 0 0 0 4.19-2.18l-1.04-.64a3.8 3.8 0 0 1-3.07 1.62c-1.59 0-2.53-1.04-2.45-2.67h7.09c.06-.18.1-.37.1-.48.46-2.53-1.03-4.37-3.51-4.37a4.96 4.96 0 0 0-4.9 4.16c-.46 2.64 1.06 4.56 3.59 4.56Zm-2.13-5.04a3.56 3.56 0 0 1 3.34-2.48c1.47 0 2.4.93 2.35 2.38l-5.7.1Zm15.53 5.04c2 0 3.35-.86 3.63-2.42.34-1.96-1.35-2.4-2.88-2.57-1.12-.16-2.14-.2-1.96-1.15.14-.88 1.09-1.46 2.28-1.46 1.19 0 1.9.58 1.72 1.57l1.28.1c.3-1.69-.91-2.79-2.95-2.79-1.87 0-3.3.91-3.56 2.43-.34 1.9 1.34 2.34 2.86 2.5 1.12.17 2.18.2 1.98 1.21-.14.92-1.05 1.46-2.3 1.46-1.47 0-2.2-.74-1.98-1.89l-1.27-.1c-.33 1.93.83 3.11 3.15 3.11Zm9.27 0a4.9 4.9 0 0 0 4.19-2.18l-1.04-.64a3.8 3.8 0 0 1-3.07 1.62c-1.59 0-2.53-1.04-2.45-2.67h7.09c.06-.18.1-.37.11-.48.45-2.53-1.04-4.37-3.52-4.37a4.96 4.96 0 0 0-4.9 4.16c-.46 2.64 1.06 4.56 3.59 4.56Zm-2.13-5.04a3.56 3.56 0 0 1 3.34-2.48c1.48 0 2.4.93 2.36 2.38l-5.7.1Zm11.57 5.04c2 0 3.34-.86 3.63-2.42.33-1.96-1.36-2.4-2.88-2.57-1.12-.16-2.15-.2-1.97-1.15.14-.88 1.09-1.46 2.29-1.46 1.18 0 1.89.58 1.71 1.57l1.28.1c.3-1.69-.91-2.79-2.94-2.79-1.88 0-3.3.91-3.57 2.43-.34 1.9 1.34 2.34 2.86 2.5 1.12.17 2.18.2 1.99 1.21-.15.92-1.06 1.46-2.3 1.46-1.48 0-2.2-.74-2-1.89l-1.26-.1c-.33 1.93.84 3.11 3.16 3.11Zm8.64 0c2 0 3.34-.86 3.63-2.42.34-1.96-1.36-2.4-2.88-2.57-1.12-.16-2.14-.2-1.97-1.15.15-.88 1.09-1.46 2.29-1.46 1.18 0 1.89.58 1.71 1.57l1.28.1c.3-1.69-.91-2.79-2.94-2.79-1.88 0-3.3.91-3.57 2.43-.34 1.9 1.34 2.34 2.86 2.5 1.12.17 2.18.2 1.99 1.21-.15.92-1.06 1.46-2.3 1.46-1.48 0-2.2-.74-2-1.89l-1.25-.1c-.34 1.93.83 3.11 3.15 3.11Zm7.9-9.94c.51 0 .93-.35 1.03-.86.1-.6-.26-1.02-.85-1.02a.98.98 0 0 0-1.01.84c-.11.61.24 1.04.83 1.04ZM227.1 51l1.43-8.08h-1.32L225.8 51h1.31Zm6.47.32a5.03 5.03 0 0 0 4.96-4.27c.46-2.61-1.04-4.45-3.59-4.45a5.03 5.03 0 0 0-4.96 4.27c-.46 2.6 1.03 4.45 3.59 4.45Zm.04-1.2c-1.7 0-2.65-1.28-2.35-3.07a3.78 3.78 0 0 1 3.63-3.25c1.68 0 2.68 1.28 2.34 3.07a3.78 3.78 0 0 1-3.62 3.25Zm7.57.88.81-4.67a3.19 3.19 0 0 1 3.03-2.51c1.34 0 1.93.94 1.7 2.32l-.87 4.86h1.31l.85-4.78c.37-2.05-.7-3.6-2.78-3.6-1.01 0-1.97.46-2.68 1.36l-.16.04.21-1.1h-1.33l-1.4 8.08h1.3Zm10.79-10.2c.16-.28.24-.47.25-.65.11-.54-.22-.96-.77-.96a.92.92 0 0 0-.92.79c-.1.48.14.84.54.94l-1.1 1.87.65.16 1.35-2.16Zm2.59 0c.16-.28.22-.47.25-.65.1-.54-.24-.96-.78-.96a.9.9 0 0 0-.93.79c-.1.48.16.84.55.94l-1.1 1.87.65.16 1.36-2.16Z"/>
  <defs>
    <clipPath id="a">
      <rect width="32" height="32" x="32" y="30" fill="#fff" rx="16"/>
    </clipPath>
  </defs>
</svg>
