<svg xmlns="http://www.w3.org/2000/svg" fill="none" viewBox="0 0 328 180">
  <rect width="328" height="180" fill="#fff" rx="40"/>
  <path fill="#2D0A09" d="M21.35 74v-5.15l11.95-12.3c2.67-2.8 4-5.13 4-7A4.37 4.37 0 0 0 32.75 45c-2.63 0-4.58 1.37-5.85 4.1l-5.8-3.4c1.1-2.4 2.68-4.23 4.75-5.5a12.76 12.76 0 0 1 6.8-1.9c3.17 0 5.88 1 8.15 3 2.27 1.97 3.4 4.63 3.4 8 0 3.63-1.92 7.37-5.75 11.2l-6.85 6.85h13.15V74h-23.4Zm51.38-12.35v6.4h-3.75V74h-6.95v-5.95H45.48v-6.4L57.13 39h7.4l-11.6 22.65h9.1v-8.3h6.95v8.3h3.75Zm13.41-9.2a8.23 8.23 0 0 1-6 2.35 8.3 8.3 0 0 1-6.05-2.4 7.96 7.96 0 0 1-2.4-5.85c0-2.3.8-4.25 2.4-5.85a8.3 8.3 0 0 1 6.05-2.4c2.4 0 4.4.8 6 2.4a7.86 7.86 0 0 1 2.4 5.85c0 2.33-.8 4.3-2.4 5.9ZM75.24 68.7l22.8-25.35 3.05 1.7-22.85 25.4-3-1.75Zm2.6-19.85c.6.6 1.35.9 2.25.9.9 0 1.65-.3 2.25-.9.6-.63.9-1.4.9-2.3a3.05 3.05 0 0 0-3.15-3.15c-.9 0-1.65.3-2.25.9-.57.6-.85 1.35-.85 2.25 0 .9.28 1.67.85 2.3Zm25.2 23.35a8.14 8.14 0 0 1-6 2.4c-2.4 0-4.4-.8-6-2.4a7.96 7.96 0 0 1-2.4-5.85c0-2.3.8-4.25 2.4-5.85 1.6-1.6 3.6-2.4 6-2.4s4.4.8 6 2.4a7.96 7.96 0 0 1 2.4 5.85c0 2.3-.8 4.25-2.4 5.85Zm-8.25-3.55c.6.6 1.35.9 2.25.9.9 0 1.63-.32 2.2-.95.6-.63.9-1.38.9-2.25 0-.9-.3-1.65-.9-2.25a2.82 2.82 0 0 0-2.2-.95c-.9 0-1.65.32-2.25.95-.57.6-.85 1.35-.85 2.25 0 .9.28 1.67.85 2.3Z"/>
  <path fill="#141414" d="M26.84 102.74c1.4 0 2.6.51 3.58 1.54A5.13 5.13 0 0 1 31.9 108a5.2 5.2 0 0 1-1.48 3.74 4.81 4.81 0 0 1-3.58 1.52 4.24 4.24 0 0 1-3.78-1.98V113h-1.74V99h1.74v5.72a4.24 4.24 0 0 1 3.78-1.98Zm-.22 8.84c1 0 1.84-.34 2.52-1.02a3.51 3.51 0 0 0 1.02-2.56c0-1.01-.34-1.86-1.02-2.54a3.4 3.4 0 0 0-2.52-1.04c-1.01 0-1.86.35-2.54 1.04a3.45 3.45 0 0 0-1.02 2.54 3.51 3.51 0 0 0 3.56 3.58Zm7.98-2.78c.17.9.58 1.59 1.22 2.08.65.5 1.45.74 2.4.74 1.32 0 2.28-.49 2.88-1.46l1.48.84a4.89 4.89 0 0 1-4.4 2.26c-1.59 0-2.88-.5-3.88-1.48a5.16 5.16 0 0 1-1.48-3.78 5.04 5.04 0 0 1 5.24-5.26c1.46 0 2.66.52 3.58 1.56a5.34 5.34 0 0 1 1.34 4.5H34.6Zm3.46-4.42a3.32 3.32 0 0 0-3.46 2.9h6.68a3.33 3.33 0 0 0-1.12-2.16 3.2 3.2 0 0 0-2.1-.74Zm11.52.3h-2.66v5.42c0 .5.1.85.28 1.06.2.2.5.3.9.32.4 0 .9-.01 1.48-.04V113c-1.52.2-2.63.08-3.34-.36-.7-.45-1.06-1.3-1.06-2.54v-5.42H43.2V103h1.98v-2.28l1.74-.52v2.8h2.66v1.68Zm6.38 0H53.3v5.42c0 .5.09.85.28 1.06.2.2.5.3.9.32.4 0 .89-.01 1.48-.04V113c-1.52.2-2.64.08-3.34-.36-.71-.45-1.06-1.3-1.06-2.54v-5.42h-1.98V103h1.98v-2.28l1.74-.52v2.8h2.66v1.68Zm2.17 4.12c.17.9.58 1.59 1.22 2.08.65.5 1.45.74 2.4.74 1.32 0 2.28-.49 2.88-1.46l1.48.84a4.89 4.89 0 0 1-4.4 2.26c-1.59 0-2.88-.5-3.88-1.48a5.16 5.16 0 0 1-1.48-3.78 5.04 5.04 0 0 1 5.24-5.26c1.46 0 2.66.52 3.58 1.56a5.34 5.34 0 0 1 1.34 4.5h-8.38Zm3.46-4.42a3.32 3.32 0 0 0-3.46 2.9h6.68a3.33 3.33 0 0 0-1.12-2.16 3.2 3.2 0 0 0-2.1-.74Zm8.12.3c.57-1.24 1.61-1.86 3.12-1.86v1.82a3.15 3.15 0 0 0-2.2.68c-.61.5-.92 1.29-.92 2.38v5.3h-1.74v-10h1.74v1.68Zm13.32 8.58a5.1 5.1 0 0 1-5.26-5.26c0-1.5.5-2.74 1.5-3.74a5.07 5.07 0 0 1 3.76-1.52 5 5 0 0 1 2.66.72 4.4 4.4 0 0 1 1.76 1.9l-1.46.84a2.95 2.95 0 0 0-1.18-1.28 3.33 3.33 0 0 0-1.78-.48 3.48 3.48 0 0 0-3.52 3.56 3.46 3.46 0 0 0 3.52 3.54 3.26 3.26 0 0 0 3.02-1.74l1.48.86a4.93 4.93 0 0 1-1.84 1.9c-.8.47-1.69.7-2.66.7Zm13.92-1.52a5.13 5.13 0 0 1-3.74 1.52c-1.46 0-2.71-.5-3.74-1.52a5.08 5.08 0 0 1-1.52-3.74c0-1.48.5-2.73 1.52-3.74a5.13 5.13 0 0 1 3.74-1.52c1.47 0 2.72.5 3.74 1.52A5.05 5.05 0 0 1 98.5 108c0 1.48-.51 2.73-1.54 3.74Zm-3.74-.18c1 0 1.84-.34 2.52-1.02a3.45 3.45 0 0 0 1.02-2.54c0-1.01-.34-1.86-1.02-2.54a3.42 3.42 0 0 0-2.52-1.02 3.4 3.4 0 0 0-2.5 1.02A3.45 3.45 0 0 0 89.7 108c0 1.01.34 1.86 1.02 2.54a3.4 3.4 0 0 0 2.5 1.02Zm11.71-8.82a3.7 3.7 0 0 1 2.82 1.12 4.12 4.12 0 0 1 1.06 3V113h-1.74v-6.04c0-.81-.22-1.44-.66-1.88a2.42 2.42 0 0 0-1.82-.68 2.8 2.8 0 0 0-2.1.82c-.53.53-.8 1.36-.8 2.48v5.3h-1.74v-10h1.74v1.44a3.56 3.56 0 0 1 3.24-1.7Zm12.58.26h1.88l-4 10h-2.04l-4-10h1.88l3.14 8.14 3.14-8.14Zm3.58 5.8c.17.9.58 1.59 1.22 2.08.65.5 1.45.74 2.4.74 1.32 0 2.28-.49 2.88-1.46l1.48.84a4.89 4.89 0 0 1-4.4 2.26c-1.59 0-2.88-.5-3.88-1.48a5.16 5.16 0 0 1-1.48-3.78 5.04 5.04 0 0 1 5.24-5.26c1.46 0 2.66.52 3.58 1.56a5.34 5.34 0 0 1 1.34 4.5h-8.38Zm3.46-4.42a3.32 3.32 0 0 0-3.46 2.9h6.68a3.33 3.33 0 0 0-1.12-2.16 3.2 3.2 0 0 0-2.1-.74Zm8.12.3c.57-1.24 1.61-1.86 3.12-1.86v1.82a3.15 3.15 0 0 0-2.2.68c-.62.5-.92 1.29-.92 2.38v5.3h-1.74v-10h1.74v1.68Zm5.35 1.02c0 .39.2.7.58.94.38.23.85.41 1.4.56.54.13 1.1.3 1.64.48.55.17 1.01.48 1.4.92.38.43.58.98.58 1.66 0 .9-.36 1.63-1.06 2.18a4.2 4.2 0 0 1-2.68.82c-.97 0-1.8-.21-2.5-.64-.7-.43-1.19-1-1.48-1.7l1.5-.86c.16.48.46.86.9 1.14.44.28.97.42 1.58.42.57 0 1.04-.1 1.42-.32.37-.23.56-.57.56-1.04 0-.39-.2-.7-.58-.92a4.78 4.78 0 0 0-1.4-.56 23.8 23.8 0 0 1-1.64-.5 3.3 3.3 0 0 1-1.4-.92 2.35 2.35 0 0 1-.58-1.64c0-.87.33-1.58 1-2.14a3.86 3.86 0 0 1 2.54-.84c.81 0 1.53.19 2.16.56.64.36 1.12.87 1.44 1.52l-1.46.82c-.36-.85-1.08-1.28-2.14-1.28-.5 0-.91.12-1.26.36a1.1 1.1 0 0 0-.52.98Zm7.84-4.52c-.33 0-.61-.11-.84-.34-.23-.23-.34-.5-.34-.82 0-.32.11-.6.34-.82.23-.24.5-.36.84-.36.32 0 .6.12.82.36.23.23.34.5.34.82 0 .32-.11.6-.34.82-.23.23-.5.34-.82.34Zm-.88 11.82v-10h1.74v10h-1.74Zm12.24-1.26a5.13 5.13 0 0 1-3.75 1.52c-1.46 0-2.7-.5-3.74-1.52a5.08 5.08 0 0 1-1.51-3.74c0-1.48.5-2.73 1.51-3.74a5.13 5.13 0 0 1 3.75-1.52c1.46 0 2.7.5 3.74 1.52a5.05 5.05 0 0 1 1.53 3.74c0 1.48-.5 2.73-1.53 3.74Zm-3.75-.18c1 0 1.84-.34 2.53-1.02A3.45 3.45 0 0 0 157 108c0-1.01-.34-1.86-1.01-2.54a3.42 3.42 0 0 0-2.53-1.02 3.4 3.4 0 0 0-2.5 1.02 3.45 3.45 0 0 0-1.02 2.54c0 1.01.34 1.86 1.03 2.54a3.4 3.4 0 0 0 2.5 1.02Zm11.72-8.82a3.7 3.7 0 0 1 2.82 1.12c.7.73 1.06 1.73 1.06 3V113h-1.74v-6.04c0-.81-.22-1.44-.66-1.88a2.42 2.42 0 0 0-1.82-.68 2.8 2.8 0 0 0-2.1.82c-.54.53-.8 1.36-.8 2.48v5.3h-1.74v-10h1.74v1.44a3.55 3.55 0 0 1 3.24-1.7Zm7.2 2.96c0 .39.2.7.59.94.38.23.85.41 1.4.56.54.13 1.09.3 1.64.48.54.17 1 .48 1.4.92.38.43.58.98.58 1.66 0 .9-.36 1.63-1.06 2.18a4.2 4.2 0 0 1-2.68.82c-.98 0-1.81-.21-2.5-.64-.7-.43-1.2-1-1.48-1.7l1.5-.86c.16.48.46.86.9 1.14.44.28.96.42 1.58.42.57 0 1.04-.1 1.42-.32.37-.23.56-.57.56-1.04 0-.39-.2-.7-.58-.92a4.8 4.8 0 0 0-1.4-.56 23.8 23.8 0 0 1-1.64-.5 3.3 3.3 0 0 1-1.4-.92 2.35 2.35 0 0 1-.58-1.64c0-.87.33-1.58 1-2.14a3.86 3.86 0 0 1 2.54-.84c.8 0 1.53.19 2.16.56.64.36 1.12.87 1.44 1.52l-1.46.82c-.36-.85-1.08-1.28-2.14-1.28-.5 0-.92.12-1.26.36a1.1 1.1 0 0 0-.52.98Zm18.37-2.7h1.74v10h-1.74v-1.44a3.56 3.56 0 0 1-3.24 1.7 3.73 3.73 0 0 1-2.82-1.1 4.21 4.21 0 0 1-1.06-3.02V103h1.74v6.04c0 .81.22 1.45.66 1.9.44.44 1.04.66 1.82.66.86 0 1.56-.27 2.1-.8.53-.55.8-1.38.8-2.5V103Zm5.26 2.7c0 .39.2.7.59.94.38.23.85.41 1.4.56.54.13 1.09.3 1.63.48a3 3 0 0 1 1.4.92c.4.43.59.98.59 1.66 0 .9-.36 1.63-1.06 2.18a4.2 4.2 0 0 1-2.69.82c-.97 0-1.8-.21-2.5-.64a3.6 3.6 0 0 1-1.47-1.7l1.5-.86c.16.48.45.86.9 1.14.44.28.96.42 1.57.42.58 0 1.05-.1 1.42-.32.38-.23.56-.57.56-1.04 0-.39-.19-.7-.57-.92a4.78 4.78 0 0 0-1.4-.56 23.8 23.8 0 0 1-1.64-.5 3.3 3.3 0 0 1-1.4-.92 2.35 2.35 0 0 1-.59-1.64c0-.87.34-1.58 1-2.14a3.86 3.86 0 0 1 2.54-.84c.82 0 1.54.19 2.17.56.63.36 1.11.87 1.44 1.52l-1.47.82c-.36-.85-1.07-1.28-2.14-1.28-.49 0-.9.12-1.25.36a1.1 1.1 0 0 0-.53.98Zm7.85-4.52a1.1 1.1 0 0 1-.84-.34c-.23-.23-.34-.5-.34-.82 0-.32.11-.6.34-.82.22-.24.5-.36.84-.36.32 0 .6.12.82.36a1.15 1.15 0 0 1 0 1.64c-.23.23-.5.34-.82.34Zm-.88 11.82v-10h1.74v10h-1.74Zm8.77-10.26a3.7 3.7 0 0 1 2.82 1.12c.7.73 1.06 1.73 1.06 3V113h-1.74v-6.04c0-.81-.22-1.44-.66-1.88a2.42 2.42 0 0 0-1.82-.68 2.8 2.8 0 0 0-2.1.82c-.53.53-.8 1.36-.8 2.48v5.3h-1.74v-10h1.74v1.44a3.56 3.56 0 0 1 3.24-1.7Zm14.01.26h1.72v9.58c0 1.48-.5 2.63-1.5 3.44-1 .83-2.2 1.24-3.6 1.24a6.16 6.16 0 0 1-2.9-.64 4.14 4.14 0 0 1-1.84-1.8l1.52-.86c.55 1.12 1.63 1.68 3.26 1.68 1.04 0 1.86-.27 2.44-.82.6-.55.9-1.3.9-2.24v-1.42a4.24 4.24 0 0 1-3.76 2c-1.43 0-2.63-.5-3.62-1.52a5.1 5.1 0 0 1-1.48-3.7c0-1.45.5-2.68 1.48-3.68a4.86 4.86 0 0 1 3.62-1.52c1.64 0 2.9.66 3.76 1.98V103Zm-6.1 7.48a3.45 3.45 0 0 0 2.54 1.02c1.02 0 1.86-.34 2.54-1.02a3.45 3.45 0 0 0 1.02-2.54c0-1-.34-1.84-1.02-2.52a3.45 3.45 0 0 0-2.54-1.02c-1.01 0-1.86.34-2.54 1.02a3.42 3.42 0 0 0-1.02 2.52c0 1.01.34 1.86 1.02 2.54ZM22.54 134.8c.17.9.58 1.59 1.22 2.08.65.5 1.45.74 2.4.74 1.32 0 2.28-.49 2.88-1.46l1.48.84a4.89 4.89 0 0 1-4.4 2.26c-1.59 0-2.88-.5-3.88-1.48a5.16 5.16 0 0 1-1.48-3.78 5.04 5.04 0 0 1 5.24-5.26c1.47 0 2.66.52 3.58 1.56a5.34 5.34 0 0 1 1.34 4.5h-8.38Zm3.46-4.42c-.93 0-1.7.27-2.32.8-.61.52-1 1.22-1.14 2.1h6.68a3.33 3.33 0 0 0-1.12-2.16 3.2 3.2 0 0 0-2.1-.74Zm17.18-1.64c1.12 0 2.03.37 2.72 1.1.7.72 1.04 1.7 1.04 2.94V139H45.2v-6.16c0-.77-.2-1.37-.6-1.8-.4-.43-.93-.64-1.6-.64a2.3 2.3 0 0 0-1.8.76c-.44.5-.66 1.25-.66 2.28V139H38.8v-6.16c0-.77-.2-1.37-.58-1.8a1.94 1.94 0 0 0-1.54-.64c-.73 0-1.35.25-1.84.76-.48.5-.72 1.27-.72 2.28V139h-1.74v-10h1.74v1.34a3.32 3.32 0 0 1 2.98-1.6 3.1 3.1 0 0 1 2.94 1.7 3.44 3.44 0 0 1 3.14-1.7Zm13.85.26h1.74v10h-1.74v-1.72a4.24 4.24 0 0 1-3.78 1.98 4.8 4.8 0 0 1-3.58-1.52A5.2 5.2 0 0 1 48.2 134c0-1.47.5-2.7 1.48-3.72a4.78 4.78 0 0 1 3.58-1.54c1.66 0 2.92.66 3.78 1.98V129Zm-3.56 8.58a3.51 3.51 0 0 0 3.56-3.58c0-1.01-.34-1.86-1.02-2.54a3.41 3.41 0 0 0-2.54-1.04c-1 0-1.84.35-2.52 1.04a3.45 3.45 0 0 0-1.02 2.54c0 1.01.34 1.87 1.02 2.56a3.42 3.42 0 0 0 2.52 1.02Zm8.22-10.4c-.33 0-.61-.11-.84-.34-.23-.23-.34-.5-.34-.82 0-.32.11-.6.34-.82.23-.24.5-.36.84-.36.32 0 .6.12.82.36.23.23.34.5.34.82 0 .32-.11.6-.34.82-.23.23-.5.34-.82.34ZM60.8 139v-10h1.74v10H60.8Zm3.8 0v-14.6h1.73V139H64.6Zm16.47-10h1.74v10h-1.74v-1.72a4.24 4.24 0 0 1-3.78 1.98c-1.4 0-2.6-.5-3.58-1.52a5.2 5.2 0 0 1-1.48-3.74c0-1.47.5-2.7 1.48-3.72a4.78 4.78 0 0 1 3.58-1.54c1.65 0 2.91.66 3.78 1.98V129Zm-3.56 8.58a3.51 3.51 0 0 0 3.56-3.58c0-1.01-.34-1.86-1.02-2.54a3.41 3.41 0 0 0-2.54-1.04c-1 0-1.84.35-2.52 1.04a3.45 3.45 0 0 0-1.02 2.54c0 1.01.34 1.87 1.02 2.56a3.42 3.42 0 0 0 2.52 1.02ZM91.75 129h1.74v10h-1.74v-1.44a3.56 3.56 0 0 1-3.24 1.7 3.74 3.74 0 0 1-2.82-1.1 4.21 4.21 0 0 1-1.06-3.02V129h1.74v6.04c0 .81.22 1.45.66 1.9.44.44 1.05.66 1.82.66.87 0 1.57-.27 2.1-.8.54-.55.8-1.38.8-2.5V129Zm9.23 1.68h-2.66v5.42c0 .5.1.85.28 1.06.2.2.5.3.9.32.4 0 .9-.01 1.48-.04V139c-1.52.2-2.63.08-3.34-.36-.7-.45-1.06-1.3-1.06-2.54v-5.42H94.6V129h1.98v-2.28l1.74-.52v2.8h2.66v1.68Zm9.4 7.06a5.13 5.13 0 0 1-3.74 1.52c-1.47 0-2.72-.5-3.74-1.52a5.08 5.08 0 0 1-1.52-3.74c0-1.48.5-2.73 1.52-3.74a5.13 5.13 0 0 1 3.74-1.52c1.46 0 2.7.5 3.74 1.52a5.05 5.05 0 0 1 1.54 3.74c0 1.48-.52 2.73-1.54 3.74Zm-3.74-.18c1 0 1.84-.34 2.52-1.02a3.45 3.45 0 0 0 1.02-2.54c0-1.01-.34-1.86-1.02-2.54a3.42 3.42 0 0 0-2.52-1.02 3.4 3.4 0 0 0-2.5 1.02 3.45 3.45 0 0 0-1.02 2.54c0 1.01.34 1.86 1.02 2.54a3.4 3.4 0 0 0 2.5 1.02Zm17.53-8.82a3.6 3.6 0 0 1 2.72 1.1c.69.72 1.04 1.7 1.04 2.94V139h-1.74v-6.16c0-.77-.2-1.37-.6-1.8-.4-.43-.94-.64-1.6-.64a2.3 2.3 0 0 0-1.8.76c-.44.5-.66 1.25-.66 2.28V139h-1.74v-6.16c0-.77-.2-1.37-.58-1.8a1.94 1.94 0 0 0-1.54-.64c-.74 0-1.35.25-1.84.76-.48.5-.72 1.27-.72 2.28V139h-1.74v-10h1.74v1.34a3.32 3.32 0 0 1 2.98-1.6 3.1 3.1 0 0 1 2.94 1.7 3.44 3.44 0 0 1 3.14-1.7Zm13.85.26h1.74v10h-1.74v-1.72a4.24 4.24 0 0 1-3.78 1.98c-1.4 0-2.6-.5-3.58-1.52a5.2 5.2 0 0 1-1.48-3.74c0-1.47.5-2.7 1.48-3.72a4.78 4.78 0 0 1 3.58-1.54c1.65 0 2.91.66 3.78 1.98V129Zm-3.56 8.58a3.51 3.51 0 0 0 3.56-3.58c0-1.01-.34-1.86-1.02-2.54a3.42 3.42 0 0 0-2.54-1.04c-1 0-1.84.35-2.52 1.04a3.45 3.45 0 0 0-1.02 2.54c0 1.01.34 1.87 1.02 2.56a3.42 3.42 0 0 0 2.52 1.02Zm12.78-6.9h-2.66v5.42c0 .5.09.85.28 1.06.2.2.5.3.9.32.4 0 .89-.01 1.48-.04V139c-1.52.2-2.64.08-3.34-.36-.71-.45-1.06-1.3-1.06-2.54v-5.42h-1.98V129h1.98v-2.28l1.74-.52v2.8h2.66v1.68Zm2.34-3.5a1.1 1.1 0 0 1-.84-.34c-.23-.23-.34-.5-.34-.82 0-.32.1-.6.34-.82.22-.24.5-.36.84-.36.32 0 .59.12.82.36a1.15 1.15 0 0 1 0 1.64c-.23.23-.5.34-.82.34ZM148.7 139v-10h1.74v10h-1.74Zm12.23-1.26a5.13 5.13 0 0 1-3.74 1.52 5.1 5.1 0 0 1-3.74-1.52 5.08 5.08 0 0 1-1.52-3.74c0-1.48.5-2.73 1.52-3.74a5.13 5.13 0 0 1 3.74-1.52c1.47 0 2.71.5 3.74 1.52a5.05 5.05 0 0 1 1.54 3.74c0 1.48-.51 2.73-1.54 3.74Zm-3.74-.18c1 0 1.84-.34 2.52-1.02a3.45 3.45 0 0 0 1.02-2.54c0-1.01-.34-1.86-1.02-2.54a3.42 3.42 0 0 0-2.52-1.02 3.4 3.4 0 0 0-2.5 1.02 3.45 3.45 0 0 0-1.02 2.54c0 1.01.34 1.86 1.02 2.54a3.4 3.4 0 0 0 2.5 1.02Zm11.71-8.82a3.7 3.7 0 0 1 2.82 1.12c.7.73 1.06 1.73 1.06 3V139h-1.74v-6.04c0-.81-.22-1.44-.66-1.88a2.42 2.42 0 0 0-1.82-.68 2.8 2.8 0 0 0-2.1.82c-.53.53-.8 1.36-.8 2.48v5.3h-1.74v-10h1.74v1.44a3.55 3.55 0 0 1 3.24-1.7Zm7.21 2.96c0 .39.2.7.58.94.39.23.85.41 1.4.56.55.13 1.1.3 1.64.48.55.17 1.01.48 1.4.92.39.43.58.98.58 1.66 0 .9-.35 1.63-1.06 2.18a4.2 4.2 0 0 1-2.68.82c-.97 0-1.8-.21-2.5-.64-.7-.43-1.19-1-1.48-1.7l1.5-.86c.16.48.46.86.9 1.14.44.28.97.42 1.58.42.57 0 1.05-.1 1.42-.32.37-.23.56-.57.56-1.04 0-.39-.2-.7-.58-.92a4.8 4.8 0 0 0-1.4-.56 23.8 23.8 0 0 1-1.64-.5 3.3 3.3 0 0 1-1.4-.92 2.35 2.35 0 0 1-.58-1.64c0-.87.33-1.58 1-2.14a3.86 3.86 0 0 1 2.54-.84c.81 0 1.53.19 2.16.56.64.36 1.12.87 1.44 1.52l-1.46.82c-.36-.85-1.07-1.28-2.14-1.28-.5 0-.91.12-1.26.36a1.1 1.1 0 0 0-.52.98Z"/>
</svg>
