<svg xmlns="http://www.w3.org/2000/svg" fill="none" viewBox="0 0 159 180">
  <rect width="159" height="180" fill="#F29E7D" rx="40"/>
  <path fill="#141414" d="M27.9 106.2a5.2 5.2 0 0 1 3.86 1.56 5.17 5.17 0 0 1 1.56 3.84c0 1.52-.52 2.8-1.56 3.84A5.2 5.2 0 0 1 27.9 117h-3.87v6H21.8v-16.8h6.1Zm0 8.71c.92 0 1.7-.31 2.3-.93.6-.64.91-1.44.91-2.38 0-.96-.3-1.75-.91-2.38a3.08 3.08 0 0 0-2.3-.93h-3.87v6.62h3.87ZM44.04 111h2.09v12h-2.09v-2.06a5.1 5.1 0 0 1-4.53 2.37c-1.68 0-3.12-.6-4.3-1.82a6.24 6.24 0 0 1-1.78-4.49c0-1.76.6-3.25 1.78-4.46a5.74 5.74 0 0 1 4.3-1.85c1.98 0 3.5.79 4.53 2.37V111Zm-4.27 10.3a4.22 4.22 0 0 0 4.27-4.3c0-1.22-.4-2.23-1.22-3.05a4.1 4.1 0 0 0-3.05-1.25c-1.2 0-2.2.42-3.02 1.25a4.14 4.14 0 0 0-1.23 3.05 4.2 4.2 0 0 0 1.23 3.07 4.1 4.1 0 0 0 3.02 1.23ZM56.95 111h2.23l-4.9 12.74a6.74 6.74 0 0 1-2.15 3.1 4.46 4.46 0 0 1-3.17.96v-1.94c1.47.1 2.55-.7 3.24-2.45l.21-.46L47.18 111h2.23l4.08 9.4 3.46-9.4Zm18.47 0h2.09v12h-2.09v-2.06a5.1 5.1 0 0 1-4.53 2.37c-1.68 0-3.12-.6-4.3-1.82A6.24 6.24 0 0 1 64.8 117c0-1.76.6-3.25 1.78-4.46a5.74 5.74 0 0 1 4.3-1.85c1.98 0 3.5.79 4.53 2.37V111Zm-4.27 10.3a4.22 4.22 0 0 0 4.27-4.3c0-1.22-.4-2.23-1.22-3.05a4.1 4.1 0 0 0-3.05-1.25c-1.2 0-2.2.42-3.02 1.25A4.14 4.14 0 0 0 66.9 117c0 1.22.4 2.24 1.23 3.07a4.1 4.1 0 0 0 3.02 1.23Zm10.58-7.06c0 .46.23.84.7 1.13.46.27 1.02.5 1.68.67.65.16 1.3.35 1.96.58.66.2 1.22.57 1.68 1.1.47.51.7 1.18.7 2a3.1 3.1 0 0 1-1.27 2.6c-.83.66-1.9 1-3.22 1a5.61 5.61 0 0 1-3-.78 4.3 4.3 0 0 1-1.77-2.04l1.8-1.03c.19.58.55 1.03 1.08 1.37.52.34 1.16.5 1.9.5a3.4 3.4 0 0 0 1.7-.38c.44-.27.67-.69.67-1.25 0-.46-.23-.83-.7-1.1a5.76 5.76 0 0 0-1.68-.67 40 40 0 0 1-1.97-.6 3.96 3.96 0 0 1-1.68-1.1 2.82 2.82 0 0 1-.7-1.98c0-1.04.4-1.9 1.2-2.56a4.63 4.63 0 0 1 3.06-1.01c.97 0 1.84.22 2.59.67a4.14 4.14 0 0 1 1.73 1.82l-1.76.99c-.43-1.03-1.28-1.54-2.56-1.54-.6 0-1.1.15-1.52.43-.41.28-.62.67-.62 1.18ZM29.96 142h2.23l-4.9 12.74a6.74 6.74 0 0 1-2.15 3.1 4.46 4.46 0 0 1-3.17.96v-1.94c1.47.1 2.55-.7 3.24-2.45l.21-.46L20.2 142h2.23l4.08 9.4 3.46-9.4Zm12.91 10.49a6.15 6.15 0 0 1-4.48 1.82c-1.76 0-3.26-.6-4.5-1.82a6.1 6.1 0 0 1-1.82-4.49 6.1 6.1 0 0 1 1.83-4.49 6.15 6.15 0 0 1 4.49-1.82c1.76 0 3.25.6 4.48 1.82a6.06 6.06 0 0 1 1.85 4.49c0 1.78-.61 3.27-1.85 4.49Zm-4.48-.22c1.2 0 2.2-.4 3.02-1.22a4.14 4.14 0 0 0 1.22-3.05c0-1.22-.4-2.23-1.22-3.05a4.1 4.1 0 0 0-3.02-1.22c-1.19 0-2.19.4-3 1.22a4.14 4.14 0 0 0-1.23 3.05c0 1.22.41 2.23 1.23 3.05a4.08 4.08 0 0 0 3 1.22ZM54.74 142h2.1v12h-2.1v-1.73a4.27 4.27 0 0 1-3.88 2.04 4.5 4.5 0 0 1-3.39-1.32 5.06 5.06 0 0 1-1.27-3.62V142h2.09v7.25c0 .97.26 1.73.79 2.28.53.53 1.26.79 2.18.79a3.4 3.4 0 0 0 2.52-.96c.64-.66.96-1.66.96-3V142Zm23.18 0h3.28l-3.81 12h-2.95l-2.21-7.27-2.21 7.27h-2.95l-3.82-12h3.29l2.04 7.37 2.18-7.37h2.93l2.19 7.4 2.04-7.4Zm5.77-1.44a1.88 1.88 0 0 1-1.9-1.9 1.92 1.92 0 0 1 1.9-1.92c.53 0 .97.2 1.34.58a1.84 1.84 0 0 1 0 2.69c-.37.37-.81.55-1.34.55ZM82.15 154v-12h3.1v12h-3.1Zm7.97-8.6c0 .33.21.6.63.8.43.2.95.37 1.56.53.6.14 1.21.33 1.82.57.61.23 1.12.61 1.54 1.16.43.54.65 1.22.65 2.04a3.3 3.3 0 0 1-1.4 2.85c-.9.66-2.05.99-3.43.99-2.46 0-4.14-.96-5.04-2.86l2.69-1.51c.35 1.04 1.14 1.56 2.35 1.56 1.1 0 1.66-.35 1.66-1.03 0-.32-.22-.58-.65-.77-.42-.21-.93-.4-1.54-.55-.6-.16-1.21-.36-1.82-.6a3.88 3.88 0 0 1-1.56-1.13 3.08 3.08 0 0 1-.62-1.97c0-1.18.43-2.11 1.3-2.78a5.14 5.14 0 0 1 3.26-1.04c.97 0 1.86.23 2.66.68.8.43 1.43 1.05 1.9 1.87l-2.64 1.44a1.97 1.97 0 0 0-1.92-1.23c-.4 0-.74.1-1.01.27a.83.83 0 0 0-.39.72Zm14.14-3.74c1.31 0 2.4.44 3.24 1.32.86.88 1.3 2.1 1.3 3.65V154h-3.1v-6.98c0-.8-.22-1.41-.65-1.83-.43-.43-1-.65-1.73-.65-.8 0-1.44.25-1.92.75s-.72 1.24-.72 2.23V154h-3.1v-16.8h3.1v6.14c.75-1.12 1.95-1.68 3.58-1.68Z"/>
</svg>
