<svg xmlns="http://www.w3.org/2000/svg" fill="none" viewBox="0 0 159 180">
  <rect width="159" height="180" fill="#F7D3CF" rx="40"/>
  <path fill="#141414" d="M35.77 120.77a8.35 8.35 0 0 1-6.17 2.54 8.35 8.35 0 0 1-6.17-2.54 8.44 8.44 0 0 1-2.52-6.17 8.4 8.4 0 0 1 2.52-6.17 8.35 8.35 0 0 1 6.17-2.54c2.43 0 4.49.85 6.17 2.54a8.35 8.35 0 0 1 2.54 6.17 8.4 8.4 0 0 1-2.54 6.17Zm-10.8-1.51a6.3 6.3 0 0 0 4.63 1.87 6.37 6.37 0 0 0 6.48-6.53c0-1.86-.62-3.4-1.87-4.66a6.17 6.17 0 0 0-4.61-1.9 6.36 6.36 0 0 0-6.48 6.55c0 1.85.62 3.4 1.85 4.67Zm27.79-11.6c-2.1-.17-3.15.74-3.15 2.74v.6h3.15v2.02H49.6V123h-2.09v-9.98h-4.46V123h-2.09v-9.98h-1.92V111h1.92v-.36c0-1.62.45-2.84 1.35-3.67.9-.83 2.21-1.2 3.9-1.08v2.01c-2.1-.17-3.16.74-3.16 2.74v.36h4.46v-.6c0-1.62.45-2.84 1.35-3.67.9-.83 2.19-1.2 3.89-1.08v2.01Zm1.66 10.3a4 4 0 0 0 1.46 2.5c.79.59 1.75.88 2.88.88 1.59 0 2.74-.58 3.46-1.75L64 120.6c-1.17 1.8-2.93 2.71-5.28 2.71-1.9 0-3.46-.59-4.66-1.77a6.2 6.2 0 0 1-1.78-4.54c0-1.8.59-3.31 1.76-4.51a6.05 6.05 0 0 1 4.53-1.8c1.76 0 3.2.62 4.3 1.87a6.4 6.4 0 0 1 1.6 5.4H54.43Zm4.15-5.3c-1.12 0-2.05.32-2.78.96a4.05 4.05 0 0 0-1.37 2.52h8.02a4 4 0 0 0-1.35-2.6 3.85 3.85 0 0 0-2.52-.88Zm9.75.36c.68-1.5 1.93-2.24 3.74-2.24v2.19a3.78 3.78 0 0 0-2.64.81c-.74.6-1.1 1.55-1.1 2.86V123h-2.1v-12h2.1v2.02Zm-37.8 24.18h3.09V154h-3.1v-1.42a4.64 4.64 0 0 1-3.89 1.76c-1.61 0-3-.61-4.15-1.83a6.41 6.41 0 0 1-1.7-4.51c0-1.78.57-3.27 1.7-4.49a5.48 5.48 0 0 1 4.15-1.85c1.68 0 2.98.59 3.9 1.76v-6.22Zm-5.72 13.25a3.3 3.3 0 0 0 2.4.93c.96 0 1.75-.3 2.38-.93.62-.64.93-1.46.93-2.45 0-1-.31-1.8-.93-2.42a3.18 3.18 0 0 0-2.38-.96c-.96 0-1.76.32-2.4.96a3.28 3.28 0 0 0-.94 2.42c0 1 .32 1.8.94 2.45Zm12.46-9.89a1.88 1.88 0 0 1-1.9-1.9c0-.5.18-.96.55-1.34.39-.38.83-.58 1.35-.58.52 0 .97.2 1.34.58a1.84 1.84 0 0 1 0 2.69c-.37.37-.82.55-1.34.55ZM35.72 154v-12h3.1v12h-3.1Zm7.97-8.6c0 .33.2.6.63.8.43.2.95.37 1.56.53.6.14 1.21.33 1.82.57.6.23 1.12.61 1.54 1.16.43.54.64 1.22.64 2.04a3.3 3.3 0 0 1-1.39 2.85c-.91.66-2.05.99-3.43.99-2.46 0-4.14-.96-5.04-2.86l2.69-1.51c.35 1.04 1.13 1.56 2.35 1.56 1.1 0 1.66-.35 1.66-1.03 0-.32-.22-.58-.65-.77-.42-.21-.93-.4-1.54-.55-.6-.16-1.21-.36-1.82-.6a3.88 3.88 0 0 1-1.56-1.13 3.08 3.08 0 0 1-.63-1.97c0-1.18.44-2.11 1.3-2.78a5.14 5.14 0 0 1 3.26-1.04c.98 0 1.87.23 2.67.68.8.43 1.43 1.05 1.9 1.87L47 145.65a1.97 1.97 0 0 0-1.92-1.23c-.4 0-.73.1-1 .27a.83.83 0 0 0-.39.72Zm13.01 8.94a6.16 6.16 0 0 1-6.33-6.34 6.17 6.17 0 0 1 6.33-6.34c1.17 0 2.23.28 3.2.84a5.59 5.59 0 0 1 2.18 2.26l-2.67 1.56a2.7 2.7 0 0 0-1.1-1.18 3.11 3.11 0 0 0-1.63-.43 3.18 3.18 0 0 0-3.22 3.29c0 .94.3 1.73.91 2.35.61.61 1.38.91 2.3.91a3.3 3.3 0 0 0 1.66-.4c.5-.3.87-.68 1.1-1.18l2.7 1.54a6.1 6.1 0 0 1-5.43 3.12Zm16.38-1.83a6.18 6.18 0 0 1-4.51 1.83 6.16 6.16 0 0 1-4.51-1.83 6.18 6.18 0 0 1-1.83-4.51 6.1 6.1 0 0 1 1.83-4.49 6.14 6.14 0 0 1 4.5-1.85c1.78 0 3.29.62 4.52 1.85a6.06 6.06 0 0 1 1.85 4.49c0 1.78-.62 3.28-1.85 4.51Zm-6.84-2.13c.62.62 1.4.93 2.33.93a3.18 3.18 0 0 0 3.26-3.31 3.22 3.22 0 0 0-3.26-3.31 3.16 3.16 0 0 0-3.24 3.31c0 .96.3 1.75.91 2.38ZM84.31 142h3.1v12h-3.1v-1.34c-.76 1.12-1.95 1.68-3.58 1.68-1.31 0-2.4-.44-3.26-1.32a5.04 5.04 0 0 1-1.28-3.65V142h3.1v6.98c0 .8.22 1.42.65 1.85.43.42 1 .63 1.73.63.8 0 1.44-.25 1.92-.75s.72-1.24.72-2.23V142Zm11.88-.34c1.31 0 2.4.44 3.24 1.32.86.88 1.3 2.1 1.3 3.65V154h-3.1v-6.98c0-.8-.22-1.41-.65-1.83-.43-.43-1-.65-1.73-.65-.8 0-1.44.25-1.92.75s-.72 1.24-.72 2.23V154h-3.1v-12h3.1v1.34c.76-1.12 1.95-1.68 3.58-1.68Zm13.32 3.32h-2.7v4.99c0 .41.1.72.3.91.21.2.52.3.92.34.4.01.9 0 1.48-.03V154c-2.13.24-3.63.04-4.5-.6-.87-.64-1.3-1.78-1.3-3.43v-5h-2.1V142h2.1v-2.42l3.1-.94V142h2.7v2.98Zm4.06.43c0 .32.21.58.63.79.43.2.95.37 1.56.53.6.14 1.21.33 1.82.57.61.23 1.12.61 1.54 1.16.43.54.65 1.22.65 2.04a3.3 3.3 0 0 1-1.4 2.85c-.9.66-2.05.99-3.43.99-2.46 0-4.14-.96-5.04-2.86l2.69-1.51c.35 1.04 1.14 1.56 2.35 1.56 1.1 0 1.66-.35 1.66-1.03 0-.32-.22-.58-.65-.77-.42-.21-.93-.4-1.54-.55-.6-.16-1.21-.36-1.82-.6a3.88 3.88 0 0 1-1.56-1.13 3.08 3.08 0 0 1-.62-1.97c0-1.18.43-2.11 1.3-2.78a5.14 5.14 0 0 1 3.26-1.04c.97 0 1.86.23 2.66.68.8.43 1.43 1.05 1.9 1.87l-2.64 1.44a1.97 1.97 0 0 0-1.92-1.23c-.4 0-.74.1-1.01.27a.83.83 0 0 0-.39.72Z"/>
</svg>
