<svg xmlns="http://www.w3.org/2000/svg" width="394" height="48" fill="none">
  <g clip-path="url(#a)">
    <rect width="394" height="48" fill="#0E944D" fill-opacity=".11" rx="16"/>
    <path fill="#141414" d="M56.32 17.8v1.06h-3.44V29h-1.12V18.86h-3.44V17.8h8Zm5.18 3c.98 0 1.74.3 2.3.9.56.6.84 1.39.84 2.39V29h-1.06v-4.91c0-.72-.19-1.27-.57-1.67-.37-.4-.9-.59-1.6-.59-.77 0-1.4.25-1.87.74-.48.48-.72 1.22-.72 2.24V29h-1.06V17.8h1.06v4.45a2.95 2.95 0 0 1 2.68-1.44Zm12.06.2h1.06v8h-1.06v-1.57a3.58 3.58 0 0 1-3.23 1.76 4 4 0 0 1-2.93-1.21c-.8-.81-1.2-1.8-1.2-2.98 0-1.17.4-2.17 1.2-2.98a4 4 0 0 1 2.93-1.21c1.42 0 2.5.58 3.23 1.76V21Zm-5.39 6.26c.6.6 1.36.9 2.24.9A3.1 3.1 0 0 0 73.56 25c0-.88-.3-1.62-.91-2.23a3.02 3.02 0 0 0-2.24-.93c-.88 0-1.63.31-2.24.93-.6.6-.91 1.35-.91 2.24 0 .89.3 1.64.91 2.26ZM80.6 20.8c.97 0 1.73.3 2.29.9.56.58.84 1.38.84 2.38V29h-1.05v-4.91c0-.72-.2-1.27-.58-1.67-.37-.4-.9-.59-1.6-.59a2.5 2.5 0 0 0-1.87.74c-.48.48-.72 1.22-.72 2.24V29h-1.06v-8h1.06v1.25c.6-.96 1.5-1.44 2.69-1.44ZM92.24 29h-1.4l-4-3.86V29h-1.06V17.8h1.05v6.74L90.64 21h1.44l-4.13 3.84L92.24 29Zm11.2-8h1.12l-3.42 8.74c-.31.79-.75 1.4-1.33 1.85-.56.46-1.2.66-1.9.61v-1c.96.11 1.69-.44 2.19-1.66l.2-.5L96.73 21h1.12l3.01 6.7 2.6-6.7Zm8.79 7c-.81.8-1.8 1.2-2.98 1.2a4.13 4.13 0 0 1-4.2-4.2c0-1.18.4-2.18 1.21-2.98a4.1 4.1 0 0 1 3-1.21c1.17 0 2.16.4 2.97 1.21.82.8 1.23 1.8 1.23 2.98s-.4 2.18-1.23 3Zm-5.22-.74c.61.6 1.36.9 2.24.9A3.1 3.1 0 0 0 112.4 25c0-.88-.3-1.62-.9-2.23a3.02 3.02 0 0 0-2.25-.93c-.88 0-1.63.31-2.24.93-.6.6-.9 1.35-.9 2.24 0 .89.3 1.64.9 2.26ZM120.86 21h1.06v8h-1.06v-1.25c-.6.96-1.5 1.44-2.69 1.44-.97 0-1.73-.3-2.3-.88-.56-.6-.83-1.4-.83-2.4V21h1.05v4.91c0 .72.19 1.27.56 1.67.39.4.93.59 1.62.59.77 0 1.4-.24 1.87-.72.48-.5.72-1.24.72-2.26V21Zm4.35 1.33c.49-.97 1.33-1.46 2.53-1.46v1.03c-.73 0-1.33.2-1.81.64-.48.42-.72 1.1-.72 2.01V29h-1.06v-8h1.06v1.33Zm12.21-.3h-2.3v4.84c0 .44.08.75.25.95.17.18.43.27.77.28.34 0 .77 0 1.28-.03V29c-1.12.17-1.96.1-2.52-.24-.56-.33-.84-.96-.84-1.89v-4.85h-1.68V21h1.68v-1.92l1.06-.32V21h2.3v1.02Zm7.98 5.96c-.8.8-1.8 1.2-2.97 1.2a4.13 4.13 0 0 1-4.21-4.19c0-1.18.4-2.18 1.21-2.98a4.1 4.1 0 0 1 3-1.21c1.17 0 2.16.4 2.97 1.21.82.8 1.23 1.8 1.23 2.98s-.4 2.18-1.23 3Zm-5.21-.73c.6.6 1.35.9 2.24.9a3.1 3.1 0 0 0 3.15-3.17c0-.88-.3-1.62-.91-2.23a3.02 3.02 0 0 0-2.24-.93 3 3 0 0 0-2.24.93c-.61.6-.92 1.35-.92 2.24 0 .89.3 1.64.92 2.26Zm12.5-6.45c1.14 0 2.11.4 2.91 1.21.81.81 1.22 1.8 1.22 2.98 0 1.17-.4 2.17-1.22 2.98a3.94 3.94 0 0 1-2.91 1.21c-1.42 0-2.5-.58-3.23-1.76v4.77h-1.06V21h1.06v1.57a3.58 3.58 0 0 1 3.23-1.76Zm-2.32 6.45c.6.6 1.35.9 2.24.9a3.1 3.1 0 0 0 3.15-3.17c0-.88-.3-1.62-.91-2.23a3.02 3.02 0 0 0-2.24-.93c-.89 0-1.63.31-2.24.93-.6.6-.91 1.35-.91 2.24 0 .89.3 1.64.9 2.26Zm13.03-4.16c0 .36.16.65.48.86.33.21.71.38 1.17.5.46.11.92.25 1.38.4.46.13.85.37 1.17.72.32.33.48.76.48 1.3 0 .7-.28 1.25-.82 1.67a3.2 3.2 0 0 1-2.08.64c-.77 0-1.42-.17-1.97-.51-.53-.34-.9-.78-1.12-1.33l.9-.53c.15.42.41.75.8 1 .4.23.86.35 1.4.35.51 0 .95-.1 1.3-.3.35-.22.53-.54.53-.98a.99.99 0 0 0-.48-.87c-.32-.2-.7-.37-1.17-.5a33 33 0 0 1-1.37-.38 2.8 2.8 0 0 1-1.17-.72 1.86 1.86 0 0 1-.48-1.32c0-.65.25-1.2.77-1.64a2.96 2.96 0 0 1 1.97-.65c.65 0 1.22.15 1.7.45.5.28.86.68 1.1 1.18l-.88.51c-.31-.74-.95-1.12-1.92-1.12-.46 0-.86.11-1.19.34-.33.21-.5.52-.5.93Zm12-2.1h1.05v8h-1.06v-1.25c-.6.96-1.5 1.44-2.68 1.44-.98 0-1.74-.3-2.3-.88-.56-.6-.84-1.4-.84-2.4V21h1.06v4.91c0 .72.18 1.27.56 1.67.38.4.92.59 1.61.59.77 0 1.4-.24 1.87-.72.48-.5.72-1.24.72-2.26V21Zm7.57-.2c1.14 0 2.11.41 2.91 1.22.81.81 1.22 1.8 1.22 2.98 0 1.17-.4 2.17-1.22 2.98a3.94 3.94 0 0 1-2.9 1.21c-1.43 0-2.5-.58-3.24-1.76v4.77h-1.06V21h1.06v1.57a3.58 3.58 0 0 1 3.23-1.76Zm-2.32 6.46c.6.6 1.35.9 2.24.9a3.1 3.1 0 0 0 3.15-3.17c0-.88-.3-1.62-.9-2.23a3.02 3.02 0 0 0-2.25-.93c-.88 0-1.63.31-2.24.93-.6.6-.91 1.35-.91 2.24 0 .89.3 1.64.91 2.26Zm12.5-6.45c1.13 0 2.1.4 2.9 1.21.81.81 1.22 1.8 1.22 2.98 0 1.17-.4 2.17-1.22 2.98a3.94 3.94 0 0 1-2.9 1.21c-1.43 0-2.5-.58-3.24-1.76v4.77h-1.06V21h1.06v1.57a3.58 3.58 0 0 1 3.23-1.76Zm-2.33 6.45c.61.6 1.36.9 2.24.9a3.1 3.1 0 0 0 3.15-3.17c0-.88-.3-1.62-.9-2.23a3.02 3.02 0 0 0-2.25-.93c-.88 0-1.63.31-2.24.93-.6.6-.91 1.35-.91 2.24 0 .89.3 1.64.91 2.26Zm14.91.73c-.81.8-1.8 1.2-2.98 1.2a4.13 4.13 0 0 1-4.2-4.19c0-1.18.4-2.18 1.21-2.98a4.1 4.1 0 0 1 3-1.21c1.17 0 2.16.4 2.97 1.21.82.8 1.23 1.8 1.23 2.98s-.4 2.18-1.23 3Zm-5.22-.73c.61.6 1.36.9 2.24.9A3.1 3.1 0 0 0 205.9 25c0-.88-.3-1.62-.9-2.23a3.02 3.02 0 0 0-2.25-.93c-.88 0-1.63.31-2.24.93-.6.6-.9 1.35-.9 2.24 0 .89.3 1.64.9 2.26Zm9.28-4.93c.49-.97 1.33-1.46 2.52-1.46v1.03c-.72 0-1.32.2-1.8.64-.48.42-.72 1.1-.72 2.01V29h-1.06v-8h1.06v1.33Zm8.37-.3h-2.3v4.84c0 .44.08.75.25.95.17.18.43.27.77.28.34 0 .77 0 1.28-.03V29c-1.12.17-1.97.1-2.53-.24-.56-.33-.83-.96-.83-1.89v-4.85h-1.68V21h1.68v-1.92l1.05-.32V21h2.3v1.02Zm4.97-1.22a3.6 3.6 0 0 1 2.86 1.26 4.32 4.32 0 0 1 1.07 3.46h-7.02c.1.8.45 1.45 1.03 1.93.58.47 1.3.7 2.16.7.6 0 1.13-.11 1.56-.36.45-.26.79-.59 1.01-1l.93.55a3.8 3.8 0 0 1-1.44 1.35c-.6.33-1.3.5-2.08.5a4.07 4.07 0 0 1-4.26-4.2c0-1.2.4-2.2 1.17-3a4 4 0 0 1 3-1.2Zm0 1.02a3 3 0 0 0-3.09 2.67h5.97a2.9 2.9 0 0 0-.98-1.96 2.83 2.83 0 0 0-1.9-.7Zm6.7.5c.5-.97 1.34-1.46 2.53-1.46v1.03c-.73 0-1.33.2-1.8.64-.49.42-.73 1.1-.73 2.01V29h-1.05v-8h1.05v1.33Zm4.5.77c0 .36.16.65.48.86.32.21.7.38 1.16.5.46.11.92.25 1.38.4.46.13.85.37 1.17.72.32.33.48.76.48 1.3 0 .7-.27 1.25-.82 1.67-.53.43-1.22.64-2.08.64-.76 0-1.42-.17-1.97-.51-.53-.34-.9-.78-1.12-1.33l.9-.53c.15.42.42.75.8 1 .4.23.86.35 1.4.35.52 0 .95-.1 1.3-.3.36-.22.53-.54.53-.98a.99.99 0 0 0-.48-.87c-.32-.2-.7-.37-1.17-.5a33 33 0 0 1-1.37-.38 2.8 2.8 0 0 1-1.17-.72 1.86 1.86 0 0 1-.48-1.32c0-.65.26-1.2.77-1.64a2.96 2.96 0 0 1 1.97-.65c.65 0 1.22.15 1.7.45.5.28.86.68 1.1 1.18l-.88.51c-.31-.74-.95-1.12-1.92-1.12-.46 0-.86.11-1.19.34-.33.21-.5.52-.5.93Zm17.31-2.1h1.06v8h-1.06v-1.57a3.58 3.58 0 0 1-3.23 1.76 4 4 0 0 1-2.93-1.21c-.8-.81-1.2-1.8-1.2-2.98 0-1.17.4-2.17 1.2-2.98a3.99 3.99 0 0 1 2.93-1.21c1.42 0 2.5.58 3.23 1.76V21Zm-5.4 6.26c.62.6 1.36.9 2.25.9a3.1 3.1 0 0 0 3.15-3.17c0-.88-.3-1.62-.91-2.23a3.02 3.02 0 0 0-2.24-.93c-.89 0-1.63.31-2.24.93-.6.6-.91 1.35-.91 2.24 0 .89.3 1.64.9 2.26Zm12.93-5.24h-2.3v4.85c0 .44.08.75.25.95.18.18.43.27.77.28.34 0 .77 0 1.28-.03V29c-1.12.17-1.96.1-2.53-.24-.55-.33-.83-.96-.83-1.89v-4.85h-1.68V21h1.68v-1.92l1.06-.32V21h2.3v1.02ZM272 17.8v2.77h-2.77V29h-2.86v-8.43h-2.77V17.8h8.4Zm3.32 2.1c-.3.3-.65.44-1.07.44a1.52 1.52 0 0 1-1.53-1.53 1.52 1.52 0 0 1 2.6-1.07 1.49 1.49 0 0 1 0 2.16Zm-2.4 9.1v-8h2.66v8h-2.66Zm13.38-8.22c.92 0 1.65.3 2.19.9.54.58.81 1.39.81 2.42V29h-2.67v-4.6c0-.74-.33-1.11-.99-1.11a1 1 0 0 0-.83.37c-.18.23-.27.56-.27.97V29h-2.66v-4.6c0-.74-.34-1.11-1-1.11a1 1 0 0 0-.84.37c-.18.23-.27.56-.27.97V29h-2.66v-8h2.66v.75c.49-.65 1.2-.97 2.16-.97.92 0 1.6.34 2.05 1.02a2.82 2.82 0 0 1 2.32-1.02Zm6.79 5.2c.27.65.86.97 1.8.97.57 0 1.05-.18 1.45-.56l1.92 1.35c-.8.99-1.94 1.48-3.44 1.48-1.36 0-2.45-.4-3.27-1.18a4.07 4.07 0 0 1-1.21-3.02 4.13 4.13 0 0 1 4.25-4.24c1.2 0 2.18.4 2.96 1.2.78.8 1.17 1.8 1.17 3 0 .36-.04.69-.11 1h-5.52Zm-.03-1.84h3.07c-.21-.75-.72-1.12-1.5-1.12-.83 0-1.35.37-1.57 1.12Zm9.03-.8c0 .15.14.27.4.36.28.1.61.2 1 .28.39.08.78.2 1.16.36a2.3 2.3 0 0 1 1.4 2.2c.01.91-.33 1.6-1.01 2.03a4.4 4.4 0 0 1-2.44.65c-1.79 0-2.98-.63-3.58-1.9l2.32-1.17c.2.59.62.88 1.25.88.48 0 .72-.14.72-.43 0-.15-.13-.27-.4-.37-.27-.1-.6-.19-.98-.29a8.1 8.1 0 0 1-1.15-.38 2.18 2.18 0 0 1-1.38-2.1c0-.85.32-1.51.95-1.98a3.7 3.7 0 0 1 2.27-.7c1.58 0 2.68.61 3.3 1.85l-2.24 1.01c-.24-.46-.57-.69-1-.69-.39 0-.59.13-.59.39Zm12.77 5.9a5.34 5.34 0 0 1-2.94-.75 3.97 3.97 0 0 1-1.63-2.03l2.45-1.43a2.2 2.2 0 0 0 2.2 1.49c.88 0 1.32-.25 1.32-.75 0-.33-.25-.6-.76-.8a17.7 17.7 0 0 0-1.4-.43 6.21 6.21 0 0 1-2.44-1.25 2.9 2.9 0 0 1-.9-2.26 3.2 3.2 0 0 1 1.11-2.51 4.13 4.13 0 0 1 2.79-.96c.94 0 1.77.22 2.5.66a4.22 4.22 0 0 1 1.66 1.9l-2.4 1.4c-.36-.82-.94-1.24-1.75-1.24-.34 0-.6.07-.78.2a.65.65 0 0 0-.26.54c0 .24.13.45.39.62a7 7 0 0 0 1.53.6 7.26 7.26 0 0 1 2.41 1.04c.39.26.68.6.87 1.02.2.4.29.88.29 1.44a3.1 3.1 0 0 1-1.17 2.57 4.8 4.8 0 0 1-3.09.93ZM326.01 21h2.66v11.2H326v-3.94c-.54.64-1.3.96-2.27.96-1.07 0-1.97-.4-2.69-1.2a4.4 4.4 0 0 1-1.07-3.02c0-1.2.35-2.2 1.07-3a3.46 3.46 0 0 1 2.69-1.22c.97 0 1.73.32 2.27.96V21Zm-2.9 5.26c.31.32.72.48 1.22.48s.9-.16 1.22-.48c.3-.32.46-.74.46-1.26s-.15-.94-.46-1.26a1.62 1.62 0 0 0-1.22-.48c-.5 0-.9.16-1.22.48-.3.32-.46.74-.46 1.26s.15.94.46 1.26ZM335.28 21h2.65v8h-2.65v-.8c-.48.68-1.22 1.02-2.23 1.02a2.8 2.8 0 0 1-2.12-.88c-.55-.6-.82-1.45-.82-2.56V21h2.66v4.45c0 .41.1.73.32.94.22.22.51.32.88.32.41 0 .73-.12.96-.37.23-.25.35-.61.35-1.08V21Zm9.82 0h2.66v8h-2.66v-.74c-.54.64-1.3.96-2.27.96a3.5 3.5 0 0 1-2.69-1.2 4.4 4.4 0 0 1-1.07-3.02c0-1.2.36-2.2 1.07-3a3.46 3.46 0 0 1 2.7-1.22c.96 0 1.72.32 2.26.96V21Zm-2.9 5.26c.32.32.72.48 1.22.48s.91-.16 1.22-.48c.3-.32.46-.74.46-1.26s-.15-.94-.46-1.26a1.62 1.62 0 0 0-1.22-.48c-.5 0-.9.16-1.21.48-.31.32-.47.74-.47 1.26s.16.94.47 1.26Zm9.75-3.77c.16-.52.45-.93.9-1.22a2.7 2.7 0 0 1 1.5-.43v2.94a2.3 2.3 0 0 0-1.66.34c-.49.32-.74.84-.74 1.57V29h-2.65v-8h2.65v1.49Zm5.58 3.49c.26.65.86.97 1.79.97a2 2 0 0 0 1.45-.56l1.93 1.35c-.8.99-1.94 1.48-3.44 1.48-1.36 0-2.45-.4-3.27-1.18a4.07 4.07 0 0 1-1.22-3.02 4.13 4.13 0 0 1 4.26-4.24c1.2 0 2.18.4 2.96 1.2.78.8 1.17 1.8 1.17 3 0 .36-.04.69-.11 1h-5.52Zm-.03-1.84h3.07c-.22-.75-.72-1.12-1.5-1.12-.83 0-1.35.37-1.57 1.12Z"/>
    <path fill="#0E944D" fill-rule="evenodd" d="m17.92 14.43-1.9 1.75 5.77 6.25-8.73-.35-.1 2.54 8.73.35-6.25 5.77 1.74 1.9 6.25-5.77-.35 8.73 2.54.1.36-8.72 5.76 6.24 1.9-1.74-5.77-6.25 8.74.35.1-2.54-8.73-.36 6.25-5.76-1.75-1.9-6.25 5.77.35-8.73-2.54-.1-.36 8.73-5.76-6.26Z" clip-rule="evenodd"/>
    <path stroke="#0E944D" stroke-linecap="round" stroke-linejoin="round" stroke-width="1.36" d="m372.85 28.44 10.58-10.59m-10.58 0h10.58v10.59"/>
  </g>
  <defs>
    <clipPath id="a">
      <rect width="394" height="48" fill="#fff" rx="16"/>
    </clipPath>
  </defs>
</svg>
