<svg xmlns="http://www.w3.org/2000/svg" xmlns:xlink="http://www.w3.org/1999/xlink" fill="none" viewBox="0 0 327 264">
  <defs>
    <path id="b" fill="#fff" d="M0 49A49 49 0 0 1 49 0h229a49 49 0 0 1 49 49v166a49 49 0 0 1-49 49H49a49 49 0 0 1-49-49V49Z"/>
  </defs>
  <g clip-path="url(#a)">
    <use xlink:href="#b"/>
    <path fill="#2D0A09" d="m24.86 158.22 1.64-1.59c.46.56 1 1.04 1.6 1.44a7.32 7.32 0 0 0 6.53.89 3.9 3.9 0 0 0 1.59-1.1c.38-.47.57-1.01.57-1.64 0-.81-.36-1.45-1.08-1.92-.7-.48-1.92-.84-3.65-1.1a16.17 16.17 0 0 1-3.76-.96 4.7 4.7 0 0 1-2.07-1.51 4.37 4.37 0 0 1 .2-4.85 5.39 5.39 0 0 1 2.3-1.78 8.4 8.4 0 0 1 3.38-.64 8.3 8.3 0 0 1 3.87.86 9.44 9.44 0 0 1 2.97 2.3l-1.6 1.56a7.98 7.98 0 0 0-2.24-1.94 5.76 5.76 0 0 0-3-.74 5.2 5.2 0 0 0-3 .81 2.47 2.47 0 0 0-1.15 2.14c0 .46.14.86.43 1.2.29.32.76.59 1.42.81.65.23 1.53.43 2.64.6 1.6.23 2.89.56 3.86 1.01 1 .43 1.71.99 2.16 1.66.47.67.7 1.48.7 2.42 0 1.04-.3 1.95-.89 2.74a5.74 5.74 0 0 1-2.42 1.85 9.16 9.16 0 0 1-3.56.64 10.1 10.1 0 0 1-4.22-.84 10.36 10.36 0 0 1-3.22-2.32Zm26.56-.72 1.4 1.44a6.53 6.53 0 0 1-2.31 1.8c-.9.43-1.91.64-3.05.64-1.3 0-2.45-.27-3.45-.81a6.24 6.24 0 0 1-2.38-2.23 6.4 6.4 0 0 1-.84-3.3c0-1.22.27-2.31.82-3.26a5.88 5.88 0 0 1 2.25-2.25 6.46 6.46 0 0 1 3.24-.82 5.85 5.85 0 0 1 5.23 3.03c.53.92.8 2 .8 3.24v.14h-2.26v-.22c0-.86-.16-1.61-.48-2.25a3.54 3.54 0 0 0-1.34-1.51 3.95 3.95 0 0 0-4.03 0c-.61.36-1.09.88-1.42 1.56-.34.65-.5 1.43-.5 2.32 0 .9.18 1.7.55 2.38.38.67.9 1.2 1.58 1.56.67.37 1.44.55 2.3.55 1.59 0 2.88-.67 3.9-2.01Zm1.7-1.7H42.46v-1.66h10.3l.38.84v.81Zm8.66-6.9v2.12h-.53a3.65 3.65 0 0 0-3.43 2.14 6.48 6.48 0 0 0-.53 2.82V161h-2.23v-11.9h2.2v3.81h-.33c.18-1 .5-1.8.96-2.37.48-.58 1.03-1 1.66-1.25a5.01 5.01 0 0 1 1.92-.39h.3ZM69.5 161h-2.19l-5.11-11.9h2.38l4.24 10.56h-.76l4.27-10.56h2.28L69.5 161Zm8.65 0h-2.23v-11.9h2.23V161Zm-1.1-14.71c-.42 0-.78-.14-1.08-.41a1.44 1.44 0 0 1-.43-1.06c0-.41.14-.76.43-1.05.3-.29.66-.43 1.08-.43.41 0 .77.14 1.05.43.3.29.44.64.44 1.05a1.44 1.44 0 0 1-1.5 1.47Zm12.85 11.33 1.52 1.44a6.19 6.19 0 0 1-5.02 2.32 6.5 6.5 0 0 1-3.26-.81 5.98 5.98 0 0 1-2.24-2.23 6.55 6.55 0 0 1-.81-3.3c0-1.2.27-2.29.81-3.23a5.88 5.88 0 0 1 2.26-2.26 6.49 6.49 0 0 1 3.29-.84 6.25 6.25 0 0 1 4.97 2.33l-1.52 1.44a3.85 3.85 0 0 0-3.4-1.85 3.88 3.88 0 0 0-3.58 2.14c-.34.65-.5 1.41-.5 2.28 0 .86.16 1.63.5 2.3a4.1 4.1 0 0 0 1.44 1.56c.62.37 1.34.55 2.14.55s1.47-.16 2.01-.5a4.3 4.3 0 0 0 1.4-1.34Zm12.87-.12 1.4 1.44a6.53 6.53 0 0 1-2.3 1.8c-.9.43-1.92.64-3.06.64-1.3 0-2.45-.27-3.45-.81a6.24 6.24 0 0 1-2.38-2.23 6.4 6.4 0 0 1-.84-3.3c0-1.22.27-2.31.82-3.26a5.88 5.88 0 0 1 2.25-2.25 6.46 6.46 0 0 1 3.24-.82 5.85 5.85 0 0 1 5.23 3.03c.53.92.8 2 .8 3.24v.14h-2.26v-.22c0-.86-.16-1.61-.48-2.25a3.54 3.54 0 0 0-1.34-1.51 3.95 3.95 0 0 0-4.03 0c-.61.36-1.09.88-1.42 1.56-.34.65-.5 1.43-.5 2.32 0 .9.18 1.7.55 2.38.38.67.9 1.2 1.58 1.56.67.37 1.44.55 2.3.55 1.59 0 2.89-.67 3.9-2.01Zm1.7-1.7H93.82v-1.66h10.3l.38.84v.81Zm.88 3.38 1.42-1.44a5.73 5.73 0 0 0 4.27 1.85c.9 0 1.63-.18 2.19-.53.56-.37.84-.84.84-1.4 0-.5-.24-.9-.72-1.17a7.07 7.07 0 0 0-2.5-.67c-1.78-.26-3.05-.65-3.81-1.18a2.59 2.59 0 0 1-1.13-2.2c0-.74.21-1.4.64-1.95a4.2 4.2 0 0 1 1.78-1.3 6.57 6.57 0 0 1 2.6-.48 6.85 6.85 0 0 1 5.18 2.18l-1.4 1.45a5.2 5.2 0 0 0-1.67-1.32 4.38 4.38 0 0 0-2.12-.5 3.7 3.7 0 0 0-2.01.5c-.52.33-.77.76-.77 1.3 0 .4.22.74.67.98a8.9 8.9 0 0 0 2.38.57c1.8.26 3.1.67 3.88 1.25.8.58 1.2 1.38 1.2 2.42 0 .76-.22 1.43-.67 2.02a4.35 4.35 0 0 1-1.87 1.34 7.2 7.2 0 0 1-2.73.48 8.4 8.4 0 0 1-3.17-.57 8.3 8.3 0 0 1-2.48-1.63Zm15.81 0 1.42-1.44a5.73 5.73 0 0 0 4.27 1.85c.9 0 1.63-.18 2.19-.53.56-.37.84-.84.84-1.4 0-.5-.24-.9-.72-1.17a7.07 7.07 0 0 0-2.5-.67c-1.78-.26-3.05-.65-3.81-1.18a2.59 2.59 0 0 1-1.13-2.2c0-.74.21-1.4.64-1.95a4.2 4.2 0 0 1 1.78-1.3 6.57 6.57 0 0 1 2.6-.48 6.85 6.85 0 0 1 5.18 2.18l-1.4 1.45c-.47-.56-1.03-1-1.68-1.32a4.38 4.38 0 0 0-2.1-.5 3.7 3.7 0 0 0-2.02.5c-.52.33-.77.76-.77 1.3 0 .4.22.74.67.98a8.9 8.9 0 0 0 2.38.57c1.8.26 3.1.67 3.89 1.25.8.58 1.2 1.38 1.2 2.42 0 .76-.23 1.43-.68 2.02a4.35 4.35 0 0 1-1.87 1.34 7.2 7.2 0 0 1-2.74.48 8.39 8.39 0 0 1-3.16-.57 8.3 8.3 0 0 1-2.48-1.63Zm18.6 2.2a6.6 6.6 0 0 1-3.32-.81 5.93 5.93 0 0 1-2.25-2.23 6.55 6.55 0 0 1-.82-3.3c0-1.22.27-2.31.82-3.26a5.93 5.93 0 0 1 2.25-2.23 6.45 6.45 0 0 1 3.31-.84 6.32 6.32 0 0 1 5.55 3.07c.56.95.84 2.04.84 3.27a6.4 6.4 0 0 1-.84 3.29 5.93 5.93 0 0 1-2.26 2.23 6.5 6.5 0 0 1-3.29.81Zm0-1.92a3.72 3.72 0 0 0 3.53-2.11c.33-.67.5-1.44.5-2.3 0-.87-.17-1.63-.5-2.28a3.87 3.87 0 0 0-3.53-2.14 4 4 0 0 0-2.14.58c-.61.37-1.08.89-1.42 1.56-.33.65-.5 1.41-.5 2.28 0 .86.17 1.63.5 2.3a3.72 3.72 0 0 0 3.55 2.11ZM150.3 161h-2.23v-17.28h2.23V161Zm14.6 0h-2.2v-3.1l-.02-.07v-2.52a5.4 5.4 0 0 0-.53-2.45 3.77 3.77 0 0 0-1.44-1.63c-.6-.4-1.31-.6-2.11-.6a3.82 3.82 0 0 0-3.53 2.16c-.34.66-.5 1.41-.5 2.26 0 .85.17 1.6.52 2.28.35.67.84 1.2 1.44 1.58a4.65 4.65 0 0 0 4.18.12 3.96 3.96 0 0 0 2.18-3.12l.46.46a4.35 4.35 0 0 1-2.26 4.37c-.78.43-1.7.64-2.78.64a5.9 5.9 0 0 1-5.3-3.05 6.88 6.88 0 0 1-.77-3.28c0-1.22.25-2.3.76-3.24a5.86 5.86 0 0 1 5.24-3.1c.88 0 1.67.17 2.37.5a4.68 4.68 0 0 1 2.62 3.53h-.55v-9.02h2.23V161Zm12.3.38a6.6 6.6 0 0 1-3.32-.81 5.93 5.93 0 0 1-2.25-2.23 6.55 6.55 0 0 1-.82-3.3c0-1.22.27-2.31.82-3.26a5.93 5.93 0 0 1 2.25-2.23 6.45 6.45 0 0 1 3.32-.84 6.32 6.32 0 0 1 5.54 3.07c.56.95.84 2.04.84 3.27a6.4 6.4 0 0 1-.84 3.29 5.93 5.93 0 0 1-2.26 2.23c-.94.54-2.04.81-3.28.81Zm0-1.92a3.72 3.72 0 0 0 3.53-2.11c.33-.67.5-1.44.5-2.3 0-.87-.17-1.63-.5-2.28a3.87 3.87 0 0 0-3.53-2.14 4 4 0 0 0-2.14.58c-.6.37-1.08.89-1.42 1.56-.33.65-.5 1.41-.5 2.28 0 .86.17 1.63.5 2.3a3.72 3.72 0 0 0 3.56 2.11Zm19.44 1.54h-2.23v-6.86c0-1.17-.27-2.04-.8-2.62a2.72 2.72 0 0 0-2.13-.89c-.64 0-1.25.17-1.82.5-.58.34-1.04.87-1.4 1.59a6.35 6.35 0 0 0-.52 2.78v5.5h-2.24v-11.9h2.21v3.64h-.34c.18-1 .5-1.8.97-2.37a3.96 3.96 0 0 1 1.65-1.27c.64-.26 1.3-.39 2-.39a4.4 4.4 0 0 1 3.4 1.35c.83.88 1.25 2.16 1.25 3.84v7.1Zm13.44 0h-2.85c-.93 0-1.64-.24-2.14-.72-.48-.5-.72-1.2-.72-2.11v-12.43h2.23v12.14c0 .4.1.71.31.94.21.2.52.3.92.3h2.25V161Zm-.17-10.03h-7.87v-1.87h7.88v1.87Zm7.49 10.41a6.6 6.6 0 0 1-3.32-.81 5.93 5.93 0 0 1-2.25-2.23 6.55 6.55 0 0 1-.82-3.3c0-1.22.27-2.31.82-3.26a5.93 5.93 0 0 1 2.25-2.23 6.45 6.45 0 0 1 3.31-.84 6.32 6.32 0 0 1 5.55 3.07c.56.95.84 2.04.84 3.27a6.4 6.4 0 0 1-.84 3.29 5.93 5.93 0 0 1-2.26 2.23c-.94.54-2.04.81-3.28.81Zm0-1.92a3.72 3.72 0 0 0 3.53-2.11c.33-.67.5-1.44.5-2.3 0-.87-.17-1.63-.5-2.28a3.87 3.87 0 0 0-3.53-2.14 4 4 0 0 0-2.14.58c-.6.37-1.08.89-1.42 1.56-.33.65-.5 1.41-.5 2.28 0 .86.17 1.63.5 2.3a3.72 3.72 0 0 0 3.56 2.11Zm10.53 6.2h-2.23V149.1h2.2v3.64h-.5a4.6 4.6 0 0 1 2.67-3.5 5.67 5.67 0 0 1 5.42.31c.9.55 1.6 1.3 2.12 2.26.5.94.76 2.02.76 3.24a6.7 6.7 0 0 1-.79 3.29 5.68 5.68 0 0 1-2.16 2.23 6 6 0 0 1-3.12.81c-1.07 0-2-.21-2.78-.64a4.47 4.47 0 0 1-1.78-1.8 4.6 4.6 0 0 1-.48-2.57l.46-.46a3.75 3.75 0 0 0 2.18 3.12 4.75 4.75 0 0 0 4.18-.12c.6-.38 1.08-.91 1.44-1.58.35-.67.52-1.43.52-2.28 0-.85-.16-1.6-.5-2.26a3.75 3.75 0 0 0-3.48-2.16c-.8 0-1.51.2-2.13.6-.61.39-1.1.93-1.47 1.63a5.4 5.4 0 0 0-.53 2.45v10.35Zm31.44-4.66h-2.24v-6.89c0-1.15-.24-2.01-.72-2.59a2.4 2.4 0 0 0-1.97-.89c-.59 0-1.16.17-1.7.5-.53.34-.96.87-1.3 1.59-.31.7-.47 1.62-.47 2.76V161h-2.24v-6.89c0-1.15-.24-2.01-.74-2.59a2.37 2.37 0 0 0-1.95-.89c-.6 0-1.18.17-1.72.5-.53.34-.96.87-1.3 1.59a6.7 6.7 0 0 0-.48 2.76V161h-2.23v-11.9h2.2v2.9l-.19-.02c.23-.82.56-1.46.99-1.92.45-.47.95-.8 1.51-1.01a4.8 4.8 0 0 1 1.75-.34c1.08 0 1.96.3 2.64.89.7.6 1.16 1.46 1.37 2.62h-.29a4.9 4.9 0 0 1 1.03-2.04 4.23 4.23 0 0 1 1.64-1.1 5.24 5.24 0 0 1 1.9-.37c1.42 0 2.52.45 3.3 1.35.8.88 1.2 2.16 1.2 3.84v7.1Zm12.69 0h-2.09v-2.35l-.07-.58v-4.44c0-.94-.3-1.69-.91-2.23a3.5 3.5 0 0 0-2.48-.84 5 5 0 0 0-3.69 1.75l-1.4-1.44a6.87 6.87 0 0 1 5.14-2.16c1.1 0 2.04.2 2.86.6a4.51 4.51 0 0 1 2.64 4.25V161Zm-6.48.38c-.9 0-1.69-.16-2.38-.48a3.98 3.98 0 0 1-1.6-1.36 3.47 3.47 0 0 1-.58-1.97c0-.83.23-1.54.7-2.11a4.41 4.41 0 0 1 1.96-1.35 7.92 7.92 0 0 1 2.86-.48h3.62v1.66h-3.38c-1 0-1.84.18-2.5.55-.64.35-.96.9-.96 1.66 0 .64.24 1.15.72 1.53.5.39 1.14.58 1.92.58a4.7 4.7 0 0 0 2.1-.46 3.73 3.73 0 0 0 2.13-3.19l.79.43a4.79 4.79 0 0 1-2.62 4.35c-.8.43-1.73.64-2.78.64Zm15.86-.38h-2.86c-.93 0-1.64-.24-2.14-.72-.48-.5-.72-1.2-.72-2.11v-12.43h2.24v12.14c0 .4.1.71.3.94.22.2.52.3.92.3h2.26V161Zm-.17-10.03h-7.87v-1.87h7.87v1.87ZM293 157.5l1.39 1.44a6.53 6.53 0 0 1-2.3 1.8 7 7 0 0 1-3.05.64c-1.3 0-2.45-.27-3.46-.81a6.3 6.3 0 0 1-2.38-2.23 6.4 6.4 0 0 1-.84-3.3c0-1.22.28-2.31.82-3.26a5.88 5.88 0 0 1 2.26-2.25 6.46 6.46 0 0 1 3.24-.82 5.85 5.85 0 0 1 5.23 3.03c.53.92.79 2 .79 3.24v.14h-2.26v-.22c0-.86-.16-1.61-.48-2.25a3.54 3.54 0 0 0-1.34-1.51 3.95 3.95 0 0 0-4.03 0c-.61.36-1.08.88-1.42 1.56-.33.65-.5 1.43-.5 2.32 0 .9.18 1.7.55 2.38.38.67.91 1.2 1.58 1.56.68.37 1.44.55 2.3.55 1.6 0 2.89-.67 3.9-2.01Zm1.7-1.7h-10.68v-1.66h10.3l.38.84v.81ZM25.05 220.1l5.45-5.45a11.07 11.07 0 0 0 3.7 3.05c1.4.67 2.93 1 4.6 1a8.3 8.3 0 0 0 4.55-1.15 3.73 3.73 0 0 0 1.8-3.35c0-.87-.27-1.6-.8-2.2-.5-.63-1.2-1.1-2.1-1.4a9.3 9.3 0 0 0-3.2-.5H35.9v-6.95h3.15a7 7 0 0 0 2.65-.45 4.65 4.65 0 0 0 1.8-1.3 3 3 0 0 0 .65-1.85 3.4 3.4 0 0 0-1.4-2.95 5.75 5.75 0 0 0-3.55-1.05c-1.57 0-3 .35-4.3 1.05-1.27.67-2.4 1.67-3.4 3l-5.45-5.45a17.35 17.35 0 0 1 6.05-4.25 19.26 19.26 0 0 1 7.45-1.45c2.67 0 5 .47 7 1.4 2 .9 3.55 2.12 4.65 3.65a8.33 8.33 0 0 1 1.65 5.05c0 1.7-.5 3.18-1.5 4.45a9.66 9.66 0 0 1-4.2 2.95c-1.77.7-3.83 1.05-6.2 1.05l1.5-1.85c2.27 0 4.25.4 5.95 1.2a9.7 9.7 0 0 1 4 3.35 8.73 8.73 0 0 1 1.45 5c0 2.1-.62 3.98-1.85 5.65a12.8 12.8 0 0 1-5.15 4 19 19 0 0 1-7.7 1.45 20.8 20.8 0 0 1-7.75-1.45 17.9 17.9 0 0 1-6.35-4.25Zm45.79 5.7c-3.14 0-5.84-.72-8.1-2.15a14.03 14.03 0 0 1-5.15-6.35c-1.2-2.8-1.8-6.18-1.8-10.15 0-6 1.33-10.62 4-13.85 2.66-3.23 6.35-4.85 11.05-4.85 4.7 0 8.38 1.62 11.05 4.85 2.66 3.23 4 7.85 4 13.85 0 3.97-.6 7.35-1.8 10.15a13.91 13.91 0 0 1-5.2 6.35 14.59 14.59 0 0 1-8.05 2.15Zm0-6.9c2 0 3.55-.97 4.65-2.9 1.13-1.97 1.7-4.92 1.7-8.85 0-3.97-.57-6.92-1.7-8.85-1.1-1.97-2.65-2.95-4.65-2.95-2 0-3.57.98-4.7 2.95-1.1 1.93-1.65 4.88-1.65 8.85 0 3.93.55 6.88 1.65 8.85 1.13 1.93 2.7 2.9 4.7 2.9Zm31.5 6.9c-3.13 0-5.83-.72-8.1-2.15a14.03 14.03 0 0 1-5.15-6.35c-1.2-2.8-1.8-6.18-1.8-10.15 0-6 1.34-10.62 4-13.85 2.67-3.23 6.35-4.85 11.05-4.85 4.7 0 8.39 1.62 11.05 4.85 2.67 3.23 4 7.85 4 13.85 0 3.97-.6 7.35-1.8 10.15a13.92 13.92 0 0 1-5.2 6.35 14.6 14.6 0 0 1-8.05 2.15Zm0-6.9c2 0 3.55-.97 4.65-2.9 1.14-1.97 1.7-4.92 1.7-8.85 0-3.97-.56-6.92-1.7-8.85-1.1-1.97-2.65-2.95-4.65-2.95-2 0-3.56.98-4.7 2.95-1.1 1.93-1.65 4.88-1.65 8.85 0 3.93.55 6.88 1.65 8.85 1.14 1.93 2.7 2.9 4.7 2.9Zm21.76 13h-5c1.27-1.3 2.27-2.7 3-4.2.77-1.5 1.1-2.77 1-3.8l1.5 1.55a5.08 5.08 0 0 1-3.6-1.35 4.55 4.55 0 0 1-1.45-3.4 4.7 4.7 0 0 1 1.4-3.45 4.69 4.69 0 0 1 3.45-1.4c1.53 0 2.77.53 3.7 1.6a5.76 5.76 0 0 1 1.45 4.1 9 9 0 0 1-.8 3.45c-.5 1.27-1.17 2.5-2 3.7-.8 1.2-1.68 2.27-2.65 3.2Zm22.66-6.1c-3.14 0-5.84-.72-8.1-2.15a14.03 14.03 0 0 1-5.15-6.35c-1.2-2.8-1.8-6.18-1.8-10.15 0-6 1.33-10.62 4-13.85 2.66-3.23 6.35-4.85 11.05-4.85 4.7 0 8.38 1.62 11.05 4.85 2.66 3.23 4 7.85 4 13.85 0 3.97-.6 7.35-1.8 10.15a13.91 13.91 0 0 1-5.2 6.35 14.59 14.59 0 0 1-8.05 2.15Zm0-6.9c2 0 3.55-.97 4.65-2.9 1.13-1.97 1.7-4.92 1.7-8.85 0-3.97-.57-6.92-1.7-8.85-1.1-1.97-2.65-2.95-4.65-2.95-2 0-3.57.98-4.7 2.95-1.1 1.93-1.65 4.88-1.65 8.85 0 3.93.55 6.88 1.65 8.85 1.13 1.93 2.7 2.9 4.7 2.9Zm31.5 6.9c-3.13 0-5.83-.72-8.1-2.15a14.03 14.03 0 0 1-5.15-6.35c-1.2-2.8-1.8-6.18-1.8-10.15 0-6 1.34-10.62 4-13.85 2.67-3.23 6.35-4.85 11.05-4.85 4.7 0 8.39 1.62 11.05 4.85 2.67 3.23 4 7.85 4 13.85 0 3.97-.6 7.35-1.8 10.15a13.92 13.92 0 0 1-5.2 6.35 14.6 14.6 0 0 1-8.05 2.15Zm0-6.9c2 0 3.55-.97 4.65-2.9 1.14-1.97 1.7-4.92 1.7-8.85 0-3.97-.56-6.92-1.7-8.85-1.1-1.97-2.65-2.95-4.65-2.95-2 0-3.56.98-4.7 2.95-1.1 1.93-1.65 4.88-1.65 8.85 0 3.93.55 6.88 1.65 8.85 1.14 1.93 2.7 2.9 4.7 2.9Zm31.51 6.9c-3.13 0-5.83-.72-8.1-2.15a14.03 14.03 0 0 1-5.15-6.35c-1.2-2.8-1.8-6.18-1.8-10.15 0-6 1.34-10.62 4-13.85 2.67-3.23 6.35-4.85 11.05-4.85 4.7 0 8.38 1.62 11.05 4.85 2.67 3.23 4 7.85 4 13.85 0 3.97-.6 7.35-1.8 10.15a13.91 13.91 0 0 1-5.2 6.35 14.59 14.59 0 0 1-8.05 2.15Zm0-6.9c2 0 3.55-.97 4.65-2.9 1.14-1.97 1.7-4.92 1.7-8.85 0-3.97-.56-6.92-1.7-8.85-1.1-1.97-2.65-2.95-4.65-2.95-2 0-3.56.98-4.7 2.95-1.1 1.93-1.65 4.88-1.65 8.85 0 3.93.55 6.88 1.65 8.85 1.14 1.93 2.7 2.9 4.7 2.9Z"/>
    <path fill="#FFD400" d="M69.57 111.17a38.94 38.94 0 1 0 0-77.87 38.94 38.94 0 0 0 0 77.87Z"/>
    <path fill="#F7BD06" d="M108.19 77.24a38.94 38.94 0 0 1-74.55 10 38.94 38.94 0 0 0 66.82-38.7 38.8 38.8 0 0 1 7.73 28.7Z"/>
    <path fill="#060606" d="M69.65 111.67a39.47 39.47 0 0 1-39.18-44.5A39.17 39.17 0 0 1 45.5 41a39.17 39.17 0 0 1 29.13-7.87 39.47 39.47 0 0 1 34.03 44.17 39.17 39.17 0 0 1-15.04 26.16 39.14 39.14 0 0 1-23.98 8.2Zm-.16-77.9c-8.44 0-16.6 2.77-23.39 8A38.2 38.2 0 0 0 31.44 67.3a38.2 38.2 0 0 0 7.67 28.4 38.2 38.2 0 0 0 25.52 14.67 38.2 38.2 0 0 0 28.4-7.67 38.2 38.2 0 0 0 14.67-25.52 38.5 38.5 0 0 0-38.2-43.4Z"/>
    <path fill="#F7BD06" d="M68.44 32.82a38.94 38.94 0 1 0-10 77.23l6.13.8a38.94 38.94 0 0 1 10-77.23l-6.13-.8Z"/>
    <path fill="#060606" d="M64.57 111.33h-.07l-6.13-.8A39.16 39.16 0 0 1 32.2 95.5a39.17 39.17 0 0 1-7.87-29.13A39.17 39.17 0 0 1 39.37 40.2a39.17 39.17 0 0 1 29.13-7.87l6.14.8a.49.49 0 0 1-.13.97 38.2 38.2 0 0 0-28.4 7.67A38.2 38.2 0 0 0 31.43 67.3a38.5 38.5 0 0 0 33.19 43.07.49.49 0 0 1-.06.97Zm-1.21-78.35c-8.44 0-16.6 2.76-23.4 8a38.2 38.2 0 0 0-14.65 25.51 38.2 38.2 0 0 0 7.67 28.41 38.16 38.16 0 0 0 22.47 14.15 39.5 39.5 0 0 1-24.98-41.89A39.17 39.17 0 0 1 45.51 41a39.17 39.17 0 0 1 19.73-7.97c-.63-.03-1.26-.05-1.88-.05Z"/>
    <path fill="#060F11" d="M54.36 36.87h-.06l-6.14-.8a.49.49 0 0 1 .13-.97l6.13.8a.49.49 0 0 1-.06.97Zm-10.98 7.05h-.06l-6.14-.8a.49.49 0 0 1 .12-.98l6.14.8a.49.49 0 0 1-.06.98Zm-6.5 7.62h-.06l-6.14-.8a.49.49 0 0 1 .13-.97l6.14.8a.49.49 0 0 1-.06.97Zm-3.94 7.96h-.06l-6.14-.8a.49.49 0 0 1 .13-.97l6.13.8a.49.49 0 0 1-.06.97Zm-1.99 8.21h-.06l-6.14-.8a.49.49 0 0 1 .13-.97l6.14.8a.49.49 0 0 1-.07.97Zm-.17 8.45h-.06l-6.14-.8a.49.49 0 0 1 .13-.97l6.13.8a.49.49 0 0 1-.06.97Zm1.79 8.7h-.07l-6.13-.8a.49.49 0 0 1 .12-.97l6.14.8a.49.49 0 0 1-.06.98Zm4.33 9.04h-.06l-6.14-.8a.49.49 0 0 1 .12-.98l6.14.8a.49.49 0 0 1-.06.98Zm8.82 9.6h-.06l-6.14-.8a.49.49 0 0 1 .13-.96l6.14.8a.5.5 0 0 1-.07.97Z"/>
    <path fill="#fff" d="m74.38 53.5 3.63 9.15c.28.72.9 1.25 1.66 1.42l9.59 2.2c1.9.43 2.47 2.86.97 4.1l-7.58 6.27c-.6.5-.9 1.25-.84 2.02l.87 9.8a2.35 2.35 0 0 1-3.6 2.2l-8.3-5.27a2.35 2.35 0 0 0-2.18-.18l-9.05 3.86a2.35 2.35 0 0 1-3.2-2.75l2.44-9.53c.2-.75 0-1.54-.5-2.12l-6.47-7.42a2.35 2.35 0 0 1 1.62-3.89l9.82-.62a2.35 2.35 0 0 0 1.87-1.14l5.05-8.44a2.35 2.35 0 0 1 4.2.34Z"/>
  </g>
  <defs>
    <clipPath id="a">
      <use xlink:href="#b"/>
    </clipPath>
  </defs>
</svg>
