<svg xmlns="http://www.w3.org/2000/svg" fill="none" viewBox="0 0 506 300">
  <rect width="506" height="300" fill="#F29E7D" rx="37.81"/>
  <path fill="#141414" d="M45.78 208.42c2.03 0 3.75.68 5.14 2.05a6.82 6.82 0 0 1 2.09 5.06c0 2-.7 3.68-2.09 5.05a7.04 7.04 0 0 1-5.14 2.05h-3.72v6.96h-4.18v-21.17h7.9Zm0 10.31c.89 0 1.62-.3 2.2-.9.6-.63.88-1.4.88-2.3 0-.93-.29-1.7-.87-2.3a2.97 2.97 0 0 0-2.21-.91h-3.72v6.41h3.72Zm20.25-4.26h3.9v15.12h-3.9v-1.78a5.94 5.94 0 0 1-4.93 2.2 6.92 6.92 0 0 1-5.2-2.3 8.08 8.08 0 0 1-2.15-5.68c0-2.24.72-4.13 2.15-5.66a6.88 6.88 0 0 1 5.2-2.33c2.12 0 3.76.74 4.93 2.21v-1.78Zm-7.2 10.64a4.06 4.06 0 0 0 3 1.18c1.2 0 2.2-.39 3-1.18.8-.8 1.2-1.83 1.2-3.08s-.4-2.27-1.2-3.06a4 4 0 0 0-3-1.2 4 4 0 0 0-3 1.2 4.13 4.13 0 0 0-1.18 3.06c0 1.25.4 2.28 1.18 3.08Zm24.5-10.64h4.18L82 229.59c-.8 2.18-1.84 3.75-3.15 4.72a7.09 7.09 0 0 1-4.84 1.33V232c1.05.02 1.87-.2 2.48-.67a4.6 4.6 0 0 0 1.48-2.23l-6.2-14.64h4.26l3.94 10.16 3.35-10.16Zm25.09 0h3.9v15.12h-3.9v-1.78a5.94 5.94 0 0 1-4.93 2.2 6.92 6.92 0 0 1-5.2-2.3 8.08 8.08 0 0 1-2.15-5.68c0-2.24.72-4.13 2.15-5.66a6.88 6.88 0 0 1 5.2-2.33c2.12 0 3.76.74 4.93 2.21v-1.78Zm-7.2 10.64a4.05 4.05 0 0 0 3 1.18 4.05 4.05 0 0 0 4.19-4.26c0-1.25-.4-2.27-1.2-3.06a4 4 0 0 0-3-1.2 4 4 0 0 0-2.99 1.2 4.13 4.13 0 0 0-1.18 3.06c0 1.25.4 2.28 1.18 3.08Zm18.12-6.35c0 .4.26.74.79 1 .54.24 1.2.46 1.96.67a17 17 0 0 1 2.3.72 4.25 4.25 0 0 1 2.75 4.02c0 1.56-.58 2.76-1.75 3.6a7.22 7.22 0 0 1-4.33 1.24c-3.1 0-5.22-1.2-6.35-3.6l3.39-1.9c.44 1.3 1.43 1.96 2.96 1.96 1.4 0 2.1-.43 2.1-1.3 0-.4-.28-.72-.83-.96a9.27 9.27 0 0 0-1.93-.7c-.77-.2-1.53-.45-2.3-.76a4.89 4.89 0 0 1-1.97-1.42 3.89 3.89 0 0 1-.78-2.48c0-1.49.54-2.66 1.63-3.5a6.48 6.48 0 0 1 4.11-1.3 6.7 6.7 0 0 1 3.36.84 6.05 6.05 0 0 1 2.4 2.36l-3.34 1.81a2.49 2.49 0 0 0-2.42-1.54c-.5 0-.92.11-1.27.33-.32.23-.48.53-.48.91Zm27.88-4.3h4.18l-5.5 15.13c-.8 2.18-1.84 3.75-3.15 4.72a7.09 7.09 0 0 1-4.84 1.33V232c1.05.02 1.87-.2 2.48-.67a4.6 4.6 0 0 0 1.48-2.23l-6.2-14.64h4.26l3.94 10.16 3.35-10.16Zm18.33 13.25a7.79 7.79 0 0 1-5.69 2.3 7.8 7.8 0 0 1-5.69-2.3 7.8 7.8 0 0 1-2.3-5.68 7.7 7.7 0 0 1 2.3-5.66 7.74 7.74 0 0 1 5.7-2.33c2.23 0 4.13.78 5.68 2.33a7.64 7.64 0 0 1 2.33 5.66c0 2.24-.78 4.13-2.33 5.69Zm-8.62-2.69a3.98 3.98 0 0 0 2.93 1.18 4.06 4.06 0 0 0 4.11-4.17 4.06 4.06 0 0 0-4.1-4.18 3.98 3.98 0 0 0-4.1 4.18c0 1.2.4 2.2 1.16 3Zm23.67-10.55h3.9v15.12h-3.9v-1.7c-.94 1.42-2.45 2.12-4.5 2.12a5.52 5.52 0 0 1-4.12-1.66c-1.07-1.1-1.6-2.64-1.6-4.6v-9.28h3.9v8.8c0 1 .27 1.78.82 2.33a3 3 0 0 0 2.18.78c1 0 1.81-.3 2.42-.93.6-.63.9-1.57.9-2.82v-8.16Zm32.07 0h4.14l-4.8 15.12h-3.73l-2.78-9.16-2.78 9.16H199l-4.81-15.12h4.14l2.57 9.28 2.76-9.28h3.69l2.75 9.31 2.57-9.31Zm8.18-1.82a2.37 2.37 0 0 1-2.39-2.39c0-.64.23-1.2.7-1.7a2.33 2.33 0 0 1 3.39 0 2.32 2.32 0 0 1 0 3.4 2.3 2.3 0 0 1-1.7.7Zm-1.93 16.94v-15.12h3.9v15.12h-3.9Zm10.95-10.83c0 .4.26.74.79 1 .54.24 1.2.46 1.96.67.77.18 1.53.42 2.3.72a4.25 4.25 0 0 1 2.75 4.02c0 1.56-.58 2.76-1.75 3.6a7.22 7.22 0 0 1-4.33 1.24c-3.1 0-5.22-1.2-6.35-3.6l3.39-1.9c.44 1.3 1.43 1.96 2.96 1.96 1.4 0 2.1-.43 2.1-1.3 0-.4-.28-.72-.82-.96a10.2 10.2 0 0 0-1.94-.7c-.77-.2-1.53-.45-2.3-.76a4.89 4.89 0 0 1-1.97-1.42 3.89 3.89 0 0 1-.78-2.48c0-1.49.54-2.66 1.63-3.5a6.48 6.48 0 0 1 4.12-1.3 6.7 6.7 0 0 1 3.35.84 6.05 6.05 0 0 1 2.4 2.36l-3.34 1.81a2.49 2.49 0 0 0-2.41-1.54c-.5 0-.93.11-1.28.33-.32.23-.48.53-.48.91Zm18.72-4.72c1.66 0 3.02.56 4.09 1.67 1.08 1.1 1.63 2.64 1.63 4.6v9.28h-3.9v-8.8c0-1.01-.28-1.78-.82-2.3a2.95 2.95 0 0 0-2.18-.82c-1 0-1.81.32-2.42.94-.6.63-.9 1.56-.9 2.81v8.17h-3.9v-21.17h3.9v7.74c.94-1.41 2.44-2.12 4.5-2.12Z"/>
</svg>
