<svg xmlns="http://www.w3.org/2000/svg" fill="none" viewBox="0 0 557 546">
  <g clip-path="url(#a)">
    <rect width="557" height="546" fill="#B7E889" rx="80"/>
    <g filter="url(#b)">
      <g clip-path="url(#c)">
        <rect width="328" height="357" x="114" y="95" fill="#fff" rx="24"/>
        <path fill="#000" d="M142.56 246v2.64h-3.78V260h-2.76v-11.36h-3.76V246h10.3Zm7.2 4h2.58v10h-2.58v-1.18a3.93 3.93 0 0 1-3.26 1.46c-1.33 0-2.48-.5-3.44-1.52a5.35 5.35 0 0 1-1.42-3.76 5.3 5.3 0 0 1 1.42-3.74 4.55 4.55 0 0 1 3.44-1.54c1.4 0 2.5.49 3.26 1.46V250Zm-4.76 7.04c.52.52 1.18.78 1.98.78s1.46-.26 1.98-.78c.54-.53.8-1.21.8-2.04 0-.83-.26-1.5-.8-2.02a2.65 2.65 0 0 0-1.98-.8c-.8 0-1.46.27-1.98.8-.52.52-.78 1.2-.78 2.02 0 .83.26 1.5.78 2.04Zm18.9 2.96h-2.98l-2.16-3.04-2.18 3.04h-2.98l3.66-5.1-3.5-4.9h2.98l2.02 2.82 2.02-2.82h2.96l-3.5 4.88 3.66 5.12Zm11.05.28a5.13 5.13 0 0 1-5.28-5.28 5.14 5.14 0 0 1 5.28-5.28c.98 0 1.86.23 2.66.7s1.4 1.1 1.82 1.88l-2.22 1.3c-.2-.41-.5-.74-.92-.98a2.6 2.6 0 0 0-1.36-.36 2.65 2.65 0 0 0-2.68 2.74 2.6 2.6 0 0 0 2.68 2.72c.52 0 .98-.11 1.38-.34.41-.24.72-.57.92-.98l2.24 1.28a5.08 5.08 0 0 1-4.52 2.6ZM188.28 250h2.58v10h-2.58v-1.18a3.93 3.93 0 0 1-3.26 1.46c-1.33 0-2.48-.5-3.44-1.52a5.34 5.34 0 0 1-1.42-3.76c0-1.48.47-2.73 1.42-3.74a4.55 4.55 0 0 1 3.44-1.54c1.4 0 2.49.49 3.26 1.46V250Zm-4.76 7.04c.52.52 1.18.78 1.98.78s1.46-.26 1.98-.78c.53-.53.8-1.21.8-2.04 0-.83-.27-1.5-.8-2.02a2.65 2.65 0 0 0-1.98-.8c-.8 0-1.46.27-1.98.8-.52.52-.78 1.2-.78 2.02 0 .83.26 1.5.78 2.04Zm9.68 2.96v-14.6h2.58V260h-2.58Zm9.7.28a5.13 5.13 0 0 1-5.28-5.28 5.14 5.14 0 0 1 5.28-5.28c.97 0 1.86.23 2.66.7s1.4 1.1 1.82 1.88l-2.22 1.3c-.2-.41-.5-.74-.92-.98a2.6 2.6 0 0 0-1.36-.36 2.65 2.65 0 0 0-2.68 2.74 2.6 2.6 0 0 0 2.68 2.72c.52 0 .98-.11 1.38-.34.41-.24.72-.57.92-.98l2.24 1.28a5.08 5.08 0 0 1-4.52 2.6ZM215.46 250h2.58v10h-2.58v-1.12c-.62.93-1.62 1.4-2.98 1.4-1.09 0-2-.37-2.72-1.1a4.2 4.2 0 0 1-1.06-3.04V250h2.58v5.82c0 .67.18 1.18.54 1.54.36.35.84.52 1.44.52.67 0 1.2-.2 1.6-.62.4-.41.6-1.03.6-1.86V250Zm4.95 10v-14.6h2.58V260h-2.58Zm12.54-10h2.58v10h-2.58v-1.18a3.93 3.93 0 0 1-3.26 1.46c-1.34 0-2.48-.5-3.44-1.52a5.34 5.34 0 0 1-1.42-3.76c0-1.48.47-2.73 1.42-3.74a4.55 4.55 0 0 1 3.44-1.54c1.4 0 2.49.49 3.26 1.46V250Zm-4.76 7.04c.52.52 1.18.78 1.98.78s1.46-.26 1.98-.78c.53-.53.8-1.21.8-2.04 0-.83-.27-1.5-.8-2.02a2.65 2.65 0 0 0-1.98-.8c-.8 0-1.46.27-1.98.8-.52.52-.78 1.2-.78 2.02 0 .83.26 1.5.78 2.04Zm15.4-4.56h-2.26v4.16c0 .35.08.6.26.76.17.16.42.25.76.28.33.01.74 0 1.24-.02V260c-1.78.2-3.03.03-3.76-.5-.72-.53-1.08-1.49-1.08-2.86v-4.16H237V250h1.74v-2.02l2.58-.78v2.8h2.26v2.48Zm10.02 6.28a5.15 5.15 0 0 1-3.76 1.52 5.15 5.15 0 0 1-5.28-5.28 5.1 5.1 0 0 1 1.52-3.74 5.11 5.11 0 0 1 3.76-1.54 5.1 5.1 0 0 1 3.76 1.54 5.05 5.05 0 0 1 1.54 3.74c0 1.48-.5 2.73-1.54 3.76Zm-5.7-1.78c.52.52 1.17.78 1.94.78a2.68 2.68 0 0 0 2.72-2.76 2.68 2.68 0 0 0-2.72-2.76 2.63 2.63 0 0 0-2.7 2.76c0 .8.26 1.46.76 1.98Zm11.64-5.26a2.7 2.7 0 0 1 1.18-1.44 3.68 3.68 0 0 1 1.86-.48v2.88c-.79-.1-1.5.07-2.12.48-.61.41-.92 1.1-.92 2.06V260h-2.58v-10h2.58v1.72Z"/>
        <path fill="#5E5F5D" d="M139.83 284.92v1.22h-1.2V288h-1.3v-1.86h-5v-1.22l3.52-6.72h1.4l-3.51 6.72h3.6v-2.77h1.3v2.77h1.19Zm1.98 3.23a.88.88 0 0 1-.64-.26.88.88 0 0 1-.26-.65c0-.25.08-.46.26-.64s.4-.27.65-.27c.26 0 .47.1.64.27.18.18.26.4.26.64 0 .26-.08.47-.26.65a.85.85 0 0 1-.65.26Zm5.5-6.13c.92 0 1.7.28 2.33.83.65.54.97 1.3.97 2.25s-.33 1.7-.98 2.26c-.65.55-1.45.82-2.38.82a3.8 3.8 0 0 1-2-.53c-.6-.36-1-.89-1.24-1.57l1.11-.63c.13.48.38.84.76 1.1.37.24.83.36 1.37.36.62 0 1.12-.16 1.5-.48.38-.31.57-.76.57-1.33 0-.57-.19-1.01-.57-1.33a2.18 2.18 0 0 0-1.47-.49h-2.78l.37-5.08h5.36v1.22h-4.19l-.16 2.6h1.43Zm5.08 7.38h-.73l5.6-12.6h.73l-5.6 12.6Zm9.91-7.38c.93 0 1.7.28 2.34.83.65.54.97 1.3.97 2.25s-.33 1.7-.98 2.26c-.66.55-1.45.82-2.38.82a3.8 3.8 0 0 1-2-.53c-.6-.36-1-.89-1.24-1.57l1.1-.63a2 2 0 0 0 .76 1.1c.38.24.84.36 1.38.36.61 0 1.11-.16 1.5-.48.38-.31.57-.76.57-1.33 0-.57-.2-1.01-.57-1.33a2.18 2.18 0 0 0-1.47-.49h-2.78l.37-5.08h5.36v1.22h-4.19l-.16 2.6h1.42Zm9.68 7.38a13.93 13.93 0 0 1-1.54-6.3c0-2.15.51-4.25 1.54-6.3h1.22a13.93 13.93 0 0 0-1.54 6.3c0 2.15.5 4.25 1.53 6.3h-1.21Zm4.34-11.2h1.12v9.8h-1.29v-8.4l-2.08.62-.32-1.12 2.57-.9Zm7.93 4.73c.48.25.85.57 1.12.98.27.41.4.88.4 1.4 0 .9-.3 1.6-.93 2.12-.63.5-1.43.75-2.42.75-.98 0-1.79-.25-2.41-.75a2.59 2.59 0 0 1-.94-2.12c0-.52.14-.99.4-1.4a3 3 0 0 1 1.13-.98 2.4 2.4 0 0 1-1.2-2.14c0-.89.29-1.57.88-2.04a3.3 3.3 0 0 1 2.14-.73c.84 0 1.55.24 2.14.73.6.47.9 1.15.9 2.04 0 .92-.4 1.64-1.2 2.14Zm-1.83-3.67c-.5 0-.91.13-1.25.4-.33.26-.49.64-.49 1.16 0 .5.17.88.5 1.16.34.27.75.4 1.24.4.48 0 .9-.13 1.23-.4.34-.28.5-.67.5-1.16 0-.51-.16-.9-.49-1.16-.32-.27-.74-.4-1.24-.4Zm0 7.68a2.4 2.4 0 0 0 1.5-.44c.38-.3.57-.72.57-1.27 0-.54-.2-.96-.58-1.25-.37-.3-.87-.45-1.5-.45-.6 0-1.1.15-1.5.45-.36.3-.55.7-.55 1.25s.19.97.56 1.27c.38.3.88.44 1.5.44Zm14.25 1.06-2.2-3.75h-2.31V288h-1.3v-9.8h3.91c.84 0 1.56.3 2.16.9.6.58.9 1.3.9 2.14 0 .63-.2 1.21-.58 1.73a3 3 0 0 1-1.45 1.11l2.3 3.92h-1.44Zm-4.51-8.58v3.65h2.62c.48 0 .9-.18 1.23-.53.34-.36.52-.8.52-1.3s-.18-.94-.52-1.29a1.63 1.63 0 0 0-1.23-.53h-2.62Zm12.57 1.58h1.22v7h-1.22v-1.2a2.97 2.97 0 0 1-2.65 1.38c-.98 0-1.81-.35-2.5-1.06a3.64 3.64 0 0 1-1.04-2.62c0-1.03.34-1.9 1.04-2.6a3.35 3.35 0 0 1 2.5-1.08c1.16 0 2.04.46 2.65 1.38V281Zm-2.5 6a2.42 2.42 0 0 0 2.5-2.5c0-.7-.24-1.3-.72-1.78a2.4 2.4 0 0 0-1.77-.73c-.7 0-1.3.25-1.77.73a2.41 2.41 0 0 0-.71 1.78c0 .7.24 1.3.71 1.8a2.4 2.4 0 0 0 1.77.7Zm9.37-4.82h-1.86v3.79c0 .34.06.6.2.74.13.14.34.22.62.23l1.04-.03V288c-1.06.14-1.84.06-2.34-.25-.5-.32-.74-.91-.74-1.78v-3.8h-1.39V281h1.39v-1.6l1.22-.36V281h1.86v1.18Zm2.06-2.45a.8.8 0 0 1-.6-.24.79.79 0 0 1-.23-.58c0-.22.08-.41.24-.57a.78.78 0 0 1 .59-.25c.22 0 .41.08.57.25.16.16.24.35.24.57 0 .23-.08.42-.24.58a.78.78 0 0 1-.57.24Zm-.62 8.27v-7h1.22v7h-1.22Zm6.56-7.18c.83 0 1.48.26 1.98.78.5.51.74 1.21.74 2.1v4.3h-1.22v-4.23c0-.57-.15-1-.46-1.31a1.7 1.7 0 0 0-1.27-.48 2 2 0 0 0-1.47.57c-.38.38-.56.96-.56 1.74V288h-1.22v-7h1.22v1a2.48 2.48 0 0 1 2.26-1.18Zm10.23.18h1.2v6.7c0 1.04-.35 1.85-1.05 2.41-.7.58-1.54.87-2.52.87-.78 0-1.46-.15-2.03-.45-.57-.28-1-.7-1.28-1.26l1.06-.6c.38.79 1.14 1.18 2.28 1.18.73 0 1.3-.2 1.71-.58a2 2 0 0 0 .63-1.56v-1c-.62.94-1.5 1.4-2.63 1.4a3.57 3.57 0 0 1-3.57-3.65c0-1.02.34-1.88 1.03-2.58a3.4 3.4 0 0 1 2.54-1.06c1.15 0 2.02.46 2.63 1.38V281Zm-4.27 5.24c.48.47 1.07.71 1.78.71a2.44 2.44 0 0 0 2.49-2.49 2.41 2.41 0 0 0-2.5-2.48c-.7 0-1.3.24-1.77.71a2.4 2.4 0 0 0-.71 1.77c0 .7.23 1.3.71 1.78Zm8.35-3.35c0 .27.14.49.41.66.27.16.6.29.98.39.38.1.77.2 1.15.34.38.12.7.33.98.64.27.3.4.69.4 1.16 0 .64-.24 1.15-.74 1.53-.48.38-1.1.57-1.87.57-.68 0-1.27-.15-1.75-.45-.49-.3-.83-.7-1.04-1.19l1.05-.6c.11.34.32.6.63.8.3.2.68.3 1.1.3a2 2 0 0 0 1-.23.8.8 0 0 0 .4-.73c0-.27-.14-.48-.41-.64-.27-.17-.6-.3-.98-.4-.38-.1-.77-.21-1.15-.34a2.31 2.31 0 0 1-.98-.65c-.27-.3-.4-.68-.4-1.15 0-.6.23-1.1.7-1.5a2.7 2.7 0 0 1 1.77-.58c.57 0 1.08.13 1.51.39.45.25.79.6 1.01 1.06l-1.02.58c-.25-.6-.75-.9-1.5-.9-.34 0-.64.09-.88.25a.77.77 0 0 0-.37.69Zm6.01 6.51h-1.22a13.95 13.95 0 0 0 1.54-6.3c0-2.15-.51-4.25-1.54-6.3h1.22a13.95 13.95 0 0 1 1.54 6.3c0 2.15-.51 4.25-1.54 6.3Z"/>
        <g clip-path="url(#d)">
          <path fill="#66D200" d="M114 95h328v118H114z"/>
          <path fill="#fff" d="m259.18 198.93-50.31-3.82c-2.37-.18-4.28-2.45-4.28-5.08v-63.87c0-2.63 1.9-4.9 4.28-5.08l50.31-3.81a4.87 4.87 0 0 1 5.3 4.94v71.77a4.87 4.87 0 0 1-5.3 4.95Z"/>
          <path fill="#000" d="m259.58 199.2-.42-.01-50.31-3.82c-2.5-.19-4.52-2.58-4.52-5.34v-63.86c0-2.76 2.03-5.16 4.52-5.35l50.31-3.81a5.13 5.13 0 0 1 5.58 5.2v71.77a5.1 5.1 0 0 1-5.15 5.22Zm-.38-.53a4.62 4.62 0 0 0 5.02-4.7v-71.75a4.62 4.62 0 0 0-5.02-4.69l-50.31 3.8c-2.23.18-4.04 2.34-4.04 4.84v63.86c0 2.5 1.81 4.66 4.04 4.82l50.31 3.82Z"/>
          <path fill="#71FFCC" d="m233.69 175.2-21.63-1.05v-2.74l21.63 1.06v2.73Zm0 6.47-21.63-1.06v-2.74l21.63 1.06v2.74Zm-3.63 6.27-18-.88v-2.73l18 .88v2.73Z"/>
          <path fill="#FEC524" d="M246.17 114.95V123l-26.8 1.5v-7.76l8.79-.6a4.17 4.17 0 1 1 8.29-.6v.05l9.72-.65Z"/>
          <path fill="#fff" d="M232.03 117.45a1.88 1.88 0 1 0 0-3.77 1.88 1.88 0 0 0 0 3.77Z"/>
          <path fill="#BF92FB" d="M255.77 138.76 212.7 141v-12.56l43.07-2.26v12.57Z"/>
          <path fill="#fff" d="m258.02 168.22-46.62-1.81v-21.56l46.62-1.82v25.2Z"/>
          <path fill="#000" d="M258.02 168.48H258l-46.62-1.82a.26.26 0 0 1-.25-.26v-21.56c0-.14.11-.25.25-.26l46.62-1.81c.07 0 .14.02.19.07.05.05.08.11.08.18v25.2c0 .07-.03.14-.08.18a.26.26 0 0 1-.18.08Zm-46.36-2.33 46.1 1.8v-24.66l-46.1 1.8v21.06Z"/>
          <path fill="#fff" d="m221.1 166.79-9.7-.38v-21.56l9.7-.38v22.32Z"/>
          <path fill="#000" d="m221.1 167.05-9.7-.38a.26.26 0 0 1-.26-.26v-21.56c0-.14.11-.26.25-.26l9.7-.38c.08 0 .15.02.2.07.05.05.08.12.08.19v22.32a.26.26 0 0 1-.26.26Zm-9.44-.89 9.19.36v-21.78l-9.19.36v21.06Z"/>
          <path fill="#fff" d="m258.02 168.22-9.04-.35v-24.49l9.04-.35v25.2Z"/>
          <path fill="#000" d="m258.02 168.48-9.04-.35a.26.26 0 0 1-.25-.26v-24.5c0-.13.1-.25.25-.25l9.03-.35a.3.3 0 0 1 .2.07c.04.05.07.11.07.18v25.2a.26.26 0 0 1-.26.26Zm-8.77-.86 8.51.33v-24.66l-8.51.34v23.99Z"/>
          <path fill="#000" d="M211.4 150.63a.26.26 0 0 1-.26-.25c0-.15.12-.26.26-.27l46.62-.58c.14 0 .26.11.26.26 0 .14-.11.26-.26.26l-46.61.58Zm46.62 5.4-46.62-.28a.26.26 0 0 1-.26-.26c0-.14.13-.25.26-.26l46.62.28a.26.26 0 0 1 0 .52Zm0 5.99-46.62-1.14a.26.26 0 0 1-.26-.27c0-.14.13-.25.27-.25l46.61 1.14c.15 0 .26.13.26.27s-.12.25-.26.25Z"/>
          <path fill="#fff" d="M223.93 135.63a2.09 2.09 0 0 1-.7 1.58c-.21.2-.46.34-.75.45a3.3 3.3 0 0 1-2.39-.02.86.86 0 0 1-.2-.13.35.35 0 0 1-.1-.18 3.08 3.08 0 0 1 .01-.78.2.2 0 0 1 .07-.1.16.16 0 0 1 .08-.03c.05 0 .11.02.2.07a3.23 3.23 0 0 0 .79.3 2.2 2.2 0 0 0 1.06-.07c.12-.05.22-.11.31-.19a.79.79 0 0 0 .27-.62.57.57 0 0 0-.12-.36c-.08-.1-.18-.18-.3-.26a3 3 0 0 0-.44-.19l-.5-.18a4.15 4.15 0 0 1-.5-.23c-.15-.09-.3-.2-.42-.33a1.48 1.48 0 0 1-.3-.47 1.73 1.73 0 0 1-.13-.68 1.89 1.89 0 0 1 .63-1.44c.2-.17.42-.3.68-.4a3.07 3.07 0 0 1 2.06-.02l.2.1.06.08c.01.03.03.06.03.1l.02.13a3.27 3.27 0 0 1-.03.63.23.23 0 0 1-.05.1.14.14 0 0 1-.08.03.38.38 0 0 1-.17-.05 3.75 3.75 0 0 0-.7-.24 1.72 1.72 0 0 0-.86.05c-.1.05-.2.1-.26.17a.64.64 0 0 0-.16.23.77.77 0 0 0-.05.28c0 .14.03.26.11.36.08.1.18.18.31.25l.44.2a5 5 0 0 1 1 .41 1.52 1.52 0 0 1 .87 1.46Zm5.96 1.26-.03.09a.25.25 0 0 1-.1.07l-.2.06-.32.04h-.31a.98.98 0 0 1-.2-.02.2.2 0 0 1-.1-.05.13.13 0 0 1-.04-.09v-2.6l-2.38.2v2.6l-.03.09a.24.24 0 0 1-.1.07l-.2.06a3.05 3.05 0 0 1-.83.03.2.2 0 0 1-.1-.06.13.13 0 0 1-.04-.08v-6.06c0-.04.01-.07.04-.1a.26.26 0 0 1 .1-.07l.2-.05a2.92 2.92 0 0 1 .83-.03c.05.01.08.03.1.05.02.03.03.06.03.1v2.35l2.38-.2v-2.36c0-.03.01-.06.04-.09a.25.25 0 0 1 .1-.07 2.9 2.9 0 0 1 1.02-.09.2.2 0 0 1 .1.06c.03.02.04.05.04.09v6.06Zm5.17-.76c0 .1 0 .17-.02.24 0 .06-.02.12-.03.16a.21.21 0 0 1-.06.09.15.15 0 0 1-.09.03l-3.2.27c-.1 0-.2-.02-.27-.08-.07-.05-.11-.16-.11-.3v-5.6c0-.14.03-.25.1-.32a.43.43 0 0 1 .28-.12l3.19-.26c.02 0 .05 0 .07.02.03.01.05.04.06.08l.04.16a2.03 2.03 0 0 1-.04.64.23.23 0 0 1-.06.09.14.14 0 0 1-.07.03l-2.28.19v1.57l1.92-.16c.03 0 .06 0 .09.02l.06.08c.01.03.03.08.03.15a1.9 1.9 0 0 1-.03.63.2.2 0 0 1-.06.08.15.15 0 0 1-.09.03l-1.92.16v1.81l2.3-.19c.02 0 .05 0 .07.02.03.02.05.05.07.09.01.03.03.08.03.15a2 2 0 0 1 .02.24Zm4.92-.4a2 2 0 0 1-.02.23c0 .07-.02.12-.03.16a.21.21 0 0 1-.06.1.15.15 0 0 1-.09.03l-3.2.26a.36.36 0 0 1-.27-.07c-.07-.06-.11-.16-.11-.3v-5.6c0-.14.04-.25.11-.32a.43.43 0 0 1 .27-.12l3.18-.26.08.01c.03.02.05.05.06.09.02.03.03.09.04.15a1.82 1.82 0 0 1-.04.64.24.24 0 0 1-.06.1.14.14 0 0 1-.08.03l-2.27.18v1.57l1.92-.16c.03 0 .06 0 .09.02l.06.08c.01.04.03.09.03.15a1.95 1.95 0 0 1-.03.63.2.2 0 0 1-.06.09.15.15 0 0 1-.09.03l-1.92.16v1.8l2.3-.18c.02 0 .05 0 .08.02l.06.08c.01.04.03.09.03.15l.02.24Zm5.38-5.82-.01.25-.04.16a.26.26 0 0 1-.06.1.14.14 0 0 1-.08.04l-1.6.13v5.17c0 .03 0 .06-.03.1a.26.26 0 0 1-.1.06c-.06.03-.12.04-.2.06a3.2 3.2 0 0 1-.83.03c-.05-.01-.09-.03-.1-.06a.12.12 0 0 1-.04-.08v-5.17l-1.6.13c-.03 0-.05 0-.08-.03a.21.21 0 0 1-.06-.08.69.69 0 0 1-.03-.16 2.1 2.1 0 0 1 .03-.67.26.26 0 0 1 .06-.1.15.15 0 0 1 .09-.03l4.49-.37c.03 0 .05 0 .08.02l.06.09.04.16.01.25Z"/>
          <path fill="#000" d="M256.74 189.8h-.03l-15.95-1.6a.26.26 0 0 1-.23-.28.26.26 0 0 1 .28-.23l15.96 1.59a.26.26 0 0 1-.03.51Zm-7.32-2.11c-.6 0-1.22-.06-1.8-.29-.99-.37-1.92-1.35-1.8-2.5.08-.7.53-1.37 1.26-1.85.47-.31.99-.52 1.49-.72l.22-.1-3.12-3.37-1.72 7.14a.26.26 0 1 1-.5-.12l1.83-7.6a.26.26 0 0 1 .44-.12l3.57 3.86c1.1-.5 1.9-1.1 2.42-1.81.7-.95.87-2.14.44-3.04a.26.26 0 0 1 .12-.35c.13-.06.28 0 .35.12a3.56 3.56 0 0 1-.5 3.58 6.34 6.34 0 0 1-2.46 1.9l2.09 2.25c.23.25.5.53.66.88.2.42.22.86.05 1.22-.31.66-1.12.8-1.8.86-.4.03-.82.06-1.24.06Zm-.26-5.05-.4.17c-.5.2-.97.39-1.4.67-.6.4-.97.93-1.02 1.47-.1.89.68 1.68 1.45 1.97.9.34 1.93.26 2.84.19.56-.04 1.16-.14 1.36-.57.1-.2.08-.5-.05-.76-.13-.28-.36-.52-.57-.76l-2.2-2.38Z"/>
          <path fill="#fff" d="m215.95 159.22 4.17-3.23 3.47-.14 2.9-.12-.84 2.78-1 3.33-4.16 3.23-4.54-5.85Z"/>
          <path fill="#000" d="M220.5 165.33h-.04a.26.26 0 0 1-.17-.1l-4.54-5.85a.26.26 0 0 1 .04-.37l4.17-3.23c.04-.03.1-.05.15-.05l6.36-.25c.09 0 .16.03.22.1.05.06.06.15.04.23l-1.82 6.1a.26.26 0 0 1-.1.13l-4.16 3.24a.26.26 0 0 1-.16.05Zm-4.19-6.06 4.23 5.44 3.9-3.03 1.69-5.67-5.92.23-3.9 3.03Z"/>
          <path fill="#fff" d="M210.43 170.53s1.7-12.37 4.38-12.96c2.66-.59 1.06 9.97 1.06 9.97l-5.44 2.99Z"/>
          <path fill="#000" d="M210.44 170.78a.26.26 0 0 1-.26-.3c.18-1.27 1.8-12.55 4.57-13.16.37-.08.72 0 .99.26 1.62 1.52.52 9.14.4 10a.26.26 0 0 1-.14.19l-5.44 2.98a.25.25 0 0 1-.13.03Zm4.58-12.97a.7.7 0 0 0-.16.01c-1.94.44-3.54 8.54-4.1 12.23l4.88-2.67c.35-2.37.93-8.31-.26-9.42a.52.52 0 0 0-.36-.15Z"/>
          <path fill="#FEC524" d="M219.99 156.09a6.47 6.47 0 0 0 4.54 5.85l-19.15 14.85-4.54-5.85L220 156.1Z"/>
          <path fill="#000" d="M205.38 177.06a.26.26 0 0 1-.2-.1l-4.54-5.86a.26.26 0 0 1 .04-.36l19.15-14.86a.26.26 0 0 1 .41.18 6.18 6.18 0 0 0 4.38 5.63.26.26 0 0 1 .06.45L205.55 177a.26.26 0 0 1-.16.06Zm-4.18-6.07 4.23 5.44L224 162.01a6.63 6.63 0 0 1-4.23-5.44L201.2 171Z"/>
          <path fill="#fff" d="m217.13 185-12.57-3.82s2.09-5.5 3.06-7.28c1.72-3.15 8.34-12.6 10.26-10.49.77.85.7 2.82.02 4 0 0 5.97 3.15 6.39 5.85.27 1.76-7.16 11.73-7.16 11.73Z"/>
          <path fill="#000" d="m217.12 185.25-.07-.01-12.57-3.8a.26.26 0 0 1-.15-.14.26.26 0 0 1-.01-.2 94.6 94.6 0 0 1 3.07-7.32c1.17-2.13 6.73-10.57 9.6-10.92.44-.05.8.08 1.08.38.84.92.78 2.82.18 4.06 1.12.62 5.9 3.4 6.3 5.92.28 1.82-6.45 10.9-7.22 11.93a.26.26 0 0 1-.2.1Zm-12.22-4.23 12.13 3.67c2.96-3.98 7.19-10.2 7-11.4-.4-2.53-6.2-5.63-6.25-5.66a.26.26 0 0 1-.13-.16.26.26 0 0 1 .03-.2c.66-1.14.66-2.96 0-3.68-.15-.18-.35-.25-.62-.21-2.36.28-7.6 7.68-9.21 10.65a88.89 88.89 0 0 0-2.95 6.99Z"/>
          <path fill="#71FFCC" d="M199.89 171.69c-4.5 3.5.03 9.34 4.54 5.85l.95-.74-4.54-5.86-.95.75Z"/>
          <path fill="#000" d="M201.6 178.87a3.79 3.79 0 0 1-3.03-1.47c-1.17-1.51-1.3-4 1.16-5.91l.95-.75a.26.26 0 0 1 .2-.05c.06 0 .12.04.17.1l4.54 5.85a.26.26 0 0 1-.04.36l-.96.74a4.9 4.9 0 0 1-3 1.13Zm-.8-7.56-.76.58a4.22 4.22 0 0 0-1.72 2.72c-.13.88.11 1.76.66 2.47a3.26 3.26 0 0 0 2.23 1.25 4.2 4.2 0 0 0 3.06-1l.75-.58-4.22-5.44Zm22.79-15.46 2.89-.12-.83 2.78-2.06-2.66Z"/>
          <path fill="#000" d="M225.65 158.77a.26.26 0 0 1-.2-.1l-2.06-2.66a.26.26 0 0 1 .2-.42l2.88-.11a.26.26 0 0 1 .26.33l-.83 2.77a.26.26 0 0 1-.25.19Zm-1.55-2.68 1.45 1.86.58-1.94-2.03.08Zm-13.26 21.68a.26.26 0 0 1-.26-.23.26.26 0 0 1 .23-.28c2.16-.23 3.57-.95 4.22-2.13 1-1.83-.17-4.2-.18-4.23a.26.26 0 0 1 .06-.31c.02-.02 1.77-1.62 2.76-3.32a.26.26 0 1 1 .45.26 16.65 16.65 0 0 1-2.72 3.31c.27.63 1.06 2.75.09 4.53-.74 1.35-2.29 2.15-4.62 2.4h-.03Z"/>
          <path fill="#fff" d="M217.86 167.55c.48-.85 1.47-1.2 2.22-.79.75.42.96 1.45.49 2.3-.48.85-1.96 2.08-2.7 1.66-.75-.41-.48-2.32 0-3.17Z"/>
          <path fill="#000" d="M218.21 171.07a.95.95 0 0 1-.47-.12c-.93-.52-.62-2.6-.1-3.53.26-.46.67-.81 1.15-.98a1.67 1.67 0 0 1 2.25 1.26c.1.5.02 1.02-.24 1.49a4.63 4.63 0 0 1-1.33 1.4c-.47.31-.9.48-1.26.48Zm1.19-4.22c-.15 0-.3.02-.44.07-.36.13-.67.4-.87.76-.48.86-.62 2.53-.1 2.82.24.13.68 0 1.18-.34.48-.33.95-.82 1.18-1.22.2-.36.26-.76.18-1.14a1.14 1.14 0 0 0-1.13-.96Z"/>
          <path fill="#fff" d="M219.98 169.71c.48-.85 1.47-1.2 2.21-.78.75.41.97 1.44.5 2.3-.48.85-1.97 2.08-2.71 1.66-.75-.42-.48-2.32 0-3.18Z"/>
          <path fill="#000" d="M220.33 173.23a.95.95 0 0 1-.48-.11c-.92-.52-.61-2.6-.1-3.53.27-.47.68-.82 1.15-.99a1.67 1.67 0 0 1 2.25 1.26c.1.5.02 1.03-.24 1.5a4.63 4.63 0 0 1-1.33 1.39c-.46.32-.9.48-1.25.48Zm1.19-4.22c-.15 0-.3.03-.44.08-.36.13-.67.4-.87.75-.49.87-.63 2.53-.1 2.82.23.14.67 0 1.18-.34a4.2 4.2 0 0 0 1.17-1.22c.2-.36.27-.76.19-1.13a1.2 1.2 0 0 0-.58-.82c-.17-.1-.36-.14-.55-.14Z"/>
          <path fill="#fff" d="M221.75 172.05c.47-.85 1.47-1.2 2.21-.79.75.42.97 1.45.5 2.3-.49.85-1.97 2.08-2.72 1.66-.74-.41-.47-2.32 0-3.17Z"/>
          <path fill="#000" d="M222.1 175.56a.95.95 0 0 1-.48-.12c-.43-.23-.63-.83-.6-1.66.04-.66.24-1.4.5-1.86a2.2 2.2 0 0 1 1.15-1c.49-.16 1-.13 1.42.11.87.49 1.13 1.68.59 2.65a4.66 4.66 0 0 1-1.33 1.4c-.47.32-.9.48-1.26.48Zm1.18-4.22c-.14 0-.3.03-.44.08-.36.12-.67.4-.87.75-.22.4-.4 1.06-.42 1.64-.04.6.08 1.05.32 1.18.24.13.68 0 1.18-.34.48-.33.95-.82 1.18-1.22.4-.73.23-1.6-.4-1.95-.16-.1-.35-.14-.55-.14Z"/>
          <path fill="#fff" d="M217.98 187.54s-7.42 28.5-16.4 29.9c-10.29 1.62-34.37-20.36-34.37-20.36l1.14-15.06s7.45.47 14.79 3.45c4.59 1.86 14.3 11.9 14.3 11.9l6.3-16.77c2.6-3.37 15.9.89 14.24 6.94Z"/>
          <path fill="#000" d="M200.43 217.79c-10.79 0-32.44-19.65-33.39-20.52a.26.26 0 0 1-.08-.21L168.1 182a.26.26 0 0 1 .27-.24c.08 0 7.58.51 14.87 3.47 4.2 1.7 12.44 9.97 14.1 11.67l6.16-16.38c0-.03.02-.05.03-.07 1.56-2.03 6.48-1.46 10.1.34 3.56 1.77 5.28 4.31 4.6 6.81-.31 1.2-7.57 28.68-16.6 30.1-.39.06-.78.09-1.2.09Zm-32.95-20.82c1.6 1.43 22.71 20.3 32.95 20.3a7 7 0 0 0 1.11-.08c8.7-1.37 16.12-29.44 16.19-29.72.61-2.24-1-4.57-4.33-6.22-3.77-1.87-8.15-2.1-9.43-.52l-6.28 16.73a.26.26 0 0 1-.2.16.25.25 0 0 1-.23-.07c-.1-.1-9.73-10.02-14.22-11.84a53.67 53.67 0 0 0-14.45-3.41l-1.1 14.67Z"/>
          <path fill="#fff" d="M184.55 197.37c3.95 17.3 6.12 46.27 6.12 46.27h-47.5s-7.13-52.6-.87-56.52a30.18 30.18 0 0 1 7.17-3.16 53.62 53.62 0 0 1 19.85-1.86c1.8.17 3.47.44 4.97.8"/>
          <path fill="#000" d="M143.18 243.9a.26.26 0 0 1-.26-.23c-.3-2.15-7.1-52.81-.76-56.77a30.4 30.4 0 0 1 7.23-3.19 54.09 54.09 0 0 1 19.96-1.87c1.8.17 3.48.45 5 .8.14.04.22.18.19.32a.26.26 0 0 1-.31.2c-1.5-.37-3.15-.63-4.93-.8-6.5-.64-13.89.06-19.76 1.85a29.91 29.91 0 0 0-7.1 3.13c-1.73 1.07-3.44 7.07-1.8 29.48a501.75 501.75 0 0 0 2.8 26.78.26.26 0 0 1-.26.3Zm47.49 0a.26.26 0 0 1-.26-.24c-.02-.3-2.21-29.15-6.11-46.24a.26.26 0 0 1 .5-.11c3.91 17.12 6.1 46.02 6.13 46.3 0 .15-.1.27-.24.28h-.02Z"/>
          <path fill="#71FFCC" d="M169.38 182.18s-1.3 5.84-6.21 6.48c-6.8.9-10.42-2.53-13.63-4.65l-.06-.05a53.61 53.61 0 0 1 19.85-1.86l.05.08Z"/>
          <path fill="#fff" d="M148.1 184.48c-3.42 1.2-10.97 4.4-13.96 10.15-3.1 5.98-9.87 33.84-1.8 39.55 6.47 4.57 30.8-3.3 30.8-3.3 4.82-2.76 2.14-15.88-3.15-13.15l-15.9 2.05s6.11-21.24 5.56-25.56"/>
          <path fill="#000" d="M139 235.87c-2.86 0-5.3-.41-6.8-1.48-8.34-5.9-1.3-34.07 1.71-39.88 3.06-5.9 10.89-9.15 14.1-10.28.14-.04.29.03.34.16a.26.26 0 0 1-.16.33c-3.16 1.1-10.84 4.3-13.82 10.03-3.21 6.2-9.64 33.73-1.87 39.22 1.4 1 3.7 1.38 6.42 1.38 9.25 0 23.4-4.47 24.1-4.7 2.86-1.66 3.02-7.47 1.16-10.9-.62-1.14-1.97-2.87-4.07-1.79a.24.24 0 0 1-.09.03l-15.9 2.04a.26.26 0 0 1-.28-.32c.06-.22 6.09-21.24 5.56-25.45a.26.26 0 0 1 .5-.07c.52 4.05-4.6 22.32-5.45 25.28l15.46-1.99c1.8-.9 3.53-.17 4.72 2.02 1.8 3.32 2.03 9.66-1.37 11.61a.3.3 0 0 1-.05.02c-.76.25-14.8 4.74-24.22 4.74Z"/>
          <path fill="#fff" d="M151.51 183.49s6.05 3.28 10.53 2.82c4.47-.46 6.3-4.29 6.3-4.29s-3.4-3.9-3.14-10.78c-4.46 1.46-13.95-2.65-13.95-2.65s3.15 9.8.26 14.9Z"/>
          <path fill="#000" d="M161.14 186.62c-4.35 0-9.52-2.78-9.75-2.9a.26.26 0 0 1-.1-.36c2.8-4.95-.26-14.59-.29-14.69a.26.26 0 0 1 .35-.31c.1.04 9.45 4.05 13.77 2.64a.26.26 0 0 1 .34.26c-.26 6.68 3.05 10.55 3.08 10.6.07.07.09.18.04.27a8.42 8.42 0 0 1-7.44 4.49Zm-9.27-3.24c1.14.58 6.28 3.07 10.14 2.67a8.01 8.01 0 0 0 6.03-4c-.6-.75-3.24-4.4-3.11-10.46-4.04 1.03-11.28-1.73-13.28-2.55.61 2.1 2.57 9.79.22 14.34Z"/>
          <path fill="#71FFCC" d="m183.28 211.32-8.12 1.37a.43.43 0 0 1-.5-.36l-1.8-10.7a.43.43 0 0 1 .36-.5l8.13-1.36c.23-.04.46.12.5.35l1.79 10.7a.43.43 0 0 1-.35.5Z"/>
          <path fill="#000" d="M176.06 212.77a1.88 1.88 0 0 1-1.86-1.58l-1.4-8.33a1.9 1.9 0 0 1 1.56-2.18l5.76-.97a1.88 1.88 0 0 1 2.18 1.55l1.4 8.34a1.9 1.9 0 0 1-1.56 2.18l-5.76.96c-.1.02-.21.03-.32.03Zm4.38-12.56-.23.01-5.77.97c-.74.13-1.25.83-1.12 1.58l1.4 8.33a1.37 1.37 0 0 0 1.57 1.13l5.77-.96a1.37 1.37 0 0 0 1.12-1.58l-1.4-8.34a1.37 1.37 0 0 0-1.34-1.14Z"/>
          <path fill="#fff" d="M151.26 169.29s-4.44-.87-4.41-4.54c.03-3.59 4.27-1.58 4.41-1.51-.04-.12-1.37-3.47-1.24-6.74.22-5.49 5.24-10.98 11.38-10.5a8.95 8.95 0 0 1 5.3 2.28c6.65 5.8 8.9 21.05 2.55 24.9-3.37 2.05-6.74 2-9.64 1.16"/>
          <path fill="#000" d="M163.28 175.15a13.1 13.1 0 0 1-3.74-.56.26.26 0 1 1 .15-.5c3.39 1 6.56.61 9.43-1.12 2-1.22 3.28-3.79 3.57-7.23.55-6.3-2.1-13.73-6.15-17.26a8.67 8.67 0 0 0-5.16-2.21 9.8 9.8 0 0 0-7.32 2.57 11.1 11.1 0 0 0-3.78 7.67 18.48 18.48 0 0 0 1.22 6.63.26.26 0 0 1-.35.33c-.23-.1-2.28-1.03-3.36-.34-.44.28-.68.82-.68 1.62-.03 3.41 4.03 4.25 4.2 4.28.14.03.23.17.2.3a.26.26 0 0 1-.3.21c-.05 0-4.66-.95-4.62-4.8 0-.98.32-1.67.93-2.05.98-.62 2.47-.22 3.3.08a18.49 18.49 0 0 1-1.06-6.28c.12-2.94 1.6-5.94 3.95-8.03a10.35 10.35 0 0 1 9.16-2.5 9.17 9.17 0 0 1 4 2.13c4.17 3.63 6.9 11.24 6.34 17.7-.31 3.6-1.67 6.31-3.83 7.62a11.59 11.59 0 0 1-6.1 1.74Z"/>
          <path fill="#000" d="M168.46 149.07c-1.43.97-3.74.9-4.27 2.8-.84 2.99-8.37 1.27-9.91 1.75-1.55.49-1.37 2.91-1.2 7.09.18 4.17-1.82 2.52-1.82 2.52-.14-.07-4.38-2.07-4.41 1.51-.04 3.67 4.4 4.54 4.4 4.54-4 5.56-10.24-.27-10.24-.27-8.47-9.61 5.15-13.8 5.15-13.8s-4.74-2.85-3.83-6.26c1.98-7.47 9.12-2.64 9.12-2.64s-1.25-3.31 2.91-6.7c3.45-2.81 14.37.96 15.18 6.08.3 1.88-.24 2.81-1.08 3.38Z"/>
          <path fill="#000" d="M146.96 171.94c-3.15 0-6-2.62-6.13-2.74-2.42-2.75-3.3-5.32-2.64-7.67 1.07-3.8 5.8-5.81 7.4-6.4-1.2-.82-4.3-3.3-3.51-6.24.57-2.15 1.62-3.53 3.12-4.1 2.22-.82 4.77.36 5.86.98-.17-1.16-.08-3.74 3.14-6.36 1.93-1.58 5.86-1.11 8.9.05 2.94 1.13 6.24 3.34 6.7 6.19.27 1.75-.1 2.9-1.2 3.64-.51.35-1.13.57-1.73.78-1.09.38-2.12.75-2.43 1.86-.64 2.3-4.6 2.08-7.5 1.93a10.58 10.58 0 0 0-2.59.01c-1.28.4-1.19 2.62-1.03 6.28l.02.54c.08 1.72-.2 2.7-.83 3.02-.6.3-1.24-.15-1.38-.26-.34-.15-2.3-1-3.34-.33-.44.28-.68.83-.69 1.62-.02 3.42 4.04 4.25 4.2 4.29a.26.26 0 0 1 .17.4 5.5 5.5 0 0 1-4.51 2.51Zm-.12-26.9c-.5 0-.99.07-1.46.24-1.33.5-2.28 1.76-2.8 3.74-.85 3.19 3.67 5.94 3.72 5.97a.26.26 0 0 1-.06.47c-.06.02-6.37 2-7.55 6.21-.61 2.17.23 4.58 2.51 7.17.01.01 3.12 2.87 6.24 2.56a4.87 4.87 0 0 0 3.38-1.97c-1.13-.32-4.26-1.52-4.23-4.7 0-.98.32-1.67.92-2.05 1.29-.81 3.44.12 3.86.31l.06.04s.5.4.85.22c.24-.13.63-.61.54-2.53l-.02-.54c-.17-3.92-.27-6.28 1.4-6.8.5-.16 1.5-.1 2.77-.04 2.72.14 6.44.34 6.97-1.55.38-1.37 1.59-1.8 2.76-2.21.56-.2 1.15-.4 1.62-.72.6-.42 1.27-1.15.96-3.13-.42-2.63-3.56-4.72-6.37-5.79-3.48-1.33-6.85-1.38-8.38-.13-3.96 3.22-2.88 6.28-2.84 6.4a.26.26 0 0 1-.38.3c-.03 0-2.24-1.48-4.47-1.48Zm14.07 17.76c.5-.2.72-.88.48-1.54-.25-.66-.85-1.04-1.36-.85-.5.18-.71.87-.47 1.53s.85 1.04 1.35.85Zm7.31-2.66c.5-.18.72-.87.47-1.53-.24-.66-.84-1.04-1.35-.85-.5.18-.72.87-.47 1.53.24.66.84 1.04 1.35.85Z"/>
          <path fill="#fff" d="M161.13 158.9s-1.93-.45-3.22 1.8l3.22-1.8Z"/>
          <path fill="#000" d="M157.91 160.97a.26.26 0 0 1-.23-.39c1.38-2.4 3.48-1.94 3.5-1.93a.26.26 0 0 1-.1.5c-.08-.01-1.77-.36-2.94 1.7a.26.26 0 0 1-.23.12Z"/>
          <path fill="#fff" d="M168.51 156.37s-1.92-.44-3.2 1.81l3.2-1.8Z"/>
          <path fill="#000" d="M165.3 158.45a.26.26 0 0 1-.13-.04.26.26 0 0 1-.1-.35c1.38-2.4 3.48-1.94 3.5-1.94a.26.26 0 1 1-.11.5c-.08 0-1.76-.35-2.93 1.7a.26.26 0 0 1-.23.13Z"/>
          <path fill="#fff" d="m164.04 160.35 2.11 3.44c.17.28.34.56.36.88.03.42-.21.81-.53 1.08-.32.26-.71.42-1.1.57"/>
          <path fill="#000" d="M164.88 166.58c-.1 0-.2-.06-.24-.16a.26.26 0 0 1 .15-.34c.36-.14.73-.29 1.03-.53.29-.24.45-.57.44-.86a1.77 1.77 0 0 0-.33-.76l-2.1-3.44a.26.26 0 0 1 .44-.27l2.1 3.44c.17.27.38.6.4 1 .03.46-.2.94-.62 1.29a4.23 4.23 0 0 1-1.27.63Z"/>
          <path fill="#fff" d="M163.15 169.28a3.9 3.9 0 0 0 3.64-.27l-3.64.27Z"/>
          <path fill="#000" d="M164.74 169.87c-.57 0-1.14-.12-1.69-.35a.26.26 0 1 1 .2-.48c1.14.49 2.41.4 3.4-.25a.26.26 0 1 1 .28.44c-.65.42-1.42.64-2.2.64Z"/>
          <path fill="#fff" d="M153.01 145.83a5.1 5.1 0 0 1 3.38-6.46l.14.5a4.64 4.64 0 0 0-2.74 2.26 4.64 4.64 0 0 0-.28 3.54l-.5.16Zm-5.96 8.36a4.59 4.59 0 0 1-1.75-3.53 4.6 4.6 0 0 1 1.65-3.57l.33.4a4.12 4.12 0 0 0-1.47 3.16c.02 1.2.62 2.4 1.56 3.13l-.32.4Zm4.4 7.33h-.01a.76.76 0 0 1-.66-.42l.46-.23c.04.07.12.13.2.13.08 0 .17-.05.21-.13.05-.09.05-.22.04-.38l-.27-4.38.52-.03.26 4.38c.01.18.03.43-.09.66a.75.75 0 0 1-.66.4Zm-7.36 7.08a4.28 4.28 0 0 1-3.66-2.1 4.27 4.27 0 0 1 .2-4.48l.42.3a3.8 3.8 0 0 0-.17 3.92 3.8 3.8 0 0 0 3.49 1.84l.04.51-.32.01Z"/>
          <path fill="#000" d="M163.94 204.56c-.33 0-.65-.02-.98-.04a.26.26 0 0 1 .03-.51c.7.03 1.42.08 2.1-.08a2.3 2.3 0 0 0 1.55-1.08c.33-.61.25-1.36.13-2.2l-1.68-11.44a.26.26 0 1 1 .51-.07l1.68 11.43c.1.72.25 1.71-.18 2.53a2.83 2.83 0 0 1-1.9 1.33c-.42.1-.84.13-1.26.13Zm.13-12.71a1.27 1.27 0 1 1-2.54 0 1.27 1.27 0 0 1 2.54 0Z"/>
          <path fill="#000" d="M164.76 195.9a1.27 1.27 0 1 1-2.53 0 1.27 1.27 0 0 1 2.53 0Zm.7 4.02a1.27 1.27 0 1 1-2.54 0 1.27 1.27 0 0 1 2.54 0Z"/>
          <path fill="#FEC524" d="m228.23 217.6 3.76 7.68 10.24-17.44c.47-.8-.26-1.77-1.16-1.54l-21.46 5.62 6.8 4.07"/>
          <path fill="#000" d="M232 225.54h-.01a.26.26 0 0 1-.23-.14l-3.76-7.7a.26.26 0 0 1 .47-.23l3.54 7.25 10-17.02c.2-.34.1-.67-.05-.87a.77.77 0 0 0-.83-.29L220.27 212l6.27 3.76a.26.26 0 1 1-.26.44l-6.8-4.07a.26.26 0 0 1 .06-.47l21.46-5.62a1.3 1.3 0 0 1 1.37.48c.32.42.36.98.09 1.44l-10.24 17.44a.26.26 0 0 1-.23.13Z"/>
          <path fill="#000" d="M231.57 214.8a.26.26 0 0 1-.16-.47l10.54-7.92a.26.26 0 0 1 .31.41l-10.53 7.93a.26.26 0 0 1-.16.06Z"/>
          <path fill="#BF92FB" d="M195.9 132.6a15.3 15.3 0 0 1-29.2-4.73l15.23-1.5 13.97 6.22Z"/>
          <path fill="#71FFCC" d="M199.1 124.16c0 2.21-.47 4.32-1.32 6.22l-13.97-6.22-7.2-13.5a15.3 15.3 0 0 1 22.5 13.5Z"/>
          <path fill="#000" d="M180.39 140.43a15.5 15.5 0 0 1-15.48-14.04.26.26 0 0 1 .23-.28l15.22-1.5c.05 0 .1 0 .13.02l13.98 6.23c.06.03.11.08.13.14.03.06.03.14 0 .2a15.57 15.57 0 0 1-14.21 9.23Zm-14.94-13.83a15.06 15.06 0 0 0 28.57 4.62l-13.67-6.09-14.9 1.47Zm30.8 2.54c-.04 0-.08 0-.11-.02l-13.97-6.23a.26.26 0 0 1-.13-.11l-7.2-13.5a.26.26 0 0 1 .11-.35 15.57 15.57 0 0 1 21.53 20.06.26.26 0 0 1-.23.15Zm-13.8-6.68 13.66 6.08a15.05 15.05 0 0 0-20.69-19.27l7.04 13.19Z"/>
          <path fill="#fff" d="m180.4 124.87-15.23 1.5a15.3 15.3 0 0 1 8.03-15l7.2 13.5Z"/>
          <path fill="#000" d="M165.17 126.63a.26.26 0 0 1-.26-.24 15.54 15.54 0 0 1 8.16-15.25.26.26 0 0 1 .35.1l7.2 13.5c.04.08.04.17 0 .25a.26.26 0 0 1-.2.14l-15.22 1.5h-.03Zm7.92-14.9a15.02 15.02 0 0 0-7.69 14.35l14.58-1.43-6.89-12.93Z"/>
          <path fill="#fff" d="M187.18 115.16c0 .27-.03.52-.1.74a1.35 1.35 0 0 1-.77.93c-.2.09-.43.13-.71.13-.3 0-.54-.04-.74-.13-.2-.09-.35-.2-.47-.36a1.4 1.4 0 0 1-.25-.56 3.2 3.2 0 0 1 .02-1.42c.05-.22.15-.4.27-.57.13-.16.3-.28.5-.37.19-.09.43-.13.71-.13.3 0 .56.05.76.14.2.1.36.22.47.38.12.16.2.34.24.56.04.2.07.43.07.66Zm-1.42 5.03a.43.43 0 0 1-.22.17.77.77 0 0 1-.17.04 2.61 2.61 0 0 1-.53-.01.3.3 0 0 1-.15-.07.1.1 0 0 1-.03-.1c0-.03.02-.07.06-.13l4.79-6.56a.82.82 0 0 1 .1-.1.37.37 0 0 1 .12-.06 2.57 2.57 0 0 1 .7-.03l.15.06a.1.1 0 0 1 .03.1c0 .04-.03.08-.06.13l-4.8 6.56Zm.39-5c0-.18-.01-.35-.03-.48a1.12 1.12 0 0 0-.1-.32.4.4 0 0 0-.16-.19.5.5 0 0 0-.25-.05.47.47 0 0 0-.22.05.42.42 0 0 0-.17.18c-.04.08-.07.19-.1.31a3.04 3.04 0 0 0 .12 1.33c.04.08.1.13.16.16.07.03.14.04.23.04.1 0 .18-.02.25-.05.06-.05.12-.1.16-.19a.88.88 0 0 0 .08-.32c.02-.13.03-.28.03-.46Zm5.08 3.33c0 .28-.03.52-.09.74-.06.22-.16.41-.28.57-.13.15-.3.27-.5.36-.2.09-.43.13-.7.13-.3 0-.55-.04-.75-.13-.2-.09-.35-.2-.47-.36a1.4 1.4 0 0 1-.25-.55 3.2 3.2 0 0 1 .02-1.43 1.36 1.36 0 0 1 .77-.94c.2-.08.43-.13.71-.13.31 0 .56.05.76.14.2.1.36.22.47.38.12.16.2.34.24.56.05.2.07.43.07.66Zm-1.03.04c0-.2 0-.35-.03-.49a1.14 1.14 0 0 0-.1-.32.4.4 0 0 0-.16-.18.5.5 0 0 0-.24-.06.41.41 0 0 0-.4.23c-.04.08-.07.19-.1.32l-.02.47c0 .22 0 .4.03.53a1 1 0 0 0 .1.32c.05.08.1.13.17.16s.15.05.23.05c.1 0 .19-.02.25-.06.07-.04.12-.1.16-.19.04-.08.07-.19.09-.32l.02-.46Z"/>
        </g>
        <g filter="url(#e)">
          <path fill="#fff" d="M113 384h360v68H113z"/>
          <rect width="79" height="38" x="345" y="393" fill="#141414" rx="4"/>
          <path fill="#fff" d="M379.2 411.92c.86.5 1.29 1.24 1.29 2.24 0 .83-.3 1.51-.88 2.04-.6.53-1.31.8-2.17.8h-4.16v-9.8h3.86a3 3 0 0 1 2.12.78c.57.52.87 1.17.87 1.98s-.31 1.46-.93 1.96Zm-2.06-2.91h-1.93v2.15h1.93a1.05 1.05 0 0 0 1.05-1.08c0-.3-.1-.56-.3-.77a1 1 0 0 0-.75-.3Zm.3 6.18c.32 0 .6-.1.8-.32.22-.22.33-.5.33-.84 0-.32-.1-.6-.32-.81a1.08 1.08 0 0 0-.81-.34h-2.23v2.31h2.23Zm9.1-5.19h1.8v7h-1.8v-.78c-.44.65-1.13.98-2.08.98-.77 0-1.4-.26-1.9-.77a2.94 2.94 0 0 1-.75-2.13V410h1.8v4.07c0 .47.13.83.38 1.08.26.25.6.37 1.01.37.47 0 .84-.15 1.12-.44.28-.29.42-.72.42-1.3V410Zm8.13 0h1.93l-2.55 7c-.36 1-.85 1.74-1.46 2.18-.6.46-1.34.67-2.24.62v-1.68c.49 0 .87-.1 1.15-.3.3-.22.52-.57.69-1.04l-2.87-6.78h1.97l1.82 4.7 1.56-4.7Z"/>
          <path fill="#141414" d="M141.43 414.47c0 1.06-.33 1.92-1 2.58a4.44 4.44 0 0 1-2.63 1.17v1.58h-1.21v-1.57c-1-.07-1.87-.35-2.6-.84a4.08 4.08 0 0 1-1.54-2l2.14-1.24c.39.96 1.05 1.5 2 1.64v-3.12h-.02l-.03-.02a7.98 7.98 0 0 1-1.96-.94 3.84 3.84 0 0 1-.83-.7 3.56 3.56 0 0 1-.74-2.21c0-1.05.34-1.9 1.02-2.54.7-.63 1.55-1 2.56-1.1v-1.56h1.2v1.6a4.08 4.08 0 0 1 3.46 2.54l-2.09 1.22c-.28-.72-.74-1.15-1.36-1.31v3c1.11.45 1.86.8 2.25 1.07a3.2 3.2 0 0 1 1.38 2.75Zm-5.96-5.65c0 .26.09.5.26.7.16.2.45.4.86.6v-2.52c-.36.07-.64.21-.83.43-.19.21-.29.48-.29.79Zm2.33 6.93c.76-.17 1.15-.59 1.15-1.26 0-.3-.1-.55-.29-.76-.18-.2-.47-.4-.86-.57v2.59Zm9.37-5.76c1.21 0 2.23.37 3.06 1.1a3.8 3.8 0 0 1 1.24 3.02c0 1.3-.44 2.31-1.31 3.04a4.76 4.76 0 0 1-3.19 1.1 5.25 5.25 0 0 1-2.7-.68 3.9 3.9 0 0 1-1.7-2.02l2.13-1.24c.31 1 1.07 1.51 2.27 1.51a2.2 2.2 0 0 0 1.48-.45c.36-.31.54-.73.54-1.26 0-.51-.18-.93-.53-1.24a2.05 2.05 0 0 0-1.42-.47h-3.81l.5-7h7.15v2.32h-4.84l-.17 2.27h1.3Z"/>
        </g>
      </g>
    </g>
  </g>
  <defs>
    <clipPath id="a">
      <rect width="557" height="546" fill="#fff" rx="80"/>
    </clipPath>
    <clipPath id="c">
      <rect width="328" height="357" x="114" y="95" fill="#fff" rx="24"/>
    </clipPath>
    <clipPath id="d">
      <path fill="#fff" d="M114 95h328v118H114z"/>
    </clipPath>
    <filter id="b" width="376" height="405" x="94" y="75" color-interpolation-filters="sRGB" filterUnits="userSpaceOnUse">
      <feFlood flood-opacity="0" result="BackgroundImageFix"/>
      <feColorMatrix in="SourceAlpha" result="hardAlpha" values="0 0 0 0 0 0 0 0 0 0 0 0 0 0 0 0 0 0 127 0"/>
      <feOffset dx="4" dy="4"/>
      <feGaussianBlur stdDeviation="12"/>
      <feComposite in2="hardAlpha" operator="out"/>
      <feColorMatrix values="0 0 0 0 0 0 0 0 0 0 0 0 0 0 0 0 0 0 0.12 0"/>
      <feBlend in2="BackgroundImageFix" result="effect1_dropShadow_7266_22219"/>
      <feBlend in="SourceGraphic" in2="effect1_dropShadow_7266_22219" result="shape"/>
    </filter>
    <filter id="e" width="368" height="76" x="109" y="376" color-interpolation-filters="sRGB" filterUnits="userSpaceOnUse">
      <feFlood flood-opacity="0" result="BackgroundImageFix"/>
      <feColorMatrix in="SourceAlpha" result="hardAlpha" values="0 0 0 0 0 0 0 0 0 0 0 0 0 0 0 0 0 0 127 0"/>
      <feOffset dy="-4"/>
      <feGaussianBlur stdDeviation="2"/>
      <feComposite in2="hardAlpha" operator="out"/>
      <feColorMatrix values="0 0 0 0 0 0 0 0 0 0 0 0 0 0 0 0 0 0 0.05 0"/>
      <feBlend in2="BackgroundImageFix" result="effect1_dropShadow_7266_22219"/>
      <feBlend in="SourceGraphic" in2="effect1_dropShadow_7266_22219" result="shape"/>
    </filter>
  </defs>
</svg>
